<svg width="180" height="164" viewBox="0 0 180 164" fill="none" xmlns="http://www.w3.org/2000/svg">
<g clip-path="url(#clip0_1_1728)">
<path fill-rule="evenodd" clip-rule="evenodd" d="M165.1 64.8133C165.325 63.6434 165.46 62.4583 165.506 61.2679C166.56 50.5169 164.601 39.6842 159.849 29.9877C156.459 22.9709 144.704 9.02955 139.416 5.18876L138.569 4.48708C138.233 4.30156 137.907 4.09815 137.592 3.87773C137.26 3.65614 136.874 3.52689 136.487 3.32377C135.676 2.98479 134.845 2.69497 133.999 2.4559L132.783 2.10506C129.356 1.90194 123.571 0.738622 119.886 0.258524C119.278 0.258524 118.67 0.258524 118.043 0.0554056C117.111 -0.0184685 116.175 -0.0184685 115.243 0.0554056L113.842 0.313921C111.183 1.27 108.647 2.54078 106.288 4.09931C103.23 6.14896 101.166 8.21707 98.1998 10.2852C97.501 10.7519 96.8526 11.2903 96.2652 11.8917L95.8967 12.3164L95.565 12.7595C95.3255 13.2212 95.1412 14.1629 95.694 14.6061L95.9335 14.7907C97.0574 15.3816 98.2919 14.7907 99.0289 14.6984C99.0289 15.954 99.3605 16.3787 100.687 16.268C101.257 16.0975 101.772 15.779 102.18 15.3447C102.474 15.0123 102.806 14.1814 103.119 13.8305C103.246 13.6954 103.357 13.5468 103.451 13.3874C105.441 10.5622 113.621 10.8022 116.072 11.5408C116.48 11.6062 116.873 11.7437 117.233 11.9471C117.088 12.0862 116.934 12.2157 116.772 12.3348C116.606 12.501 116.625 12.5749 116.385 12.7411L114.027 15.2524C112.553 17.0989 111.023 19.0562 111.539 21.4567C111.58 21.6702 111.669 21.8713 111.8 22.0444C111.931 22.2174 112.1 22.3576 112.295 22.4538C112.693 22.6451 113.146 22.687 113.572 22.5718C113.998 22.4566 114.369 22.1919 114.616 21.826L114.727 21.6968L115.39 20.7181C118.872 16.231 125.303 12.2979 130.867 12.3348H131.494L132.359 12.6303C132.711 12.7691 133.035 12.9692 133.318 13.2212L133.686 13.5905C133.776 13.687 133.856 13.7921 133.926 13.9044C135.602 16.3418 140.945 25.2052 144.391 31.391C148.979 39.5712 148.076 44.446 146.749 50.2995C146.252 52.423 145.736 53.4017 146.326 54.1772C146.565 54.4727 148.168 55.7837 148.684 56.19C149.2 56.5962 149.697 57.1502 149.66 56.19C149.641 55.9503 149.641 55.7095 149.66 55.4698C149.703 55.0215 149.845 54.5883 150.076 54.2019C150.307 53.8155 150.621 53.4856 150.995 53.2361C151.369 52.9867 151.794 52.8241 152.239 52.7601C152.684 52.6961 153.137 52.7323 153.567 52.8662C155.759 53.2909 157.251 57.6303 157.915 60.437C158.188 61.5854 158.306 62.7655 158.265 63.9454C158.265 64.7209 158.136 65.5519 158.928 64.3147C159.112 64.0484 159.322 63.801 159.555 63.5761C159.85 63.2794 160.213 63.0597 160.613 62.9361C161.012 62.8126 161.436 62.7889 161.847 62.8672C162.257 62.9456 162.643 63.1235 162.969 63.3854C163.295 63.6474 163.553 63.9855 163.719 64.3701C164.548 65.5888 164.677 66.2536 165.1 64.8133Z" fill="#CCE0FF"/>
<path fill-rule="evenodd" clip-rule="evenodd" d="M108.624 135.099C128.45 135.099 146.322 137.592 158.869 141.599C158.157 130.728 156.404 119.95 153.636 109.414C151.481 101.714 148.809 99.4983 146.506 93.7002C145.681 91.5488 145.016 89.3392 144.516 87.0896C143.834 84.0798 144.203 81.9932 142.821 79.0941C142.049 77.1293 140.666 75.4655 138.878 74.3486C137.556 73.7101 136.318 72.91 135.193 71.9665C134.161 70.9694 133.903 69.2337 136.685 70.2308C138.941 71.2136 141.09 72.4264 143.097 73.85C145.142 76.5644 144.627 71.5788 143.558 70.1569C142.568 68.6283 141.439 67.1942 140.186 65.873C138.638 64.4881 138.436 59.2255 142.784 64.5804C144.221 66.4269 145.64 66.7962 146.616 69.7692C147.169 71.431 148.459 70.7109 148.127 68.8274C147.243 64.9312 144.94 64.0264 144.166 60.4996C143.816 59.1147 144.387 58.1729 145.769 58.8192C147.119 60.0769 148.353 61.4551 149.454 62.937C151.296 65.596 150.559 67.9226 151.683 69.5476C151.904 69.8615 152.715 68.3658 152.844 66.7778C152.712 64.543 152.297 62.3341 151.61 60.2041C151.075 59.0777 150.541 56.6034 152.826 57.065C153.673 57.2312 155.479 61.0905 155.939 64.4511C156.326 67.4056 154.336 72.5944 155.295 74.8656C156.124 76.8229 157.911 75.0872 157.985 73.2037C157.985 73.056 160.159 64.8205 161.67 67.6641C162.646 69.3999 160.288 75.715 159.827 78.7433C159.182 82.4364 161.098 83.5812 157.874 87.2004C155.442 89.9518 158.556 96.4331 161.706 102.194C166.165 110.448 179.947 146.862 177.423 156.556C175.58 167.377 145.566 176 108.716 176C70.7244 176 39.918 166.767 39.918 155.541C39.918 144.314 70.6322 135.099 108.624 135.099Z" fill="#CCE0FF"/>
<path fill-rule="evenodd" clip-rule="evenodd" d="M127.618 152.808C125.776 153.158 124.357 152.937 124.117 155.873C123.749 160.36 126.66 160.951 130.382 162.797C134.104 164.644 144.477 168.078 148.346 167.801C148.851 167.84 149.358 167.766 149.831 167.586C150.305 167.405 150.733 167.123 151.084 166.758C151.436 166.393 151.703 165.954 151.867 165.474C152.031 164.994 152.087 164.484 152.031 163.979C152.031 159.363 142.008 155.504 138.544 155.559C136.007 155.258 133.49 154.802 131.008 154.193C129.914 153.647 128.781 153.184 127.618 152.808Z" fill="#F9A7B6"/>
<path fill-rule="evenodd" clip-rule="evenodd" d="M132.039 147.563C133.882 154.728 139.409 153.971 143.499 157.313C146.779 159.99 147 163.573 142.173 162.797C137.001 161.275 132.047 159.09 127.433 156.297C124.669 153.564 124.485 148.542 126.383 148.616C130.952 148.819 129.754 147.859 131.394 147.6C131.608 147.573 131.824 147.56 132.039 147.563Z" fill="#FCD2D3"/>
<path fill-rule="evenodd" clip-rule="evenodd" d="M138.782 141.1C136.94 141.433 135.521 141.23 135.282 144.166C134.913 148.653 137.824 149.244 141.546 151.164C145.268 153.084 155.641 156.445 159.51 156.168C160.015 156.206 160.522 156.133 160.996 155.952C161.469 155.772 161.897 155.489 162.248 155.124C162.6 154.759 162.867 154.321 163.031 153.841C163.195 153.361 163.251 152.85 163.195 152.346C163.195 147.729 153.172 143.87 149.708 143.926C147.158 143.593 144.63 143.112 142.136 142.485C141.06 141.926 139.938 141.463 138.782 141.1Z" fill="#F9A7B6"/>
<path fill-rule="evenodd" clip-rule="evenodd" d="M143.223 135.856C145.065 143.021 150.592 142.264 154.683 145.606C157.926 148.283 158.165 151.847 153.338 151.016C150.464 150.518 140.017 145.864 138.598 144.498C135.908 141.839 135.724 136.835 137.566 136.946C142.135 137.149 140.938 136.189 142.578 135.93L143.223 135.856Z" fill="#FCD2D3"/>
<path fill-rule="evenodd" clip-rule="evenodd" d="M72.915 73.5178C74.9786 74.0718 82.4959 68.7168 87.0285 67.1104C95.2828 64.2113 100.313 65.0238 107.535 62.0693C109.194 61.4176 110.993 61.2044 112.758 61.4502C114.523 61.6959 116.195 62.3924 117.614 63.4727C121.686 66.778 120.986 68.6245 126.144 72.3176C127.416 73.2593 134.786 99.9232 134.786 104.429C134.786 114.382 140.313 126.864 135.044 135.617C131.598 141.304 137.66 155.245 124.781 151.091C121.299 149.964 112.363 131.148 111.036 127.233C100.939 178.327 53.0898 165.826 53.0898 122.709C53.0898 110.171 53.9558 106.183 58.9858 94.3836C61.7127 87.9946 61.4916 76.8785 69.0826 74.8104C70.096 74.5888 71.9385 73.2408 72.915 73.5178Z" fill="#4B4680"/>
<path fill-rule="evenodd" clip-rule="evenodd" d="M85.7947 51.8209C89.0743 52.1163 101.124 53.852 100.958 58.8007C100.792 63.7495 100.129 64.1557 102.138 67.3317C103.114 68.9013 93.4778 79.9989 92.7777 83.6181C92.446 85.3354 86.8449 93.2755 88.1162 96.0822C88.3189 96.5439 88.6874 97.3009 89.2954 98.6674C94.6386 110.651 85.0208 113.44 98.0288 121.527C104.477 125.553 103.096 121.749 98.1393 131.776C96.61 134.841 97.2549 133.216 91.5248 130.797C87.9872 129.301 86.329 127.824 81.4095 126.218C77.8365 125.112 74.4187 123.555 71.239 121.583C68.291 119.736 66.6512 118.684 65.7115 118.222C65.4352 118.074 55.0067 123.06 51.7271 123.06C45.8127 123.06 48.0421 105.352 48.5395 101.142C49.4792 93.4048 44.8546 86.7757 50.6216 77.1368C56.3885 67.4979 58.0652 52.4302 71.239 52.5595C78.6089 52.5595 81.4095 50.9899 86.4948 50.8237C86.8817 50.8237 87.6187 51.8209 87.7845 52.3194L85.7947 51.8209Z" fill="#EAF2FF"/>
<path fill-rule="evenodd" clip-rule="evenodd" d="M128.503 68.6244C137.255 77.3954 148.973 133.604 142.875 140.547C141.677 141.913 139.006 142.652 133.662 142.652C133.662 132.718 124.045 75.752 117.191 69.5292C116.196 68.6244 112.308 68.6983 110.926 66.3532C110.41 65.4853 103.796 63.9342 100 58.7085C97.6049 55.4032 89.5533 58.1546 91.6169 65.7992C93.4593 73.0007 97.7155 80.0729 92.317 86.9235C91.3405 88.1792 90.3087 86.9235 89.1663 85.4648C85.9788 81.5501 85.0023 83.8952 80.7278 82.4549C74.2238 80.2391 79.6591 73.1115 73.1736 70.0278C71.489 69.5305 69.8734 68.8233 68.3647 67.9227C67.3254 67.0931 66.4635 66.0623 65.8304 64.8916C65.1973 63.721 64.806 62.4345 64.6797 61.109C64.6797 57.8591 71.4048 56.6958 67.7566 52.5596C67.1884 51.9328 66.8642 51.1219 66.8433 50.2753C66.8223 49.4287 67.1061 48.6028 67.6426 47.9485C68.1792 47.2942 68.9328 46.8553 69.7656 46.712C70.5985 46.5686 71.455 46.7304 72.1786 47.1677C73.0136 47.4952 73.9251 47.5744 74.8038 47.3959C75.6826 47.2173 76.4913 46.7886 77.1331 46.161C77.7748 45.5334 78.2224 44.7337 78.422 43.8577C78.6217 42.9816 78.565 42.0665 78.2588 41.2219C76.7848 36.4948 80.1934 26.7081 87.6924 26.7081C94.1411 26.7081 93.0171 34.3343 105.251 26.1172C110.558 22.5719 113.063 29.0348 117.67 29.0348C132.76 29.0348 133.718 43.4562 132.925 55.4217C132.594 60.3519 130.051 64.1743 128.503 68.6244Z" fill="#7872B8"/>
<path fill-rule="evenodd" clip-rule="evenodd" d="M94.363 62.1243C95.0509 60.7585 95.8457 59.4496 96.7398 58.2096C97.8085 56.6401 100.001 55.883 101.383 54.0734C103.502 51.2667 104.405 44.6191 109.932 44.6191C111.056 44.6191 111.277 44.8223 112.198 47.4628C113.285 50.6019 118.168 54.6458 122.535 53.4825C122.258 55.5137 122.829 59.4099 120.692 61.7734C117.007 65.7619 116.344 63.7677 112.769 65.9281C109.582 67.7747 104.036 69.2888 100.462 67.3869C95.5422 64.7648 96.7767 67.1653 94.1051 67.6085C93.018 67.7747 93.5339 63.3984 94.4367 62.0689C94.4646 61.9225 94.4646 61.7721 94.4367 61.6257L94.363 62.1243Z" fill="#FCD2D3"/>
<path fill-rule="evenodd" clip-rule="evenodd" d="M111.038 127.381L101.954 125.221C100.267 127.431 98.873 129.852 97.8086 132.422C103.456 135.669 109.745 137.636 116.233 138.183C114.52 135.1 112.364 130.409 111.038 127.381Z" fill="#FCD2D3"/>
<path fill-rule="evenodd" clip-rule="evenodd" d="M52.8137 60.8318C51.1751 60.1006 49.4359 59.6212 47.6547 59.41C46.7769 59.2515 45.8912 59.1406 45.0015 59.0776C44.1171 59.0776 43.417 59.0776 42.5694 59.0776C39.3451 59.0407 37.2447 55.6984 32.5463 57.545C28.5113 59.7977 25.9134 66.7776 24.6789 73.9976C23.555 80.6635 23.1128 77.0628 20.1464 80.8482C19.7267 81.406 19.4029 82.0301 19.1883 82.6947C18.672 83.7345 18.2107 84.8008 17.8064 85.8892C17.6189 86.8317 17.6423 87.8042 17.8749 88.7365C18.1075 89.6689 18.5434 90.5379 19.1514 91.2811C26.4108 101.622 22.6153 94.9742 17.7511 97.8178C14.9506 99.4613 14.3425 99.2951 13.1081 95.9713C6.06976 77.506 11.2656 62.6229 30.5196 47.6845C32.6324 45.8522 34.9012 44.2087 37.2999 42.7727C38.546 42.1195 39.7409 41.3726 40.8744 40.5384C42.7481 38.8735 44.7368 37.3432 46.8256 35.959C47.694 35.3412 48.6592 34.8732 49.6814 34.5741C49.9947 34.5741 51.7266 34.1679 51.9846 34.1494C52.7215 34.1494 54.7114 35.3127 50.9159 36.4945C50.2049 36.6417 49.5298 36.9278 48.9291 37.3365C48.3284 37.7452 47.814 38.2685 47.4152 38.8765C48.3567 38.2381 49.415 37.7925 50.529 37.5655C52.9606 36.869 55.4808 36.533 58.0095 36.5684C58.2481 36.6466 58.4582 36.7938 58.6135 36.9915C58.7687 37.1892 58.862 37.4286 58.8817 37.6794C58.9014 37.9302 58.8466 38.1812 58.7242 38.4008C58.6017 38.6204 58.4172 38.7988 58.1937 38.9135L57.77 39.0427L57.3093 39.2643C58.7096 39.4305 62.063 39.2643 61.5655 41.1108C61.068 42.9574 58.8202 42.108 57.1988 42.2742C50.8606 42.9574 52.482 43.7883 49.8288 44.6746C49.2024 44.8778 48.9997 44.6746 48.9629 45.3394C50.7301 44.8824 52.5282 44.5553 54.3429 44.3607C56.3528 44.168 58.3764 44.168 60.3863 44.3607C60.6242 44.4385 60.8374 44.578 61.0041 44.765C61.1709 44.9519 61.2853 45.1798 61.3358 45.4255C61.3864 45.6711 61.3712 45.9257 61.2918 46.1636C61.2124 46.4014 61.0716 46.614 60.8838 46.7797C60.0856 47.2933 59.1375 47.5211 58.1937 47.426C54.4785 47.5565 50.8241 48.4094 47.4336 49.9373C45.2963 51.0821 41.7035 55.5692 47.102 55.8646C51.1002 56.0493 54.6562 58.3759 52.8137 60.8318Z" fill="#CCE0FF"/>
<path fill-rule="evenodd" clip-rule="evenodd" d="M34.4976 82.4916C34.1402 83.0461 33.925 83.6804 33.8711 84.3382C33.8711 86.1847 33.8711 89.3053 33.8711 91.5581C33.6517 91.7569 33.4107 91.9304 33.1526 92.0751C32.7536 92.1775 32.3354 92.1775 31.9365 92.0751L28.8596 88.5483C29.0238 88.0439 29.2464 87.5605 29.5228 87.108C30.2783 86.9972 31.9365 87.3111 32.9499 86.3694L33.4842 85.52C33.6 85.2656 33.6507 84.9864 33.6316 84.7075C33.6688 84.4318 33.6688 84.1523 33.6316 83.8765C33.3736 82.9533 31.4206 82.7871 30.6099 82.6209C28.3621 82.1777 26.9249 81.5684 25.3773 83.4888C24.9973 84.0007 24.7104 84.5758 24.5297 85.1876C23.6637 87.6804 21.3422 89.5823 24.2902 93.7924C25.4694 95.4543 26.8881 96.95 28.0857 98.5934C28.7838 99.8252 29.3993 101.102 29.9282 102.416C30.5151 103.326 30.9856 104.306 31.3285 105.333C31.4748 105.749 31.5556 106.185 31.568 106.626C30.6776 106.261 29.8408 105.776 29.0807 105.186C27.0171 104.041 24.3086 103.044 22.0424 104.373C21.4343 104.742 20.9 104.945 20.9184 105.887C20.9184 107.734 22.7609 108.639 24.6034 108.639C27.0908 108.639 29.6518 114.326 31.4575 116.025C32.4367 116.748 33.3605 117.545 34.2212 118.407C34.986 119.451 35.5371 120.638 35.8426 121.897C36.1249 123.493 36.2361 125.115 36.1742 126.735C36.1742 128.415 36.3216 129.984 36.3216 131.72C36.2295 139.162 39.1222 175.723 49.8823 155.411C53.1104 153.416 56.1893 151.188 59.0948 148.745C55.981 138.183 54.4886 127.602 51.7248 118.794C52.1553 117.138 52.274 115.416 52.0749 113.716L51.6695 111.298C51.3485 109.686 51.1148 108.059 50.9694 106.423C50.8589 105.315 50.8404 103.579 50.6193 102.527C50.6193 102.176 50.4167 101.751 50.3614 101.363C50.2324 100.514 50.085 99.6459 50.8589 99.2212C51.5787 98.8989 52.3553 98.7232 53.1435 98.7042C52.9568 99.674 52.6855 100.626 52.3328 101.548C52.2145 102.046 52.2518 102.568 52.4397 103.043C52.6275 103.519 52.9569 103.925 53.3831 104.207C54.9123 105.001 55.6862 103.08 56.331 101.936C56.7789 101.297 57.0818 100.567 57.2187 99.7984C57.3556 99.0297 57.323 98.2403 57.1233 97.4855C57.0025 97.0562 56.7886 96.659 56.4969 96.3222C55.8099 95.4652 55.078 94.6454 54.3043 93.8663C54.1238 93.7429 53.9624 93.5936 53.8253 93.4231L53.6963 93.0169V92.7953C53.6771 92.5002 53.6771 92.2041 53.6963 91.909C53.7545 91.3462 53.659 90.7781 53.4199 90.2655C52.6846 89.07 51.6832 88.0612 50.4942 87.318C49.3051 86.5748 47.9606 86.1174 46.5659 85.9816C45.1656 85.9816 44.5944 87.108 43.8758 87.9758C43.5442 88.3452 41.37 92.3891 40.025 90.0994L39.7487 89.6931C39.7487 89.5639 39.7487 89.6931 39.7487 89.5639C39.703 87.9471 39.94 86.3348 40.4488 84.7998C40.9831 85.5384 41.3885 86.1847 42.2913 86.4063C44.4102 86.9233 46.4553 85.1507 44.9813 83.0271C43.5073 80.9036 44.447 78.5401 40.1909 78.9278C39.7129 78.9875 39.2538 79.1514 38.8458 79.4079L38.072 79.7034C37.8516 79.8067 37.6237 79.8931 37.3903 79.9619C36.1668 80.4506 35.1464 81.343 34.4976 82.4916Z" fill="#CCE0FF"/>
</g>
<defs>
<clipPath id="clip0_1_1728">
<rect width="180" height="164" rx="20" fill="white"/>
</clipPath>
</defs>
</svg>
