<svg width="150" height="150" viewBox="0 0 150 150" fill="none" xmlns="http://www.w3.org/2000/svg">
<path fill-rule="evenodd" clip-rule="evenodd" d="M66.0122 8.36196C75.4535 6.56344 85.161 5.43162 94.7644 5.81502C134.86 7.41576 145 53.8214 145 85.5086C145 120.691 107 146 67.0378 143C28.5 137 5 109.555 5 74.373C5 43.4472 32.0438 14.8328 66.0122 8.36196Z" fill="#FFCF70"/>
<path fill-rule="evenodd" clip-rule="evenodd" d="M37.1049 30.3156C32.3474 30.3156 1.93289 30.4859 1.14705 33.4025C0.743502 34.9353 1.14705 117.218 1.74174 125.797C1.91166 128.842 3.71698 127.522 9.28164 127.522C16.6516 127.522 64.8008 123.541 65.268 127.096C65.8415 131.524 70.9601 131.354 75.8876 130.843C80.9213 131.269 86.5072 131.758 87.0806 127.16C87.5479 123.605 133.807 127.522 141.177 127.522C146.72 127.522 148.547 128.842 148.717 125.797C149.205 117.282 149.163 33.8921 148.717 32.338C147.931 29.4214 119.959 30.3581 115.18 30.3581C114.755 33.4238 95.4276 34.2115 94.217 34.3392C80.0292 35.7017 76.9708 35.7443 76.1637 37.1068C75.4203 35.6805 72.4681 35.6804 58.0892 34.2753C56.8573 34.1689 37.5297 33.3812 37.1049 30.3156Z" fill="#6B66A6"/>
<path fill-rule="evenodd" clip-rule="evenodd" d="M12.0876 34.616C19.9886 32.2955 45.603 29.5918 55.458 29.5918C67.3944 29.5918 74.021 30.6137 77.5467 33.6367C81.0724 30.6137 87.699 29.5918 99.6354 29.5918C109.49 29.5918 135.126 32.2955 143.006 34.616C143.006 56.3097 144.705 77.5563 144.386 98.7603C144.386 101.996 143.282 125.031 143.197 124.946C134.51 116.792 85.2141 119.624 77.6741 125.159C77.6741 125.159 77.6741 125.265 77.6741 125.329C77.6668 125.273 77.6668 125.215 77.6741 125.159C70.1555 119.624 20.8382 116.792 12.1514 124.946C12.1514 124.946 11.0257 101.996 10.962 98.7603C10.3885 77.535 12.0876 56.2458 12.0876 34.616Z" fill="#95B1DB"/>
<path fill-rule="evenodd" clip-rule="evenodd" d="M7.43582 29.6346C15.3155 27.314 40.93 24.6104 50.8062 24.6104C62.7426 24.6104 69.3479 25.6322 72.8736 28.6553C76.3993 25.6322 83.026 24.6104 94.9624 24.6104C104.817 24.6104 130.453 27.314 138.333 29.6346C138.333 51.3282 140.032 72.5748 139.713 93.7788C139.713 97.0148 138.609 120.05 138.524 119.964C129.837 111.811 80.541 114.642 73.0011 120.177C73.0011 120.177 73.0011 120.284 73.0011 120.348C73.0011 120.348 73.0011 120.22 73.0011 120.177C65.4824 114.642 16.1864 111.811 7.4783 119.964C7.4783 119.964 6.35262 97.0148 6.28891 93.7788C5.71545 72.5748 7.43582 51.3282 7.43582 29.6346Z" fill="white"/>
<path fill-rule="evenodd" clip-rule="evenodd" d="M102.926 24.9298C114.777 25.7388 132.087 27.8038 138.331 29.6347C138.331 51.3284 140.031 72.5749 139.712 93.779C139.712 97.0149 138.608 120.05 138.523 119.965C133.935 115.707 118.027 114.408 102.926 115.025V24.9298Z" fill="#CDE1FF"/>
<path fill-rule="evenodd" clip-rule="evenodd" d="M31.2891 25.9303C38.9352 25.1426 46.4113 24.6104 50.8078 24.6104C62.7442 24.6104 69.3496 25.6322 72.8753 28.6553C73.0428 28.5018 73.2202 28.3595 73.4063 28.2295V119.901L73.0028 120.177C73.0028 120.177 73.0028 120.284 73.0028 120.348C73.0028 120.348 73.0028 120.22 73.0028 120.177C68.4363 116.814 48.4715 114.451 31.5439 114.94L31.2891 25.9303Z" fill="#CDE1FF"/>
<path fill-rule="evenodd" clip-rule="evenodd" d="M14.3812 68.5303C32.4133 64.7834 45.7302 63.5274 63.3587 69.467C63.7171 69.6068 64.0445 69.816 64.3223 70.0826C64.6001 70.3493 64.8227 70.6681 64.9775 71.021C65.1323 71.3739 65.2163 71.7538 65.2246 72.1392C65.2329 72.5246 65.1654 72.9079 65.026 73.2672C64.8865 73.6264 64.6778 73.9547 64.4118 74.2331C64.1458 74.5115 63.8277 74.7346 63.4757 74.8898C63.1236 75.045 62.7445 75.1292 62.3601 75.1375C61.9756 75.1458 61.5932 75.0782 61.2348 74.9384C44.7957 69.4032 32.2221 70.6805 15.4432 74.2571C15.068 74.3312 14.682 74.3305 14.3071 74.255C13.9323 74.1796 13.5759 74.0309 13.2584 73.8174C12.9408 73.6039 12.6684 73.3298 12.4565 73.0107C12.2447 72.6917 12.0976 72.3339 12.0237 71.9579C11.9498 71.5819 11.9505 71.1949 12.0257 70.8192C12.101 70.4434 12.2494 70.0862 12.4624 69.7679C12.6754 69.4496 12.9488 69.1765 13.2671 68.9642C13.5854 68.7518 13.9424 68.6044 14.3175 68.5303H14.3812Z" fill="#9690D4"/>
<path fill-rule="evenodd" clip-rule="evenodd" d="M14.3791 81.9631C32.4111 78.1949 45.7281 76.9389 63.3565 82.8786C64.0804 83.1609 64.6627 83.7199 64.9754 84.4325C65.288 85.1452 65.3055 85.9532 65.0238 86.6787C64.7422 87.4043 64.1845 87.9879 63.4735 88.3013C62.7625 88.6147 61.9565 88.6322 61.2326 88.3499C44.7935 82.8147 32.22 84.1985 15.441 87.6899C14.6809 87.8337 13.8949 87.6705 13.2543 87.2358C12.6138 86.8011 12.1707 86.1302 12.0215 85.3694C11.9482 84.9901 11.9513 84.6 12.0307 84.2219C12.1102 83.8439 12.2643 83.4856 12.484 83.1682C12.7037 82.8507 12.9845 82.5805 13.31 82.3736C13.6355 82.1666 13.999 82.0271 14.3791 81.9631Z" fill="#9690D4"/>
<path fill-rule="evenodd" clip-rule="evenodd" d="M14.38 95.205C32.412 91.4581 45.729 90.2021 63.3575 96.1417C64.0813 96.424 64.6636 96.983 64.9763 97.6957C65.289 98.4083 65.3064 99.2163 65.0248 99.9419C64.7431 100.667 64.1855 101.251 63.4745 101.564C62.7635 101.878 61.9574 101.895 61.2336 101.613C44.9644 96.0566 32.2209 97.4404 15.5057 100.953C15.1305 101.027 14.7445 101.026 14.3696 100.951C13.9948 100.876 13.6384 100.727 13.3209 100.513C13.0033 100.3 12.7309 100.026 12.519 99.7067C12.3072 99.3877 12.1601 99.0299 12.0862 98.6539C12.0123 98.2779 12.013 97.8909 12.0882 97.5152C12.1635 97.1394 12.3119 96.7822 12.5249 96.4639C12.7379 96.1456 13.0113 95.8725 13.3296 95.6602C13.6479 95.4478 14.0049 95.3004 14.38 95.2263V95.205Z" fill="#9690D4"/>
<path fill-rule="evenodd" clip-rule="evenodd" d="M86.3405 68.5303C104.373 64.7834 117.69 63.5274 135.318 69.467C135.676 69.6068 136.004 69.816 136.282 70.0826C136.559 70.3493 136.782 70.6681 136.937 71.021C137.092 71.3739 137.176 71.7538 137.184 72.1392C137.192 72.5246 137.125 72.9079 136.985 73.2672C136.846 73.6264 136.637 73.9547 136.371 74.2331C136.105 74.5115 135.787 74.7346 135.435 74.8898C135.083 75.045 134.704 75.1292 134.319 75.1375C133.935 75.1458 133.552 75.0782 133.194 74.9384C116.776 69.4032 104.181 70.6805 87.4025 74.2571C87.0273 74.3314 86.6412 74.331 86.2663 74.2556C85.8913 74.1803 85.5348 74.0315 85.2172 73.818C84.8997 73.6044 84.6272 73.3303 84.4154 73.0111C84.2036 72.692 84.0567 72.334 83.983 71.9579C83.9124 71.5776 83.9175 71.1871 83.9979 70.8088C84.0783 70.4305 84.2325 70.0718 84.4515 69.7533C84.6706 69.4348 84.9502 69.1629 85.2744 68.953C85.5985 68.7431 85.9608 68.5995 86.3405 68.5303Z" fill="#9690D4"/>
<path fill-rule="evenodd" clip-rule="evenodd" d="M86.3402 81.9631C104.372 78.1949 117.689 76.9389 135.318 82.8786C136.042 83.1609 136.624 83.7199 136.937 84.4325C137.249 85.1452 137.267 85.9532 136.985 86.6787C136.703 87.4043 136.146 87.9879 135.435 88.3013C134.724 88.6147 133.918 88.6322 133.194 88.3499C116.776 82.8147 104.181 84.1985 87.4022 87.6899C86.6421 87.8337 85.8561 87.6705 85.2155 87.2358C84.575 86.8011 84.1318 86.1302 83.9827 85.3694C83.9123 84.9904 83.9176 84.6012 83.9983 84.2242C84.0789 83.8473 84.2334 83.4901 84.4526 83.1733C84.6718 82.8565 84.9515 82.5865 85.2755 82.3788C85.5996 82.1711 85.9614 82.0298 86.3402 81.9631Z" fill="#9690D4"/>
<path fill-rule="evenodd" clip-rule="evenodd" d="M86.3409 95.205C104.373 91.4581 117.69 90.2021 135.318 96.1417C135.677 96.2765 136.006 96.4811 136.286 96.7437C136.566 97.0063 136.791 97.3217 136.949 97.6718C137.107 98.022 137.195 98.4 137.206 98.7841C137.218 99.1682 137.154 99.5508 137.018 99.91C136.737 100.63 136.186 101.211 135.484 101.529C134.781 101.847 133.983 101.877 133.258 101.613C116.84 96.0566 104.246 97.3552 87.4666 100.932C87.0915 101.006 86.7054 101.005 86.3306 100.93C85.9557 100.854 85.5993 100.706 85.2818 100.492C84.9643 100.279 84.6918 100.004 84.4799 99.6854C84.2681 99.3664 84.121 99.0086 84.0471 98.6326C83.9732 98.2566 83.9739 97.8696 84.0492 97.4939C84.1244 97.1181 84.2728 96.7609 84.4858 96.4426C84.6988 96.1243 84.9723 95.8512 85.2906 95.6389C85.6089 95.4265 85.9658 95.2791 86.3409 95.205Z" fill="#9690D4"/>
<path fill-rule="evenodd" clip-rule="evenodd" d="M24.4467 38.3205C25.0238 38.664 25.5058 39.1471 25.8485 39.7256C29.353 46.1123 15.5475 45.942 19.944 38.8102C20.1676 38.4741 20.4565 38.1866 20.7935 37.9651C21.1305 37.7436 21.5086 37.5926 21.9052 37.521C22.3019 37.4494 22.7088 37.4588 23.1017 37.5487C23.4946 37.6385 23.8654 37.8069 24.1918 38.0438L24.4467 38.3205Z" fill="#9690D4"/>
<path fill-rule="evenodd" clip-rule="evenodd" d="M32.2215 38.0226C32.6143 37.5237 33.1559 37.1637 33.7672 36.9952C34.3786 36.8267 35.0277 36.8585 35.6197 37.0859C36.5132 37.3944 37.2668 38.0138 37.7437 38.8316C41.1632 45.2184 27.5064 46.4318 31.5843 38.7251C31.7518 38.4537 31.9678 38.2156 32.2215 38.0226Z" fill="#9690D4"/>
<path fill-rule="evenodd" clip-rule="evenodd" d="M21.6011 47.347C24.4896 50.2424 25.6153 51.7965 29.5445 51.4133C30.4748 50.5491 31.3475 49.6245 32.157 48.6456C32.7203 48.081 33.4842 47.7638 34.2809 47.7638C35.0775 47.7638 35.8415 48.081 36.4048 48.6456C36.9681 49.2103 37.2845 49.9761 37.2845 50.7746C37.2845 51.5731 36.9681 52.3388 36.4048 52.9035L35.7676 53.6273C29.3959 60.8017 23.3639 57.5445 17.2046 51.4984C16.6554 50.914 16.3603 50.1349 16.3842 49.3324C16.4081 48.5299 16.749 47.7698 17.332 47.2193C17.915 46.6688 18.6924 46.373 19.493 46.3969C20.2936 46.4209 21.0519 46.7626 21.6011 47.347Z" fill="#9690D4"/>
</svg>
