<svg width="180" height="164" viewBox="0 0 180 164" fill="none" xmlns="http://www.w3.org/2000/svg">
<g clip-path="url(#clip0_1_1768)">
<path fill-rule="evenodd" clip-rule="evenodd" d="M108.124 178C140.549 178 167.001 173.835 167.001 168.74C167.001 163.644 140.549 159.479 108.124 159.479C75.7 159.479 49.2305 163.644 49.2305 168.74C49.2305 173.835 75.6828 178 108.124 178Z" fill="#EAF2FF"/>
<path fill-rule="evenodd" clip-rule="evenodd" d="M50.0203 147.051C44.1172 124.295 46.6987 87.5097 66.0776 76.9579C75.5261 71.7939 93.8551 69.6594 103.785 73.7218C104.371 73.9628 150.942 78.8858 136.933 61.4487C128.327 50.6559 95.9548 57.0765 108.243 38.486C110.618 34.9057 144.385 12.666 119.395 2.85441C100.102 -4.71946 86.6956 6.88234 73.5985 20.0678C62.9625 30.74 60.467 44.5107 39.6597 43.805C28.1288 43.4779 12.846 22.8563 13.9991 38.5377C15.1522 54.219 38.7303 66.6471 30.5038 91.5376C24.5318 109.594 26.0463 154.487 49.2287 159.479C51.7242 160.012 52.5675 156.914 50.0203 147.051ZM45.7005 61.8101C45.705 61.0421 45.9387 60.2928 46.3717 59.6585C49.1082 55.1486 59.6065 51.2067 63.4788 50.1739C82.8405 44.9927 89.7246 56.8699 80.2073 62.8257C75.8703 65.5454 77.1955 54.6666 69.1582 57.2658C67.0242 57.9543 45.7694 70.2619 45.7005 61.8101ZM92.1685 43.805C75.2851 53.2379 94.7328 24.285 104.715 25.8342C116.487 27.6588 101.359 38.6582 92.1685 43.805ZM81.7562 22.9424C87.1775 18.794 92.8225 21.2211 86.7816 29.8277C81.6185 36.9368 76.7652 41.1197 68.6075 40.8615C60.4498 40.6033 79.7254 24.4916 81.7562 22.9424Z" fill="#CDE1FF"/>
<path fill-rule="evenodd" clip-rule="evenodd" d="M124.009 158.807C122.735 168.189 119.844 165.039 134.335 165.693C137.777 165.848 133.733 159.53 144.162 164.901C145.642 165.658 161.82 166.45 162.749 165.142C163.121 163.704 163.295 162.221 163.265 160.735C159.6 159.978 142.131 156.553 141.735 155.571C140.766 154.156 139.684 152.82 138.5 151.578C132.734 151.974 130.841 155.554 126.934 156.363C125.759 156.904 124.75 157.747 124.009 158.807Z" fill="#F9C45A"/>
<path fill-rule="evenodd" clip-rule="evenodd" d="M114.337 161.802C113.063 171.184 110.172 168.034 124.663 168.688C128.191 168.843 124.061 162.543 134.49 167.896C135.97 168.653 152.148 169.445 153.077 168.137C153.458 166.7 153.632 165.216 153.594 163.73C149.928 162.973 132.459 159.547 132.063 158.566C131.094 157.15 130.012 155.815 128.828 154.573C123.062 154.969 121.169 158.549 117.263 159.358C116.091 159.903 115.082 160.746 114.337 161.802Z" fill="#FFCE70"/>
<path fill-rule="evenodd" clip-rule="evenodd" d="M58.97 138.117C57.5931 147.292 57.8513 152.783 60.037 156.742C64.8215 165.469 78.6242 167.363 87.5736 166.726C95.3182 166.14 102.168 165.108 105.834 158.016C108.106 153.592 110.842 147.429 111.393 147.963C113.114 149.684 113.596 160.012 114.06 163.025C114.301 164.522 129.773 155.847 130.186 156.346C130.186 156.346 139.859 159.789 139.859 150.011C139.859 141.026 136.141 94.2747 127.811 90.8664C118.466 87.0278 101.772 87.1139 93.6316 94.7222C87.6596 100.317 70.6386 134.399 65.028 135.707C64.2536 135.897 59.2281 136.396 58.97 138.117Z" fill="#F0E5F6"/>
<path fill-rule="evenodd" clip-rule="evenodd" d="M89.8438 166.519C96.6074 165.865 102.459 164.367 105.746 158.084C108.018 153.661 110.754 147.498 111.305 148.032L111.443 148.187C110.668 141.56 109.309 134.571 105.97 132.058C103.578 130.336 100.91 143.574 100.652 144.469C97.5884 155.468 96.6074 162.611 89.8438 166.519Z" fill="#D8C0E5"/>
<path fill-rule="evenodd" clip-rule="evenodd" d="M129.637 156.363C129.895 156.363 130.067 156.243 130.101 156.363C130.136 156.484 139.774 159.806 139.774 150.029C139.774 141.043 136.056 94.2918 127.726 90.8836C124.965 89.7899 122.072 89.0664 119.121 88.7319C126.349 103.38 129.637 146.087 129.637 155.365C129.671 155.726 129.654 156.088 129.637 156.363Z" fill="#D8C0E5"/>
<path fill-rule="evenodd" clip-rule="evenodd" d="M121.854 113.33C122.732 112.228 127.706 109.078 128.463 111.608C129.22 114.139 130.373 119.974 128.136 122.023C126.415 123.606 121.252 124.622 121.441 122.195C121.544 120.611 119.737 116.015 121.854 113.33Z" fill="#FCD2D3"/>
<path fill-rule="evenodd" clip-rule="evenodd" d="M135.727 110.335C135.142 108.613 135.555 103.088 137.294 109.147C138.257 112.59 140.736 117.254 139.015 120.663C138.068 122.522 134.11 121.265 132.733 120.663C131.012 120.043 128.981 112.056 131.976 111.471C132.406 111.471 135.9 110.799 135.727 110.335Z" fill="#FCD2D3"/>
<path fill-rule="evenodd" clip-rule="evenodd" d="M60.0177 145.777C67.4182 146.414 72.3059 138.272 75.3521 132.109C75.7824 131.231 85.3341 113.502 85.3858 113.57C87.6747 115.808 88.0706 126.188 95.712 128.701C102.837 131.042 115.401 124.897 123.438 123.916C125.038 123.709 126.226 110.868 121.183 112.52C115.693 114.242 108.964 115.516 104.954 113.157C102.854 111.935 100.29 102.64 100.118 99.8687C99.6015 91.7267 108.534 89.0243 115.951 91.6063C118.206 92.3809 118.567 93.0866 119.239 93.2071C119.91 93.3276 120.547 93.0522 122.681 92.1743C126.002 90.7972 130.425 93.603 132.026 96.8047C133.007 98.7842 134.779 93.0177 134.779 90.7112C134.779 81.261 130.305 73.1708 120.168 72.6716C114.902 72.4134 110.805 65.7862 108.121 65.4764C100.049 64.4264 91.4438 64.9256 85.0243 68.5748C64.1998 80.6241 50.8446 144.985 60.0177 145.777Z" fill="#7872B8"/>
<path fill-rule="evenodd" clip-rule="evenodd" d="M116.226 52.7903C115.572 51.1894 117.087 49.6746 116.45 48.9C112.113 43.65 106.829 56.1469 112.285 58.3846C113.507 58.8838 110.788 64.6675 109.256 65.7863C106.279 67.9724 106.657 66.0445 107.828 71.1225C108.464 73.9283 109.721 83.1718 113.817 81.571C117.07 80.2972 116.777 77.4742 119.841 80.3316C126.174 86.2358 146.344 64.6503 141.767 50.9312C137.353 50.1159 132.892 49.5755 128.411 49.3132C122.663 49.1582 125.193 48.9173 120.168 50.3115C118.809 51.0646 117.493 51.8921 116.226 52.7903Z" fill="#FCD2D3"/>
<path fill-rule="evenodd" clip-rule="evenodd" d="M115.543 48.7966C117.436 52.7729 113.822 55.9229 116.696 56.6115C118.417 57.0418 121.755 48.5901 125.301 50.122C128.037 51.3098 128.054 56.5254 134.887 60.45C136.728 61.5001 141.048 62.6361 142.494 60.7082C144.611 57.8853 146.59 54.5287 145.936 50.845C144.559 42.858 136.901 37.5219 128.571 37.0743C124.148 36.8161 114.217 43.822 115.543 48.7966Z" fill="#7872B8"/>
<path fill-rule="evenodd" clip-rule="evenodd" d="M121.974 63.8584C123.696 65.3043 123.369 65.115 125.623 65.115C125.851 65.115 126.07 65.2057 126.232 65.3671C126.393 65.5285 126.484 65.7474 126.484 65.9757C126.484 66.2039 126.393 66.4228 126.232 66.5842C126.07 66.7456 125.851 66.8363 125.623 66.8363C122.869 66.8363 122.921 66.8363 120.821 65.115C120.743 65.0393 120.681 64.9489 120.638 64.8491C120.595 64.7493 120.572 64.642 120.57 64.5333C120.569 64.4246 120.589 64.3167 120.629 64.2156C120.669 64.1146 120.728 64.0225 120.804 63.9445C120.88 63.8665 120.97 63.8042 121.07 63.7611C121.17 63.718 121.277 63.695 121.386 63.6934C121.494 63.6919 121.602 63.7117 121.703 63.7518C121.804 63.7919 121.897 63.8515 121.974 63.9273V63.8584Z" fill="#E7B6B7"/>
<path fill-rule="evenodd" clip-rule="evenodd" d="M132.13 68.5749C133.851 70.0208 133.524 69.8487 135.761 69.8315C135.989 69.8315 136.208 69.9221 136.37 70.0835C136.531 70.2449 136.622 70.4639 136.622 70.6921C136.622 70.9204 136.531 71.1393 136.37 71.3007C136.208 71.4621 135.989 71.5528 135.761 71.5528C133.025 71.5528 133.059 71.5528 130.959 69.8315C130.881 69.7546 130.819 69.6631 130.777 69.5623C130.734 69.4614 130.712 69.3532 130.711 69.2437C130.71 69.1342 130.731 69.0256 130.772 68.9242C130.813 68.8227 130.874 68.7303 130.951 68.6523C131.028 68.5743 131.119 68.5123 131.22 68.4696C131.321 68.427 131.429 68.4046 131.538 68.4038C131.648 68.403 131.757 68.4238 131.858 68.465C131.959 68.5061 132.052 68.5669 132.13 68.6437V68.5749Z" fill="#E7B6B7"/>
</g>
<defs>
<clipPath id="clip0_1_1768">
<rect width="180" height="164" rx="20" fill="white"/>
</clipPath>
</defs>
</svg>
