<svg width="180" height="164" viewBox="0 0 180 164" fill="none" xmlns="http://www.w3.org/2000/svg">
<g clip-path="url(#clip0_1_1748)">
<path fill-rule="evenodd" clip-rule="evenodd" d="M65.3845 147.591C76.9415 160.157 110.769 191.159 118.935 171.825C119.853 169.792 120.557 167.668 121.034 165.488C122.111 159.852 126.292 151.127 133.363 153.641C158.002 162.437 155.544 122.585 157.608 122.531C166.419 122.298 170.044 116.715 166.832 113.376C163.619 110.037 154.144 101.097 156.298 97.0939C161.286 87.7234 148.025 68.1744 149.801 66.3972C151.578 64.62 148.563 65.3022 155.185 60.1142C157.787 58.0857 152.116 47.0636 142.372 49.8999C139.052 50.8693 131.873 48.7331 123.672 47.4047C112.707 45.6096 81.5715 47.4047 76.1878 56.9189C71.3245 65.4099 62.1183 63.7225 58.583 79.7709C55.0477 95.8194 53.5403 105.046 64.9538 117.289C68.0943 120.664 75.1828 136.748 67.2688 136.73C61.8312 136.712 61.1493 143.031 65.3845 147.591Z" fill="#CCE0FF"/>
<path fill-rule="evenodd" clip-rule="evenodd" d="M137.671 65.5355L136.522 65.1764C136.152 64.3321 135.72 63.5161 135.23 62.735C130.995 55.9674 119.294 55.7161 112.493 57.3497C104.74 53.7594 97.1312 52.8798 91.1015 59.055C81.1416 59.7013 75.3989 62.2683 69.9434 71.4773C67.0362 76.4319 68.8308 78.227 67.0362 80.4709C64.7894 83.0467 63.1581 86.1002 62.2657 89.4001C61.3734 92.7 61.2435 96.1597 61.8858 99.5173C62.7292 105.693 66.0851 108.17 71.1279 109.193C71.9713 114.812 74.6093 120.628 77.9831 122.369C78.9585 122.852 80.008 123.168 81.0877 123.303C83.7437 129.047 90.7605 128.688 98.7463 126.085C104.435 124.29 107.163 121.31 108.67 116.661C115.508 115.296 123.135 109.049 125.27 103.574C125.906 101.927 126.369 100.219 126.652 98.4761C132.294 98.6252 137.872 97.255 142.803 94.5089C149.299 90.1108 150.394 74.7624 144.598 68.9103C141.888 66.1279 139.806 65.32 137.635 65.4636L137.671 65.5355ZM114.79 92.7496L113.695 91.5828C114.101 91.8903 114.485 92.2262 114.844 92.5881L114.79 92.7496Z" fill="#7872B8"/>
<path fill-rule="evenodd" clip-rule="evenodd" d="M128.556 86.9516C132.953 88.3159 140.903 86.449 141.584 81.8175C142.805 73.5958 139 68.2284 130.422 70.7057C121.844 73.183 119.816 80.184 119.26 87.8851C119.26 88.3698 119.116 89.4468 119.063 89.9495C118.953 90.2613 118.972 90.6039 119.115 90.9018C119.258 91.1998 119.513 91.4287 119.825 91.5382C120.137 91.6477 120.479 91.6288 120.777 91.4857C121.075 91.3427 121.304 91.0871 121.413 90.7752C121.571 89.8181 121.679 88.8534 121.736 87.8851C122.185 81.3688 123.98 75.1576 131.122 73.0932C137.888 71.1365 140.095 74.8883 139.144 81.3508C138.749 84.1153 132.647 85.6412 129.417 84.6359C129.265 84.5756 129.103 84.5465 128.94 84.5501C128.777 84.5538 128.616 84.5901 128.467 84.6571C128.318 84.7241 128.184 84.8202 128.073 84.9399C127.962 85.0596 127.876 85.2004 127.82 85.3539C127.763 85.5071 127.736 85.6701 127.742 85.8335C127.748 85.997 127.787 86.1576 127.855 86.3061C127.924 86.4546 128.021 86.5882 128.141 86.6989C128.261 86.8097 128.402 86.8956 128.556 86.9516Z" fill="#CCE0FF"/>
<path fill-rule="evenodd" clip-rule="evenodd" d="M128.625 96.2857C125.233 91.2773 124.928 89.6797 119.114 89.3206C117.463 87.6332 117.104 82.9479 110.356 82.1401C109.058 81.8525 107.703 81.9702 106.474 82.4774C105.245 82.9846 104.201 83.8569 103.483 84.9764C99.248 82.6248 94.9231 80.6502 89.8983 83.4685C86.9372 85.138 86.5065 85.6945 86.0938 88.8539C86.1212 89.1795 86.2762 89.4811 86.5249 89.6929C86.7737 89.9047 87.096 90.0097 87.4217 89.9848C87.7343 89.9621 88.0267 89.8217 88.2399 89.5918C88.453 89.3619 88.5711 89.0597 88.5703 88.7462C88.6779 88.459 88.9651 87.4358 89.0727 87.0588C90.1077 86.3068 91.2208 85.6688 92.3927 85.1559C100.145 82.8761 102.694 90.5413 105.565 86.4125C108.077 82.8223 114.233 85.2816 115.991 88.7103C119.921 96.3935 118.719 86.1792 126.579 97.6859C126.673 97.8287 126.795 97.9508 126.937 98.0449C127.079 98.1391 127.239 98.2032 127.407 98.2334C127.575 98.2637 127.747 98.2594 127.914 98.2208C128.08 98.1822 128.236 98.1102 128.374 98.0091C128.505 97.9133 128.615 97.7925 128.699 97.6536C128.782 97.5147 128.837 97.3605 128.861 97.2001C128.884 97.0397 128.875 96.8762 128.835 96.7192C128.794 96.5622 128.723 96.4149 128.625 96.2857Z" fill="#CCE0FF"/>
<path fill-rule="evenodd" clip-rule="evenodd" d="M128.304 72.1594C126.187 63.1838 116.299 62.1785 108.905 66.4689C105.998 62.4478 103.342 60.1859 97.1145 61.8554C91.4796 63.3812 90.1875 66.3791 90.1875 71.6568C90.1875 71.9853 90.318 72.3003 90.5502 72.5326C90.7824 72.7649 91.0973 72.8954 91.4258 72.8954C91.7542 72.8954 92.0691 72.7649 92.3013 72.5326C92.5336 72.3003 92.664 71.9853 92.664 71.6568C92.664 68.4076 92.664 66.4868 95.966 64.925C106.052 60.1859 106.446 71.208 109.551 68.9461C115.024 64.9789 124.195 65.5174 125.864 72.5364C125.881 72.7042 125.932 72.8668 126.014 73.014C126.097 73.1613 126.208 73.2902 126.342 73.3928C126.476 73.4955 126.629 73.5697 126.793 73.6109C126.956 73.6521 127.127 73.6595 127.293 73.6326C127.46 73.6056 127.619 73.5449 127.761 73.4542C127.903 73.3636 128.025 73.2447 128.12 73.1051C128.215 72.9655 128.28 72.808 128.312 72.6423C128.343 72.4766 128.341 72.3062 128.304 72.1415V72.1594ZM108.079 66.9894L107.864 67.1331C107.925 67.0711 107.999 67.0223 108.079 66.9894Z" fill="#CCE0FF"/>
<path fill-rule="evenodd" clip-rule="evenodd" d="M97.921 83.3611C100.972 76.1806 91.4246 67.9768 80.9084 72.4108C75.3452 74.7445 71.2716 78.1373 74.3223 84.0073C71.6484 86.341 71.1101 88.3336 71.1818 92.6419C71.1818 98.494 77.2475 102.21 83.2593 101.043C90.9042 99.5711 94.619 94.9397 96.3418 94.3293C100.559 98.9249 106.338 102.766 112.924 101.241C114.718 100.81 116.943 97.04 116.513 94.5627C116.421 94.2487 116.21 93.9829 115.925 93.822C115.64 93.6611 115.304 93.6177 114.987 93.701C114.669 93.793 114.401 94.0067 114.239 94.2958C114.078 94.5848 114.037 94.9259 114.126 95.2449C114.377 96.4835 113.103 97.9375 112.331 98.8351C101.259 100.361 99.5541 90.9365 96.0008 91.87C92.4475 92.8035 91.3887 96.9323 82.9004 98.6018C78.4499 99.4634 73.9275 96.8964 73.8019 92.5342C73.6942 82.2661 79.3113 88.2259 76.2066 82.1225C73.4071 76.6294 84.6591 73.5058 88.4815 73.5238C91.9451 73.5238 97.4544 78.5501 95.9111 82.1045C95.7486 82.3929 95.7064 82.7338 95.7938 83.0532C95.8812 83.3725 96.091 83.6444 96.3777 83.8099C96.6462 83.9309 96.9491 83.9522 97.232 83.87C97.5149 83.7877 97.7591 83.6073 97.921 83.3611Z" fill="#CCE0FF"/>
<path fill-rule="evenodd" clip-rule="evenodd" d="M113.138 116.014C105.781 111.545 106.893 117.576 97.6511 115.673C94.2055 114.973 85.4839 108.744 93.0391 106.698C93.4518 106.59 94.385 106.357 94.5824 106.931C94.622 107.089 94.6927 107.237 94.7904 107.367C94.888 107.497 95.0107 107.606 95.1511 107.688C95.2915 107.77 95.4469 107.823 95.6081 107.844C95.7693 107.865 95.9331 107.854 96.0898 107.811C96.2479 107.771 96.3965 107.7 96.5272 107.603C96.6579 107.505 96.7681 107.383 96.8515 107.243C96.9348 107.103 96.9897 106.948 97.013 106.786C97.0363 106.625 97.0275 106.461 96.9871 106.303C96.2514 104.167 94.4747 103.754 92.4289 104.292C81.6615 107.039 90.8138 117.666 98.7099 118.24C108.724 118.976 106.193 114.65 111.774 118.007C111.911 118.097 112.064 118.158 112.225 118.189C112.385 118.219 112.55 118.218 112.71 118.184C112.87 118.151 113.022 118.087 113.157 117.994C113.292 117.902 113.408 117.785 113.497 117.648C113.587 117.511 113.649 117.358 113.679 117.198C113.709 117.037 113.708 116.872 113.675 116.712C113.641 116.552 113.577 116.4 113.485 116.265C113.393 116.13 113.275 116.014 113.138 115.925V116.014Z" fill="#CCE0FF"/>
<path fill-rule="evenodd" clip-rule="evenodd" d="M88.3198 81.2787C86.8124 71.3876 86.292 68.5692 86.7765 67.7075C87.5123 66.415 90.5451 69.5027 95.9827 59.7731C104.435 44.4606 110.106 37.1006 96.0903 22.3266C85.7356 11.3045 66.5337 11.0353 54.2768 18.485C43.94 24.7321 42.953 33.9591 43.2042 45.6633C43.5273 59.4679 61.15 73.5956 76.1706 71.7645C79.1675 71.2978 87.3687 81.3505 88.3198 81.2787Z" fill="#FFCE70"/>
<path fill-rule="evenodd" clip-rule="evenodd" d="M68.9756 24.9835C78.3791 25.2348 75.8488 27.1915 72.2596 37.0109C73.48 37.8187 83.4937 34.2643 82.1836 37.5853C80.8736 40.9063 73.0134 57.3318 71.2188 59.2885C71.2188 45.1608 74.5567 43.2759 73.4082 42.9348C71.9187 42.5219 62.8561 42.3424 62.7484 41.5885C62.5689 40.4216 66.3375 31.1049 66.3375 27.0479C65.4403 25.8093 67.6117 24.9476 68.9756 24.9835Z" fill="white"/>
<path fill-rule="evenodd" clip-rule="evenodd" d="M105.728 51.3001C89.5773 41.1396 91.2642 25.3963 100.345 14.7153C127.102 -16.4661 159.566 19.5262 141.62 43.4374C135.752 51.2283 124.141 53.6517 115.204 55.4827C115.204 55.4827 106.231 61.8913 104.293 62.0529C104.293 60.7425 106.716 51.9284 105.728 51.3001Z" fill="#F9A7B6"/>
<path fill-rule="evenodd" clip-rule="evenodd" d="M121.752 25.5216C117.301 14.5533 103.698 24.2111 112.528 34.0126C114.829 36.4726 117.477 38.5833 120.388 40.2776C121.375 40.9777 131.155 33.9407 132.483 31.4276C138.818 19.8669 121.267 17.7128 121.752 25.5216Z" fill="white"/>
<path fill-rule="evenodd" clip-rule="evenodd" d="M63.2861 80.1481C61.9222 79.8609 52.8955 76.2527 52.752 73.919C52.1956 64.5664 46.7222 59.7375 37.9647 57.2782C17.4168 51.5158 4.92657 81.1534 25.618 92.9654C33.3706 97.3993 42.1819 96.2325 50.4729 86.0721C51.5317 84.7975 60.1815 82.1766 62.1735 80.6867C62.4427 80.4174 63.4476 80.1661 63.2861 80.1481Z" fill="#7872B8"/>
<path fill-rule="evenodd" clip-rule="evenodd" d="M27.1247 80.9561C27.7708 80.3278 28.3451 79.502 28.9193 78.8558C27.8225 78.5002 26.8755 77.7891 26.2278 76.835C25.5801 75.8809 25.2687 74.7381 25.3428 73.5871C25.4169 72.4362 25.8722 71.3428 26.6369 70.4797C27.4016 69.6165 28.432 69.0329 29.5654 68.821C33.1545 67.8516 40.3328 68.3542 41.5352 72.7703C41.7154 73.8502 41.5732 74.9593 41.1263 75.9587C40.6794 76.9582 39.9477 77.8036 39.0228 78.389C37.0487 79.8969 34.644 79.6815 32.0957 79.4302C32.0957 79.4302 27.8426 80.6868 27.4837 80.8304H27.2863L27.1247 80.9561Z" fill="white"/>
<path fill-rule="evenodd" clip-rule="evenodd" d="M35.1289 81.7817C40.5126 80.7406 43.2224 78.1915 43.6172 72.3932C43.7608 70.3109 50.1136 78.748 43.8326 81.6561C44.1775 82.1636 44.4438 82.7204 44.6222 83.3076C44.6222 83.6307 45.4118 84.5283 43.6531 83.7923C43.043 83.523 41.3561 82.5896 40.8536 82.7691C39.0546 82.9803 37.2346 82.6225 35.6493 81.7458C35.6493 81.7458 35.3801 81.7458 35.2904 81.7458L35.1289 81.7817Z" fill="white"/>
</g>
<defs>
<clipPath id="clip0_1_1748">
<rect width="180" height="164" rx="20" fill="white"/>
</clipPath>
</defs>
</svg>
