<svg width="262" height="250" viewBox="0 0 262 250" fill="none" xmlns="http://www.w3.org/2000/svg">
<g clip-path="url(#clip0_1_5151)">
<path fill-rule="evenodd" clip-rule="evenodd" d="M11.7713 70.7727C66.7523 52.2698 127.559 48.1205 186.303 50.1528C202.164 50.7032 213.709 55.6994 210.094 70.7303C205.481 90.0377 162.363 97.1297 125.773 103.46C141.06 101.216 155.539 99.2256 166.169 98.5058C182.561 97.4684 248.726 90.4611 232.397 122.238C226.38 133.924 204.758 140.741 181.732 145.398C201.654 144.445 242.262 142.349 252.042 150.331C268.86 164.091 251.83 178.995 234.183 185.389C206.225 195.508 156.644 203.553 125.794 207.469C109.423 209.586 92.0955 215.048 75.9584 220.023C119.48 219.303 192.15 204.696 207.033 201.584C218.046 199.276 228.995 196.905 240.03 194.661C249.704 192.798 259.335 197.879 261.546 205.987C263.757 214.096 257.719 222.183 248.045 224.046C195.616 234.631 129.175 250.508 75.8308 249.916C7.30643 249.238 -11.4458 208.782 29.7581 199.721C52.4649 194.725 44.3432 197.604 68.028 189.94C69.8777 189.348 71.7699 188.755 73.6622 188.204C63.8504 189.482 53.9795 190.259 44.0881 190.533C14.6628 191.041 2.11873 175.015 21.0623 155.433C27.2068 149.082 38.4751 144.339 51.2955 140.613C41.7493 139.936 34.0741 138.115 29.5242 134.538C8.98605 118.3 36.349 101.618 50.8278 93.8906C54.3571 91.9853 57.9006 90.2635 61.4583 88.7251C49.3645 91.3005 37.4311 94.5733 25.7185 98.5269C16.5762 101.766 6.05203 98.1882 2.18252 90.5246C-1.687 82.8609 2.65026 74.0964 11.7713 70.7727Z" fill="#EAF2FF"/>
<path fill-rule="evenodd" clip-rule="evenodd" d="M155.205 221.886C154.796 223.932 153.765 225.802 152.25 227.243C149.486 229.974 144.978 231.773 141.492 233.594C135.375 236.665 128.965 239.119 122.357 240.919C118.693 242.094 114.802 242.385 111.003 241.765C109.944 241.542 108.942 241.105 108.059 240.48C107.176 239.855 106.432 239.057 105.871 238.134C105.311 237.211 104.948 236.183 104.803 235.115C104.658 234.046 104.735 232.959 105.029 231.921C103.2 231.921 101.329 231.646 99.4373 231.371C90.195 229.788 81.11 227.401 72.2869 224.236C71.0632 223.807 69.9669 223.079 69.0977 222.119C65.9086 222.818 62.7194 223.538 59.3602 223.982C53.2556 225.19 46.9241 224.449 41.267 221.865C34.8887 218.499 26.3843 213.63 24.1519 206.199C22.5148 200.78 24.4282 195.424 25.5126 190.11C25.5126 189.877 25.6189 189.623 25.6614 189.369C26.6689 184.664 28.8641 180.292 32.0397 176.667C33.271 175.177 34.5916 173.763 35.9943 172.433C38.333 170.316 40.7993 168.199 43.1167 165.955C43.9034 165.192 44.6475 164.43 45.2428 163.668H44.8389C42.245 163.139 38.4605 162.843 37.0573 160.154C32.3799 151.199 33.5918 128.652 34.3784 118.702C35.0684 109.657 36.2394 100.654 37.8865 91.7315C39.2524 83.7531 41.301 75.9056 44.0097 68.2748C45.308 61.8472 49.0281 56.1583 54.4063 52.3759L54.6402 52.2277L54.8316 52.1219L55.0442 51.9948L55.2568 51.8678L55.4694 51.762H55.5757L55.767 51.6561C55.4561 51.1809 55.2061 50.6689 55.0229 50.1319C54.4701 48.4594 55.0229 48.0148 53.7898 46.7446C48.8785 41.2403 48.7509 36.8581 51.855 30.4011C52.344 29.385 52.1952 29.0886 51.6211 28.1571C49.8352 25.3203 48.1981 23.3303 48.5596 19.689C48.8334 16.4844 49.8056 13.3779 51.4085 10.5857C52.5551 8.60312 54.2924 7.02457 56.3799 6.06873C58.4674 5.11289 60.8017 4.82705 63.0596 5.25082C63.9956 5.40795 64.9513 5.40795 65.8873 5.25082C69.6718 1.67304 74.413 -1.35431 79.6857 0.614527C80.9753 1.16804 82.2133 1.83397 83.3852 2.60454C83.8025 2.88578 84.2725 3.0802 84.7671 3.17613C86.2196 3.14136 87.6542 3.50141 88.9166 4.21758C90.179 4.93374 91.2215 5.97894 91.9321 7.24083C92.4561 8.33379 92.6552 9.55314 92.5062 10.7551C93.5583 12.1163 94.14 13.7798 94.1645 15.4972C94.884 17.4886 95.3274 19.5683 95.4827 21.679C95.6425 23.5094 95.9916 25.3184 96.5245 27.0774C97.2928 27.8116 97.8443 28.7415 98.1191 29.766C98.6551 29.0288 99.0912 28.2245 99.416 27.3738C99.8533 26.0767 100.564 24.8879 101.501 23.8871C102.438 22.8863 103.579 22.0966 104.848 21.5713C106.117 21.0459 107.484 20.7969 108.857 20.841C110.23 20.8852 111.578 21.2214 112.81 21.8272L113.257 22.0177C116.095 21.4909 119.027 21.8456 121.655 23.0339C123.802 23.9581 125.673 25.4177 127.088 27.2719C128.503 29.126 129.415 31.312 129.734 33.619C129.847 34.7271 130.126 35.8119 130.563 36.8369C131.074 37.3662 131.903 37.8107 132.519 38.4459C133.763 39.7823 134.623 41.4277 135.007 43.2092L135.283 43.0821H135.411C135.06 42.2523 134.803 41.386 134.646 40.4994C134.653 37.5987 135.447 34.7537 136.942 32.2641C136.758 30.5303 137.203 28.7882 138.196 27.3526C139.076 26.0538 140.127 24.8789 141.322 23.8595C157.416 9.65425 181.718 24.7063 176.041 44.7334C174.898 47.7532 173.196 50.5323 171.023 52.9263C169.978 54.1401 168.76 55.1956 167.409 56.0595C167.415 56.9596 167.607 57.8488 167.972 58.6719C168.338 59.495 168.87 60.2343 169.535 60.844C169.84 61.0402 170.168 61.1967 170.513 61.3098C172.171 61.9237 175.02 62.2413 176.657 62.6435C180.967 63.6034 184.952 65.6604 188.223 68.6135C191.753 71.7467 194.24 77.9708 196.005 84.6394C200.885 86.6198 205.045 90.0309 207.932 94.4201C212.355 100.941 212.185 107.99 211.887 115.59C211.861 116.884 211.498 118.149 210.835 119.262C210.172 120.375 209.23 121.298 208.103 121.942L207.443 122.301C207.443 128.314 206.019 134.686 206.317 140.571L207.89 141.079C210.016 141.778 212.27 142.477 214.438 143.197L215.905 143.726L216.756 144.022L217.713 144.382H217.989L218.669 144.657L219.647 145.038L220.306 145.314H220.583L221.199 145.589L221.858 145.864L222.454 146.139L222.943 146.372L223.517 146.626L224.006 146.88L224.601 147.176L225.069 147.452L225.643 147.769L226.047 148.023L226.515 148.32L227.046 148.658L227.493 148.976C227.678 149.084 227.855 149.204 228.024 149.336L228.471 149.675C228.643 149.797 228.806 149.931 228.96 150.077L229.364 150.416C229.649 150.668 229.918 150.936 230.172 151.22L230.575 151.665C230.722 151.825 230.857 151.994 230.979 152.173L231.32 152.66L231.617 153.168C233.203 156.376 234.43 159.748 235.274 163.224C236.56 167.951 237.562 172.751 238.272 177.598C239.335 185.093 240.781 199.234 233.637 204.294C219.881 214.117 198.748 221.738 181.739 222.204C175.716 222.498 169.696 221.562 164.05 219.452C163.518 219.579 162.944 219.685 162.37 219.769C160.627 220.955 157.926 221.4 155.205 221.886Z" fill="white"/>
<path fill-rule="evenodd" clip-rule="evenodd" d="M14.3066 66.369C15.5022 68.0026 16.0715 70.0082 15.9117 72.0232C15.7518 74.0383 14.8733 75.93 13.4349 77.3564C11.853 78.5828 9.88098 79.202 7.87867 79.101C5.87636 79 3.97729 78.1854 2.52802 76.806C1.71731 76.0814 1.07274 75.1916 0.638105 74.1969C0.203466 73.2023 -0.0110564 72.1261 0.00911377 71.0416C0.0292839 69.957 0.283674 68.8895 0.754999 67.9116C1.22632 66.9336 1.90354 66.0682 2.74063 65.374C3.53823 64.6255 4.48562 64.0533 5.52076 63.6947C6.5559 63.3361 7.65542 63.1993 8.74734 63.2933C9.83926 63.3872 10.8989 63.7098 11.857 64.2398C12.815 64.7698 13.6498 65.4954 14.3066 66.369ZM2.91072 87.3911C1.18857 86.2691 2.54928 83.9403 4.35647 85.1682C6.16366 86.3961 4.65412 88.492 2.91072 87.3911ZM27.8925 49.0729C27.7047 48.6835 27.5976 48.2605 27.5775 47.829C27.5575 47.3976 27.6248 46.9665 27.7756 46.5615C27.9264 46.1566 28.1575 45.7859 28.4552 45.4718C28.7529 45.1576 29.111 44.9064 29.5083 44.733C29.867 44.4951 30.2718 44.3347 30.6966 44.2622C31.1214 44.1897 31.5567 44.2067 31.9745 44.3121C32.3923 44.4175 32.7832 44.609 33.1221 44.8741C33.461 45.1393 33.7403 45.4722 33.9419 45.8515C34.1436 46.2308 34.2631 46.6479 34.2928 47.0761C34.3226 47.5042 34.2618 47.9338 34.1145 48.3371C33.9672 48.7403 33.7366 49.1084 33.4376 49.4175C33.1385 49.7265 32.7778 49.9697 32.3785 50.1314C31.6351 50.553 30.7587 50.6782 29.9262 50.4817C29.0936 50.2853 28.3669 49.7818 27.8925 49.0729ZM73.71 29.2998C73.4553 28.3571 73.3924 27.3733 73.5251 26.406C73.6577 25.4388 73.9831 24.5077 74.4823 23.6675C74.9814 22.8273 75.6442 22.0949 76.4317 21.5134C77.2192 20.9319 78.1154 20.513 79.0678 20.2813C79.9941 19.9898 80.9699 19.8873 81.937 19.9798C82.904 20.0722 83.8424 20.3579 84.696 20.8195C85.5497 21.2812 86.3012 21.9095 86.9055 22.6669C87.5099 23.4242 87.9547 24.2951 88.2135 25.2275C88.4722 26.1599 88.5396 27.1346 88.4115 28.0935C88.2835 29.0524 87.9626 29.9757 87.4681 30.8084C86.9737 31.641 86.3157 32.3659 85.5336 32.9396C84.7515 33.5134 83.8612 33.9243 82.9161 34.1478C81.0413 34.685 79.0306 34.4807 77.3034 33.5774C75.5763 32.6741 74.2661 31.1417 73.6462 29.2998H73.71ZM87.6573 37.9161C87.6994 38.1221 87.7833 38.3173 87.9038 38.4899C88.0243 38.6625 88.1789 38.8088 88.3581 38.9198C88.5374 39.0308 88.7375 39.1043 88.9462 39.1357C89.1549 39.1671 89.3679 39.1558 89.572 39.1025C89.7762 39.0491 89.9673 38.9549 90.1337 38.8254C90.3 38.696 90.4381 38.5342 90.5395 38.3498C90.6408 38.1655 90.7034 37.9625 90.7233 37.7532C90.7431 37.5439 90.7199 37.3328 90.6551 37.1328C90.5332 36.7569 90.2714 36.4418 89.9235 36.2521C89.5755 36.0624 89.1678 36.0126 88.7841 36.1128C88.4005 36.2131 88.0699 36.4558 87.8603 36.7912C87.6508 37.1266 87.5781 37.5291 87.6573 37.9161ZM179.463 36.413C179.572 34.7658 180.321 33.2258 181.552 32.1193C182.782 31.0128 184.397 30.4267 186.053 30.4854C186.84 30.4472 187.626 30.5712 188.363 30.8496C189.099 31.1281 189.769 31.5549 190.332 32.1035C190.895 32.6521 191.338 33.3105 191.634 34.0375C191.929 34.7645 192.07 35.5444 192.049 36.3284C192.058 37.099 191.912 37.8636 191.62 38.5775C191.328 39.2914 190.897 39.9403 190.351 40.4863C189.804 41.0322 189.154 41.4643 188.438 41.7573C187.722 42.0502 186.955 42.1982 186.181 42.1925C184.536 42.2506 182.929 41.6872 181.683 40.6154C180.437 39.5436 179.644 38.0425 179.463 36.413ZM146.487 27.9449C146.487 30.0619 144.148 31.0781 142.383 31.1205C140.619 31.1628 138.131 30.2101 138.131 28.1566C138.131 26.1031 140.491 25.0446 142.234 25.0022C143.978 24.9599 146.487 25.9126 146.487 27.9449ZM74.4116 35.7991C72.7533 29.2786 65.9072 26.463 59.5289 28.2836C53.1506 30.1043 48.8984 36.3072 51.0245 42.7006C52.1629 45.518 54.3315 47.8009 57.0932 49.0894C59.8549 50.378 63.0045 50.5763 65.9072 49.6445C68.8469 48.8783 71.3744 47.0085 72.9599 44.4273C74.5454 41.8461 75.0657 38.7539 74.4116 35.7991ZM26.3829 66.9618C26.9795 67.9314 27.1861 69.0897 26.9614 70.2047C26.7366 71.3196 26.0972 72.3088 25.171 72.9741C24.1948 73.5422 23.0377 73.7183 21.9356 73.4665C20.8335 73.2148 19.8692 72.5542 19.2392 71.6192C18.9028 71.1621 18.662 70.6424 18.5311 70.0909C18.4002 69.5395 18.3817 68.9674 18.4769 68.4087C18.5721 67.85 18.7789 67.316 19.0851 66.8384C19.3914 66.3607 19.7908 65.9492 20.2597 65.628C20.7417 65.2903 21.2889 65.0559 21.8667 64.9399C22.4444 64.8239 23.0401 64.8288 23.6159 64.9542C24.1916 65.0796 24.7349 65.3228 25.2113 65.6684C25.6876 66.014 26.0866 66.4545 26.3829 66.9618Z" fill="#CCE0FF"/>
<path fill-rule="evenodd" clip-rule="evenodd" d="M27.8887 49.0735C27.7009 48.6842 27.5938 48.2612 27.5738 47.8297C27.5537 47.3982 27.6211 46.9672 27.7718 46.5622C27.9226 46.1572 28.1537 45.7866 28.4514 45.4725C28.7491 45.1583 29.1073 44.907 29.5045 44.7336C29.8632 44.4957 30.268 44.3353 30.6928 44.2629C31.1176 44.1904 31.553 44.2074 31.9707 44.3128C32.3885 44.4182 32.7795 44.6096 33.1183 44.8748C33.4572 45.1399 33.7365 45.4729 33.9382 45.8522C34.1398 46.2314 34.2594 46.6486 34.2891 47.0767C34.3188 47.5048 34.258 47.9344 34.1107 48.3377C33.9634 48.741 33.7328 49.1091 33.4338 49.4181C33.1348 49.7272 32.774 49.9704 32.3748 50.132C31.6313 50.5536 30.7549 50.6788 29.9224 50.4824C29.0899 50.286 28.3631 49.7825 27.8887 49.0735Z" fill="#CCE0FF"/>
<path fill-rule="evenodd" clip-rule="evenodd" d="M97.4927 57.033C97.4927 56.6096 97.4927 56.2073 97.4927 55.8051C97.599 54.5937 97.599 53.3753 97.4927 52.1638C96.9625 52.9063 96.6038 53.7563 96.4421 54.653C96.2803 55.5496 96.3196 56.4708 96.5572 57.3505L97.2588 57.0542L97.4927 57.033ZM94.8138 58.0068C93.7295 52.058 96.1957 51.8886 97.5352 48.7554C97.648 47.8549 97.8767 46.9727 98.2155 46.1303C98.4081 44.4846 98.4081 42.8222 98.2155 41.1764C97.4501 33.4493 100.661 36.7942 103.871 29.1305C104.059 28.4175 104.409 27.7567 104.893 27.199C105.377 26.6414 105.983 26.2016 106.665 25.9134C107.346 25.6252 108.085 25.4963 108.824 25.5365C109.564 25.5767 110.284 25.7851 110.93 26.1455C111.514 26.3854 111.99 26.8296 112.269 27.3946C116.096 24.9812 124.005 27.3946 125.026 34.1267C126.301 43.1876 129.533 38.7842 130.575 45.1353C131.723 52.0368 128.215 53.3705 133.955 59.7851C136.889 63.0665 135.167 69.9469 135.189 69.9892C136.018 72.1062 138.186 82.2891 137.548 83.8558C134.806 90.5244 126.471 88.6191 120.221 88.7673C113.502 88.9155 99.9164 83.7076 90.7742 83.3688C89.9025 83.3688 88.4142 82.0563 88.4354 82.0774C87.5931 75.9074 88.1525 69.6277 90.0726 63.7016C91.4758 59.5734 91.008 59.3405 94.8138 58.0068ZM100.278 42.5948C101.67 40.8806 102.619 38.8525 103.042 36.6883C103.212 35.5451 103.382 34.5713 103.573 33.7245C101.277 36.7942 99.6613 36.0109 100.15 40.8165C100.15 41.4517 100.193 42.0444 100.278 42.5948ZM106.018 29.1517C107.315 28.5589 108.867 29.2576 110.632 28.686C110.632 28.3896 110.441 28.0932 110.143 27.9662C107.804 26.9712 106.784 27.6274 106.018 29.1517ZM114.799 28.5378C122.815 29.2787 121.007 33.5975 123.814 37.9586C123.48 36.7853 123.231 35.5896 123.07 34.3808C122.737 32.521 121.683 30.8661 120.136 29.773C118.589 28.6799 116.672 28.2362 114.799 28.5378Z" fill="#7872B8"/>
<path fill-rule="evenodd" clip-rule="evenodd" d="M69.8878 11.0934C76.6844 10.7038 83.4175 12.5811 89.0227 16.4283C91.0213 17.6773 90.2133 27.9873 93.0411 30.4007C93.934 31.1628 92.6371 31.3957 91.6591 32.2425C91.3712 32.4768 91.1423 32.775 90.991 33.1132C90.8396 33.4515 90.7699 33.8203 90.7874 34.1902C90.7874 35.9261 90.3197 41.9597 87.662 41.8326C85.4296 41.8326 81.6026 41.9597 81.7089 44.8388C81.9853 53.561 83.2397 48.7765 91.2126 51.698C105.011 56.7577 107.031 75.3664 108.221 85.02C109.178 92.4296 106.712 114.658 102.715 119.147C89.0653 134.41 54.8987 118.194 54.516 117.474C47.0747 103.163 41.7594 66.115 57.0461 56.419C61.6598 53.6033 65.5293 55.0429 66.5498 53.0741C67.2514 51.6556 66.4222 48.3954 65.8694 44.0767C64.9127 36.4554 63.1268 23.2875 66.1246 16.3859C66.4564 15.3087 67.0398 14.325 67.8269 13.5155C68.6141 12.7059 69.5826 12.0935 70.6532 11.7285L69.8878 11.0934Z" fill="#958FD3"/>
<path fill-rule="evenodd" clip-rule="evenodd" d="M87.5106 26.1884C88.0847 26.1884 88.9989 26.2943 89.1477 26.1884C89.2741 26.0693 89.4415 26.0029 89.6155 26.0029C89.7895 26.0029 89.9569 26.0693 90.0832 26.1884C90.1449 26.2494 90.1939 26.322 90.2273 26.4019C90.2608 26.4819 90.278 26.5676 90.278 26.6542C90.278 26.7408 90.2608 26.8265 90.2273 26.9064C90.1939 26.9864 90.1449 27.0589 90.0832 27.1199C89.3816 28.1361 88.3823 27.5645 87.7445 27.6492C87.6594 27.6748 87.5699 27.683 87.4815 27.6732C87.3931 27.6635 87.3076 27.6361 87.2301 27.5925C87.1526 27.549 87.0848 27.4903 87.0307 27.42C86.9766 27.3497 86.9374 27.2692 86.9153 27.1834C86.8535 27.0816 86.8207 26.965 86.8203 26.8461C86.8199 26.7271 86.852 26.6103 86.9132 26.5081C86.9743 26.4059 87.0622 26.3222 87.1675 26.2659C87.2727 26.2096 87.3913 26.1828 87.5106 26.1884Z" fill="#7872B8"/>
<path fill-rule="evenodd" clip-rule="evenodd" d="M86.0012 23.8379C86.5557 22.955 87.3734 22.2666 88.34 21.869C88.4417 21.7919 88.5571 21.7344 88.6801 21.6997C88.846 21.676 89.015 21.7104 89.1583 21.7971C89.3015 21.8838 89.41 22.0173 89.4652 22.1749C89.5205 22.3324 89.519 22.5042 89.4612 22.6608C89.4033 22.8174 89.2925 22.9491 89.1479 23.0334C88.3799 23.4397 87.7006 23.9938 87.1493 24.6635C87.0949 24.7386 87.0261 24.8022 86.947 24.8508C86.8678 24.8994 86.7799 24.932 86.688 24.9468C86.5962 24.9615 86.5024 24.9581 86.4119 24.9368C86.3215 24.9154 86.2361 24.8765 86.1607 24.8223C86.0853 24.7681 86.0214 24.6996 85.9726 24.6208C85.9238 24.542 85.891 24.4544 85.8762 24.363C85.8614 24.2716 85.8648 24.1781 85.8863 24.088C85.9077 23.9979 85.9468 23.9129 86.0012 23.8379ZM89.1691 23.0122C89.2414 22.9764 89.3052 22.9259 89.3565 22.8639C89.4078 22.8019 89.4454 22.7298 89.4668 22.6523C89.3983 22.7945 89.2962 22.918 89.1691 23.0122Z" fill="#7872B8"/>
<path fill-rule="evenodd" clip-rule="evenodd" d="M78.6586 49.3062C79.8918 49.3062 81.1249 49.3062 82.3368 49.4332C83.251 51.5502 85.5047 49.5814 91.2664 51.6984C105.065 56.7581 107.085 75.3668 108.275 85.0204C109.211 92.43 159.514 157.55 155.517 162.038C141.889 177.281 41.792 158.63 41.4305 157.804C33.9679 143.493 41.7282 66.0095 57.0787 56.3135C61.6498 53.6037 65.5193 55.0433 66.5398 53.0745C66.8281 52.2378 66.9012 51.3426 66.7524 50.4705C70.6731 49.6939 74.6611 49.3039 78.6586 49.3062Z" fill="#4B4680"/>
<path fill-rule="evenodd" clip-rule="evenodd" d="M83.6434 19.7312C87.8956 19.4983 91.1911 15.9205 88.172 13.0202C86.3861 11.3054 90.0643 8.36273 84.345 7.87581C78.6258 7.38889 77.9667 0.487376 68.9946 8.70145C67.0791 9.94348 64.7495 10.3846 62.5099 9.92933C55.0473 9.08252 54.4095 15.2642 54.0055 19.9217C53.5803 24.1558 59.746 26.1669 56.8545 32.2217C54.5796 36.9426 54.452 39.2502 58.0451 43.2937C62.7651 48.5863 55.6426 49.3484 69.4198 51.5501C73.1405 52.1641 73.672 51.2537 76.4997 48.671C78.0092 47.3372 79.7314 43.823 78.4132 41.9812C74.9477 37.1967 79.9015 39.2078 75.6493 35.0585C73.8633 33.3013 73.5232 27.4795 76.7974 27.4795C81.0496 27.4795 77.7541 31.4595 80.6456 30.8668C83.5371 30.274 80.029 20.8532 82.9205 19.7523C83.1575 19.6957 83.4036 19.6885 83.6434 19.7312Z" fill="#91B0DF"/>
<path fill-rule="evenodd" clip-rule="evenodd" d="M142.446 32.2639C141.617 33.4071 139.193 38.1281 139.406 39.5676C139.618 41.0072 141.532 43.6535 140.554 45.1989C139.448 48.3957 136.302 46.321 137.11 48.1416C137.823 48.8976 138.665 49.5212 139.597 49.9834C141.404 52.7991 137.981 57.012 142.85 57.9858C144.083 58.2398 145.21 57.8376 149.42 57.0966C152.056 64.7391 143.828 65.5648 138.3 68.5921C125.692 75.5995 126.394 82.4587 126.607 100.496C126.819 118.977 177.995 131.595 188.264 106.445C192.75 95.5419 193.005 79.0714 183.055 71.1114C176.464 65.84 171.127 67.6395 166.811 64.7603C163.813 62.855 162.198 58.8538 162.559 52.0581C159.646 37.2177 152.566 31.4171 142.446 32.2639Z" fill="#7872B8"/>
<path fill-rule="evenodd" clip-rule="evenodd" d="M144.583 65.7554C142.346 66.578 140.068 67.2846 137.758 67.8725C120.749 73.4403 124.789 127.806 125.512 145.991C126.235 164.176 183.512 165.044 193.845 139.788C198.31 128.906 194.355 80.5111 184.873 72.043C178.154 66.0518 171.989 67.2585 167.864 65.332C166.545 67.1848 164.804 68.7005 162.784 69.7553C160.764 70.81 158.522 71.3738 156.241 71.4007C153.96 71.4275 151.705 70.9166 149.66 69.9097C147.616 68.9028 145.84 67.4285 144.477 65.6072L144.583 65.7554Z" fill="#91B0DF"/>
<path fill-rule="evenodd" clip-rule="evenodd" d="M142.447 32.2218C155.374 36.4559 149.506 41.4309 153.843 44.924C157.096 40.6899 159.754 45.792 157.798 47.6338L161.667 51.9737C164.665 55.0434 170.639 45.9613 171.362 43.3786C175.721 28.1783 157.33 16.1324 144.573 27.3526C143.404 28.3265 140.193 31.4809 142.447 32.2218Z" fill="#4B4680"/>
<path fill-rule="evenodd" clip-rule="evenodd" d="M154.601 47.6758C155.266 47.6758 155.915 47.872 156.468 48.2395C157.02 48.607 157.451 49.1294 157.705 49.7406C157.959 50.3518 158.026 51.0244 157.896 51.6732C157.767 52.3221 157.447 52.9181 156.977 53.3859C156.507 53.8537 155.908 54.1723 155.257 54.3013C154.605 54.4304 153.93 54.3641 153.316 54.111C152.702 53.8578 152.177 53.4291 151.808 52.879C151.439 52.3289 151.242 51.6822 151.242 51.0207C151.248 50.1353 151.603 49.2877 152.232 48.6616C152.861 48.0355 153.712 47.6813 154.601 47.6758ZM154.601 48.3532C153.929 48.4128 153.304 48.7207 152.849 49.2163C152.393 49.712 152.141 50.3595 152.141 51.0313C152.141 51.7031 152.393 52.3505 152.849 52.8462C153.304 53.3418 153.929 53.6498 154.601 53.7093C154.975 53.7424 155.351 53.6977 155.706 53.5782C156.061 53.4586 156.387 53.2668 156.664 53.0149C156.94 52.763 157.161 52.4565 157.312 52.115C157.463 51.7735 157.541 51.4044 157.541 51.0313C157.541 50.6581 157.463 50.289 157.312 49.9475C157.161 49.606 156.94 49.2995 156.664 49.0476C156.387 48.7957 156.061 48.6039 155.706 48.4844C155.351 48.3648 154.975 48.3201 154.601 48.3532Z" fill="#4B4680"/>
<path fill-rule="evenodd" clip-rule="evenodd" d="M154.65 48.9033C155.07 48.9033 155.481 49.0275 155.831 49.2601C156.18 49.4927 156.453 49.8234 156.614 50.2102C156.775 50.597 156.817 51.0227 156.735 51.4334C156.653 51.844 156.45 52.2212 156.153 52.5173C155.856 52.8134 155.477 53.015 155.064 53.0967C154.652 53.1784 154.224 53.1365 153.836 52.9762C153.447 52.816 153.115 52.5447 152.882 52.1965C152.648 51.8484 152.523 51.4391 152.523 51.0203C152.523 50.4589 152.747 49.9204 153.146 49.5234C153.545 49.1264 154.086 48.9033 154.65 48.9033ZM154.65 49.4537C154.343 49.4537 154.043 49.5444 153.787 49.7142C153.532 49.884 153.333 50.1254 153.216 50.4078C153.098 50.6902 153.067 51.0009 153.127 51.3007C153.187 51.6005 153.335 51.8758 153.552 52.092C153.769 52.3081 154.046 52.4553 154.347 52.5149C154.648 52.5745 154.96 52.5439 155.243 52.427C155.527 52.31 155.769 52.1119 155.94 51.8578C156.111 51.6036 156.202 51.3048 156.202 50.9992C156.202 50.5893 156.038 50.1962 155.747 49.9064C155.456 49.6166 155.061 49.4537 154.65 49.4537Z" fill="#4B4680"/>
<path fill-rule="evenodd" clip-rule="evenodd" d="M143.55 42.4678C143.55 42.8912 143.55 43.2723 143.55 43.5687C143.55 43.7539 143.476 43.9316 143.344 44.0627C143.212 44.1937 143.034 44.2673 142.848 44.2673C142.662 44.2673 142.483 44.1937 142.352 44.0627C142.22 43.9316 142.146 43.7539 142.146 43.5687C142.138 43.639 142.138 43.71 142.146 43.7804C142.087 43.359 142.087 42.9315 142.146 42.5101C142.146 42.3249 142.22 42.1472 142.352 42.0161C142.483 41.8851 142.662 41.8115 142.848 41.8115C143.034 41.8115 143.212 41.8851 143.344 42.0161C143.476 42.1472 143.55 42.3249 143.55 42.5101V42.4678Z" fill="#4B4680"/>
<path fill-rule="evenodd" clip-rule="evenodd" d="M143.213 42.1928C143.766 41.9893 144.335 41.8334 144.914 41.7271C145.119 41.7485 145.308 41.8492 145.439 42.0076C145.57 42.166 145.634 42.3693 145.616 42.5739C145.608 42.676 145.579 42.7756 145.532 42.8665C145.485 42.9575 145.419 43.038 145.34 43.1032C145.26 43.1684 145.169 43.217 145.07 43.2461C144.971 43.2752 144.868 43.2842 144.765 43.2725C144.427 43.4225 144.079 43.5498 143.724 43.6536C143.529 43.7145 143.318 43.6978 143.136 43.6069C142.953 43.5161 142.813 43.3582 142.746 43.1666C142.709 43.0723 142.692 42.9716 142.696 42.8705C142.7 42.7695 142.724 42.6703 142.768 42.5791C142.812 42.4878 142.874 42.4065 142.951 42.3401C143.027 42.2736 143.117 42.2235 143.213 42.1928Z" fill="#4B4680"/>
<path fill-rule="evenodd" clip-rule="evenodd" d="M144.678 37.1753C144.294 37.5798 143.828 37.8999 143.312 38.115C142.796 38.3301 142.24 38.4354 141.681 38.4243C141.595 38.427 141.511 38.4468 141.433 38.4826C141.355 38.5184 141.285 38.5694 141.228 38.6326C141.17 38.6959 141.126 38.77 141.098 38.8506C141.07 38.9312 141.058 39.0166 141.064 39.1018C141.069 39.1852 141.091 39.2668 141.128 39.3418C141.166 39.4168 141.217 39.4838 141.28 39.5389C141.344 39.594 141.417 39.6361 141.497 39.6628C141.576 39.6895 141.66 39.7003 141.744 39.6945C142.472 39.722 143.198 39.5946 143.872 39.3208C144.547 39.047 145.155 38.6331 145.656 38.1068C145.769 37.9776 145.826 37.8092 145.814 37.6384C145.802 37.4677 145.722 37.3087 145.593 37.1964C145.463 37.0841 145.294 37.0277 145.122 37.0397C144.951 37.0516 144.791 37.1308 144.678 37.2599V37.1753Z" fill="#4B4680"/>
<path fill-rule="evenodd" clip-rule="evenodd" d="M102.049 81.8449C101.424 83.7882 101.109 85.8168 101.114 87.8573C101.114 88.6829 101.241 96.1984 101.114 96.4524C96.6063 97.2569 99.2852 103.968 102.007 105.619C102.581 105.958 102.751 105.619 102.985 105.852C103.622 106.508 104.834 111.695 108.023 115.484C115.337 124.185 127.35 113.367 130.964 106.572C130.369 110.531 142.084 101.618 137.683 95.2669C136.577 93.6579 134.366 95.7538 133.43 96.0925C130.858 84.1736 133.43 75.6208 118.994 73.8213C111.298 72.911 103.878 73.3979 102.049 81.8449Z" fill="white"/>
<path fill-rule="evenodd" clip-rule="evenodd" d="M109.172 108.647C113.156 109.179 117.209 108.854 121.057 107.694C118.697 113.77 112.552 115.887 109.172 108.647Z" fill="#CCE0FF"/>
<path fill-rule="evenodd" clip-rule="evenodd" d="M100.138 76.4678L100.329 76.9971C102.795 82.9459 110.088 82.2896 116.509 80.596C117.317 80.3843 118.082 80.1514 118.847 79.9186H115.616C109.237 80.1091 103.582 80.1514 100.138 76.3831V76.4678ZM137.834 93.7851C137.663 96.1562 136.26 95.5211 133.581 96.8971C133.39 97.4687 133.156 98.0827 132.901 98.6966C132.589 98.9826 132.191 99.1596 131.769 99.201C131.346 99.2423 130.922 99.1458 130.56 98.9259C130.197 98.7061 129.916 98.3748 129.76 97.9821C129.603 97.5894 129.579 97.1566 129.691 96.7489C129.903 96.1985 130.095 95.6693 130.265 95.1612C130.255 95.0697 130.255 94.9774 130.265 94.886C130.265 94.6319 130.413 94.3779 130.477 94.145C130.962 92.279 130.985 90.3238 130.544 88.4471C130.104 86.5703 129.212 84.8279 127.947 83.3693C127.437 82.713 126.884 82.0568 126.268 81.4005C124.822 81.7604 122.823 82.4802 120.527 83.2C112.299 85.8039 100.223 88.6407 96.3532 77.2934C96.2387 76.791 96.3288 76.2638 96.6037 75.8274C96.8787 75.3909 97.3161 75.0807 97.8202 74.9647C98.2886 74.8549 98.7814 74.9228 99.2022 75.1552C99.0607 74.7959 99.0297 74.4029 99.113 74.0259C99.1962 73.649 99.3901 73.3052 99.6699 73.0382C100.035 72.7035 100.513 72.5176 101.009 72.5176C101.506 72.5176 101.984 72.7035 102.349 73.0382C102.387 72.8971 102.444 72.7619 102.519 72.636C102.766 72.1861 103.182 71.8514 103.675 71.7048C104.169 71.5581 104.701 71.6113 105.155 71.8527L105.644 72.0644C109.769 64.5913 125.29 64.5913 128.84 72.5725C136.515 68.5078 140.959 80.4902 138.174 92.155C137.982 92.7478 138.004 93.277 137.834 93.7851Z" fill="#FFCE70"/>
<path fill-rule="evenodd" clip-rule="evenodd" d="M107.347 112.203C116.128 117.22 123.442 115.166 129.076 105.852L130.989 123.169C138.64 123.49 146.083 125.74 152.621 129.71C159.159 133.679 164.577 139.238 168.366 145.863C178.763 163.795 166.601 169.151 145.999 172.263C129.947 174.655 103.626 172.263 88.382 169.701C79.5587 168.156 72.3299 170.146 71.1606 158.925C67.8864 142.984 83.7684 127.17 108.771 123.296L107.347 112.203Z" fill="white"/>
<path fill-rule="evenodd" clip-rule="evenodd" d="M138.713 124.312C144.924 125.601 150.79 128.189 155.921 131.904C161.052 135.619 165.333 140.378 168.479 145.864C178.875 163.795 183.361 212.635 162.717 215.726C112.881 223.157 120.195 234.779 73.9306 219.579C65.4262 216.784 72.4423 170.146 71.273 158.926C68.4453 145.165 79.8837 131.51 99.1462 125.54C100.72 131.659 108.948 136.337 118.855 136.337C129.316 136.337 137.969 131.023 138.713 124.312Z" fill="#F9C45A"/>
<path fill-rule="evenodd" clip-rule="evenodd" d="M70.3321 216.911C59.2339 219.367 50.8357 221.293 43.5219 217.483C24.2169 207.469 27.9376 202.282 30.255 190.956C34.2734 171.289 57.4054 172.094 58.2133 142.963C58.3196 139.004 64.5916 127.996 69.6518 127.996C95.165 127.996 73.7127 113.409 91.9334 127.721C99.0771 138.771 91.4656 146.329 90.9341 147.727C89.3395 151.961 90.0199 153.591 93.3791 156.195C93.9744 156.66 92.2735 158.968 88.9568 158.841C88.4891 158.841 87.2347 165.34 85.2574 167.944C82.5572 171.501 75.8813 164.938 75.1159 165.827C74.3758 167.513 73.8473 169.284 73.5426 171.099C73.0562 172.468 73.0562 173.963 73.5426 175.333C84.0668 203.235 101.713 209.988 70.3321 216.911Z" fill="#958FD3"/>
<path fill-rule="evenodd" clip-rule="evenodd" d="M86.3145 118.66C78.6605 114.024 68.6253 108.901 61.6516 117.75C52.233 117.051 46.1948 131.913 51.1487 145.525C51.5971 146.98 51.8333 148.492 51.8503 150.013C51.8646 150.475 52.0303 150.92 52.3221 151.279C52.6138 151.638 53.0156 151.893 53.4661 152.003C53.4119 152.504 53.3195 152.999 53.1897 153.485C53.0619 153.989 53.1346 154.522 53.3924 154.973C53.6503 155.424 54.0735 155.759 54.5734 155.906C55.0733 156.054 55.6112 156.003 56.0745 155.765C56.5378 155.527 56.8907 155.12 57.0592 154.628C57.2506 154.057 57.4207 153.464 57.5695 152.892C57.8316 153.194 58.1804 153.409 58.5688 153.506C59.086 153.615 59.6252 153.527 60.0812 153.261C60.5372 152.995 60.8772 152.569 61.0351 152.067V152.236C61.2051 151.601 61.4178 150.627 61.6091 149.611C61.8005 148.595 62.0769 147.177 62.1406 146.478C62.6509 140.889 64.7132 138.624 66.7968 139.195C68.8804 139.767 70.3049 145.187 72.2609 145.187C72.545 145.205 72.8298 145.163 73.0962 145.064C73.3627 144.964 73.6047 144.808 73.806 144.608C74.0073 144.408 74.1633 144.167 74.2635 143.901C74.3637 143.636 74.4058 143.352 74.387 143.069L74.791 141.884C77.5549 138.645 81.7221 134.22 86.6121 135.977C111.02 144.721 107.873 124.567 96.8599 119.486C96.3786 119.382 95.876 119.447 95.4378 119.671C94.9996 119.895 94.6531 120.264 94.4574 120.714C93.692 120.079 92.8416 119.465 91.9699 118.829C91.6871 118.685 91.3737 118.609 91.0557 118.609C90.7377 118.609 90.4242 118.685 90.1414 118.829L89.5461 118.554C89.3825 118.347 89.1792 118.174 88.9479 118.046C88.7166 117.918 88.4621 117.836 88.199 117.807C87.9359 117.777 87.6695 117.8 87.4154 117.874C87.1612 117.948 86.9243 118.071 86.7184 118.237C86.5625 118.356 86.4262 118.499 86.3145 118.66ZM84.1883 132.103C85.7402 131.891 87.3139 131.891 88.8658 132.103C97.519 133.204 100.729 131.553 100.325 128.674C104.578 137.65 90.1414 133.246 84.1883 132.124V132.103Z" fill="#7872B8"/>
<path fill-rule="evenodd" clip-rule="evenodd" d="M87.6348 147.599C86.5505 147.239 82.9999 146.371 83.17 148.383C83.2024 148.707 83.3605 149.005 83.6107 149.215C83.8609 149.424 84.1833 149.528 84.5094 149.505C85.0459 149.745 85.6004 149.943 86.1678 150.097C86.3213 150.151 86.4839 150.173 86.6463 150.164C86.8086 150.155 86.9675 150.113 87.1137 150.042C87.2599 149.972 87.3906 149.873 87.4983 149.751C87.606 149.63 87.6885 149.489 87.7411 149.335C87.9537 148.679 88.2726 147.832 87.6348 147.599Z" fill="#7872B8"/>
<path fill-rule="evenodd" clip-rule="evenodd" d="M85.835 141.545C86.2043 142.325 86.7369 143.018 87.3969 143.576C88.0569 144.135 88.8292 144.547 89.6619 144.784C89.7862 144.826 89.9006 144.893 89.9983 144.981C90.096 145.068 90.175 145.175 90.2305 145.293C90.2861 145.412 90.3171 145.54 90.3217 145.671C90.3263 145.802 90.3044 145.932 90.2573 146.054C90.1617 146.302 89.9725 146.503 89.7301 146.614C89.4877 146.725 89.2114 146.737 88.9603 146.647C87.8807 146.33 86.8809 145.789 86.0269 145.06C85.1729 144.33 84.4843 143.428 84.0065 142.413C83.9504 142.294 83.9192 142.165 83.9146 142.033C83.9101 141.902 83.9323 141.771 83.98 141.648C84.0277 141.525 84.0998 141.414 84.1921 141.32C84.2843 141.225 84.3948 141.151 84.5168 141.1C84.7522 140.995 85.0191 140.982 85.2638 141.064C85.5084 141.147 85.7125 141.319 85.835 141.545Z" fill="#7872B8"/>
<path fill-rule="evenodd" clip-rule="evenodd" d="M70.3321 216.911C59.2339 219.367 50.8357 221.294 43.5219 217.504C24.2169 207.469 27.9376 202.283 30.255 190.957C32.9977 177.513 44.6488 173.597 52.0476 163.245H52.2177C54.6694 166.007 57.8639 168.012 61.4238 169.024C65.487 170.415 69.9118 170.34 73.9253 168.812L74.0953 168.918C73.9465 169.532 73.7552 170.252 73.5426 171.035C73.0562 172.405 73.0562 173.9 73.5426 175.269C84.0668 203.235 101.713 209.989 70.3321 216.911Z" fill="#7872B8"/>
<path fill-rule="evenodd" clip-rule="evenodd" d="M46.1328 169.85C48.3187 167.849 50.2986 165.637 52.0434 163.245H52.2135C54.6651 166.007 57.8597 168.012 61.4195 169.024C65.4828 170.415 69.9076 170.34 73.921 168.812L74.0911 168.918C73.9423 169.532 73.7509 170.252 73.5383 171.035C73.0519 172.405 73.0519 173.9 73.5383 175.269C73.836 176.053 74.1336 176.836 74.4313 177.577C71.3345 179.161 67.8986 179.974 64.4173 179.948C60.7541 179.976 57.1458 179.061 53.9423 177.292C50.7387 175.522 48.0486 172.959 46.1328 169.85Z" fill="#4B4680"/>
<path fill-rule="evenodd" clip-rule="evenodd" d="M228.361 156.195C224.555 149.42 201.955 144.911 201.763 143.493C200.679 135.893 202.89 127.509 202.592 120.205C201.678 97.3839 183.075 81.1463 167.958 101.258C164.918 105.28 167.958 112.944 165.981 119.38C165.4 121.034 164.544 122.58 163.451 123.953C162.664 125.096 166.023 125.731 166.916 127.319C168.341 129.838 165.534 135.977 166.916 138.37C169.489 143.006 179.269 141.037 177.823 143.768C177.207 144.911 170.148 148.912 166.98 151.305C159.985 156.597 164.11 179.376 163.685 191.528C163.515 196.651 161.048 194.238 166.215 196.334C169.404 197.625 175.91 201.267 177.483 203.214C179.439 205.649 175.57 200.589 182.118 200.314C185.647 200.187 217.156 194.619 219.665 192.841C227.489 187.167 232.039 162.758 228.361 156.195Z" fill="#958FD3"/>
<path fill-rule="evenodd" clip-rule="evenodd" d="M228.357 156.195C226.23 152.49 218.534 149.442 211.922 147.219C209.028 150.437 205.466 152.99 201.483 154.701C197.499 156.412 193.19 157.239 188.854 157.126C181.468 157.241 174.281 154.743 168.57 150.077C167.933 150.5 167.316 150.924 166.827 151.305C159.832 156.661 153.071 178.127 152.561 190.279C151.051 232.874 207.627 218.309 231.737 201.118C239.752 195.424 232.035 162.758 228.357 156.195Z" fill="#4B4680"/>
<path fill-rule="evenodd" clip-rule="evenodd" d="M174.509 104.285C171.115 103.866 167.675 104.002 164.325 104.688C162.688 94.9069 169.959 91.5832 174.786 89.6144C187.542 84.343 198.641 89.2121 203.935 97.0028C207.379 102.084 207.443 107.588 207.081 115.23C206.826 120.417 197.003 116.077 196.451 127.679C196.259 131.913 192.539 145.292 188.329 145.991C183.099 146.859 163.262 151.368 162.816 143.556C162.646 140.275 169.407 134.517 165.771 130.388C164.835 129.309 165.771 123.55 173.149 126.578C178.804 128.906 182.503 130.113 185.076 127.319C188.329 123.783 191.816 116.734 185.076 115.929C182.078 115.548 181.143 111.483 180.675 109.451C180.101 106.995 182.61 105.831 174.552 104.285H174.509ZM170.661 129.563C169.816 129.805 169.071 130.309 168.535 131.002C171.421 130.876 174.28 131.613 176.742 133.119C176.258 131.946 175.401 130.963 174.303 130.321C173.205 129.678 171.926 129.412 170.661 129.563Z" fill="#7872B8"/>
<path fill-rule="evenodd" clip-rule="evenodd" d="M175.991 110.34C174.033 111.048 171.94 111.309 169.868 111.102C169.589 111.102 169.322 111.211 169.123 111.405C168.925 111.599 168.81 111.863 168.805 112.14C168.81 112.419 168.924 112.685 169.122 112.882C169.32 113.079 169.588 113.193 169.868 113.198C172.389 113.473 174.939 113.063 177.245 112.013C177.356 111.931 177.45 111.828 177.521 111.711C177.592 111.593 177.638 111.462 177.658 111.326C177.678 111.191 177.67 111.052 177.636 110.919C177.602 110.786 177.541 110.661 177.458 110.552C177.378 110.439 177.276 110.343 177.158 110.271C177.039 110.199 176.907 110.151 176.77 110.132C176.633 110.112 176.493 110.12 176.359 110.156C176.225 110.192 176.1 110.254 175.991 110.34Z" fill="#7872B8"/>
<path fill-rule="evenodd" clip-rule="evenodd" d="M177.748 113.473C175.667 113.846 173.62 114.385 171.625 115.082C171.447 115.142 171.284 115.236 171.143 115.358C171.002 115.481 170.887 115.63 170.804 115.798C170.721 115.965 170.672 116.146 170.659 116.332C170.647 116.518 170.672 116.705 170.732 116.882C170.789 117.057 170.882 117.22 171.003 117.36C171.124 117.5 171.272 117.615 171.438 117.698C171.604 117.78 171.785 117.829 171.971 117.842C172.156 117.855 172.342 117.83 172.518 117.771C176.132 116.649 174.41 117.136 177.663 116.289C178.037 116.295 178.399 116.153 178.669 115.896C178.94 115.638 179.097 115.285 179.109 114.913C179.114 114.729 179.084 114.546 179.018 114.375C178.953 114.203 178.854 114.046 178.728 113.912C178.602 113.778 178.45 113.671 178.282 113.596C178.114 113.52 177.932 113.479 177.748 113.473Z" fill="#7872B8"/>
<path fill-rule="evenodd" clip-rule="evenodd" d="M111.066 116.098C119.018 119.634 122.398 118.003 126.587 110.255C126.678 110.076 126.835 109.94 127.025 109.873C127.215 109.806 127.423 109.814 127.607 109.895C127.787 109.986 127.923 110.144 127.987 110.334C128.051 110.524 128.037 110.732 127.948 110.911C123.291 119.38 119.145 121.327 110.322 117.411C110.237 117.362 110.162 117.298 110.101 117.22C110.041 117.143 109.997 117.054 109.971 116.96C109.945 116.866 109.939 116.767 109.952 116.67C109.964 116.573 109.996 116.479 110.046 116.395C110.144 116.223 110.306 116.096 110.496 116.041C110.686 115.986 110.891 116.006 111.066 116.098Z" fill="#CCE0FF"/>
<path fill-rule="evenodd" clip-rule="evenodd" d="M216.209 148.743C214.784 148.193 213.339 147.706 211.957 147.219C209.063 150.437 205.501 152.99 201.518 154.701C197.534 156.412 193.225 157.239 188.888 157.126C181.503 157.241 174.316 154.743 168.605 150.077C167.968 150.5 167.351 150.924 166.862 151.305C166.356 151.7 165.88 152.131 165.438 152.596C172.181 157.618 180.405 160.276 188.825 160.154C193.936 160.26 199.013 159.299 203.73 157.334C208.446 155.369 212.697 152.442 216.209 148.743Z" fill="#91B0DF"/>
<path fill-rule="evenodd" clip-rule="evenodd" d="M105.901 190.004C105.869 190.885 106.113 191.755 106.601 192.491C107.089 193.228 107.796 193.794 108.623 194.111C111.833 211.047 120.231 203.024 124.377 203.616C128.183 204.167 116.936 221.569 119.806 221.421C122.676 221.272 138.388 215.472 138.388 212.952C138.388 197.583 138.388 203.553 144.405 188.458C146.106 184.224 147.871 175.29 141.365 174.761C138.346 174.528 126.716 167.881 121.145 167.563C119.87 167.563 114.087 165.256 113.003 165.827C102.478 177.28 114.087 189.538 105.901 190.004Z" fill="#90B2E5"/>
<path fill-rule="evenodd" clip-rule="evenodd" d="M149.363 163.012C140.327 154.247 122.255 154.544 112.688 165.129C111.667 166.272 114.133 173.597 124.785 180.223C124.621 181.549 124.843 182.894 125.423 184.098C126.003 185.303 126.918 186.316 128.059 187.019C128.825 187.273 129.25 182.213 132.843 182.298C136.436 182.383 140.157 187.104 135.777 192.608C133.651 195.212 135.331 192.481 136.947 197.138C137.215 198.437 137.977 199.582 139.073 200.335C152.892 203.32 160.504 184.457 156.592 172.517C156.783 173.11 166.542 175.269 167.222 164.049C167.966 154.819 150.426 152.067 149.363 163.012Z" fill="#7872B8"/>
<path fill-rule="evenodd" clip-rule="evenodd" d="M147.192 210.857C145.066 207.956 142.43 204.505 138.497 207.279C136.158 208.994 122.466 216.043 119.808 216.509C115.917 217.165 112.579 223.538 110.028 231.815C106.286 244.03 133.798 231.815 139.368 229.127C147.66 224.892 153.103 223.559 149.467 215.175C148.854 213.665 148.092 212.218 147.192 210.857Z" fill="#7872B8"/>
<path fill-rule="evenodd" clip-rule="evenodd" d="M64.6749 230.757C64.8025 234.461 60.9967 236.684 57.6587 236.769C54.3208 236.854 50.4938 234.779 50.4512 231.074C50.4087 227.369 54.0869 225.21 57.4036 225.146C60.7203 225.083 64.5686 227.115 64.6749 230.757ZM42.6484 236.113C42.6484 234.652 45.2848 234.461 45.3911 236.113C45.4974 237.764 42.7335 237.722 42.6484 236.113ZM81.7475 224.405C81.5987 223.008 82.9807 222.056 84.2563 221.929C85.532 221.801 87.1691 222.288 87.1691 223.77C87.1691 225.252 85.9572 226.141 84.6815 226.247C84.0236 226.369 83.3439 226.235 82.7823 225.872C82.2206 225.51 81.8199 224.947 81.6625 224.3L81.7475 224.405ZM121.591 218.351C120.995 215.133 123.972 212.656 126.885 212.169C128.372 211.796 129.946 212.002 131.286 212.745C132.626 213.489 133.629 214.714 134.092 216.17C134.751 219.43 131.817 221.907 128.862 222.521C125.907 223.135 122.165 221.674 121.591 218.435V218.351ZM225.366 191.528C224.303 190.448 226.068 188.776 227.131 189.771C228.194 190.766 226.472 192.629 225.366 191.528ZM132.604 225.252C132.306 223.791 135.07 223.305 135.368 224.744C135.666 226.184 132.88 226.861 132.604 225.252ZM206.869 208.316C205.551 205.924 207.698 203.129 209.76 201.965C211.823 200.801 215.182 200.504 216.713 202.769C218.243 205.035 216.33 208.041 214.161 209.269C211.993 210.497 208.251 210.878 206.869 208.316ZM183.248 210.518C183.506 211.009 183.606 211.568 183.533 212.118C183.46 212.667 183.218 213.181 182.84 213.589C182.463 213.996 181.967 214.278 181.423 214.394C180.878 214.511 180.311 214.456 179.798 214.239C179.286 214.022 178.854 213.652 178.56 213.181C178.267 212.709 178.127 212.159 178.161 211.605C178.194 211.052 178.398 210.522 178.745 210.088C179.093 209.655 179.566 209.339 180.101 209.184C180.697 208.964 181.356 208.979 181.941 209.227C182.526 209.475 182.994 209.937 183.248 210.518ZM121.314 222.987C120.698 217.906 114.936 215.599 110.45 216.064C105.964 216.53 100.776 220.002 101.223 225.083C101.669 230.164 107.601 232.62 112.151 232.133C116.701 231.646 121.952 228.153 121.314 222.987ZM73.7534 235.689C73.8597 237.806 71.6273 239.013 69.8201 239.098C68.0129 239.182 65.7167 238.081 65.5679 236.007C65.419 233.932 67.694 232.704 69.4799 232.641C71.2658 232.577 73.6683 233.551 73.7534 235.605V235.689Z" fill="#CCE0FF"/>
<path fill-rule="evenodd" clip-rule="evenodd" d="M191.07 27.6489C191.076 27.3431 191.143 27.0415 191.267 26.7619C191.392 26.4823 191.571 26.2304 191.795 26.0212C192.019 25.8119 192.283 25.6496 192.571 25.5437C192.859 25.4378 193.166 25.3906 193.473 25.4048C194.037 25.4048 194.577 25.6279 194.976 26.0249C195.375 26.4219 195.599 26.9604 195.599 27.5218C195.599 28.0833 195.375 28.6218 194.976 29.0188C194.577 29.4158 194.037 29.6389 193.473 29.6389C192.898 29.6559 192.336 29.4631 191.893 29.0966C191.451 28.7301 191.158 28.2152 191.07 27.6489Z" fill="#CCE0FF"/>
</g>
<defs>
<clipPath id="clip0_1_5151">
<rect width="262" height="250" fill="white"/>
</clipPath>
</defs>
</svg>
