<svg width="359" height="364" viewBox="0 0 359 364" fill="none" xmlns="http://www.w3.org/2000/svg">
<g clip-path="url(#clip0_1_1905)">
<path fill-rule="evenodd" clip-rule="evenodd" d="M187.23 364C95.1284 364 19.9993 349.37 19.9993 331.427C19.9993 313.484 95.0466 299.056 187.23 299.056C279.413 299.056 354.379 313.484 354.379 331.387C354.379 349.29 279.25 364 187.23 364Z" fill="#CCE0FF"/>
<path fill-rule="evenodd" clip-rule="evenodd" d="M204.121 285.599C195.451 272.626 163.632 266.281 145.678 258.926C121.14 248.904 46.2969 210.431 30.3876 216.371C13.0879 222.797 9.57071 248.702 22.7398 263.17C48.3826 291.459 115.578 309.483 153.244 318.01C169.849 321.768 235.939 323.789 215.695 291.701C215.695 291.701 203.221 283.861 202.853 283.618L204.121 285.599Z" fill="#4B4680"/>
<path fill-rule="evenodd" clip-rule="evenodd" d="M144.941 311.18C189.274 291.863 251.929 217.867 297.653 207.602C332.702 199.802 370.164 202.065 342.64 242.478C322.191 272.182 325.218 262.321 319.737 297.965C317.652 311.504 306.405 328.8 291.109 332.68C275.036 336.721 254.301 336.721 240.069 327.467C227.799 319.384 124.164 360.807 139.828 317.283C140.963 314.842 142.726 312.738 144.941 311.18Z" fill="#7872B8"/>
<path fill-rule="evenodd" clip-rule="evenodd" d="M273.114 109.116C308.45 123.018 335.974 174.464 304.974 189.619C281.09 201.379 243.423 265.353 219.947 256.745C206.492 251.895 181.667 181.859 173.856 169.735C168.784 162.057 158.233 142.254 163.631 133.364C178.804 108.227 186.779 113.682 210.991 105.075C230.663 98.2447 254.015 101.518 273.114 109.116Z" fill="#FA7A8D"/>
<path fill-rule="evenodd" clip-rule="evenodd" d="M224.324 79.2097C229.681 97.4764 232.503 96.5469 237.738 106.529C245.468 121.199 198.845 135.909 195.123 122.25C193.16 114.894 194.346 102.043 189.929 95.7791C187.189 92.0206 222.238 83.251 223.629 80.4625C223.792 80.0988 224.324 79.331 224.324 79.2097Z" fill="#E7B6B7"/>
<path fill-rule="evenodd" clip-rule="evenodd" d="M211.767 320.759C224.527 310.373 227.226 319.708 242.767 318.334C243.626 318.334 258.227 314.05 260.108 313.646C266.692 312.232 269.76 313.202 272.377 316.152C277.203 321.608 288.123 344.885 277.203 344.885C266.815 344.885 268.287 340.844 253.073 343.794C245.207 345.662 237.088 346.276 229.026 345.613C222.482 344.764 202.606 344.481 202.606 335.065C202.442 324.558 205.796 325.608 211.767 320.759Z" fill="#FFCE70"/>
<path fill-rule="evenodd" clip-rule="evenodd" d="M150.423 318.9C160.361 315.99 165.187 336.156 150.423 341.248C132.428 347.553 132.142 342.986 114.147 341.248C105.968 340.359 104.332 338.581 96.9291 342.137C94.5162 343.309 83.801 346.542 82.7785 342.137C81.2653 335.51 79.8748 314.939 90.181 314.939C99.6693 314.939 105.109 319.668 119.341 319.668C128.379 319.466 143.266 321.082 150.423 318.9Z" fill="#FFCE70"/>
<path fill-rule="evenodd" clip-rule="evenodd" d="M126.948 33.0995L4.78708 109.601C3.64236 110.317 2.6517 111.249 1.87173 112.343C1.09174 113.438 0.537811 114.674 0.241516 115.98C-0.0547485 117.286 -0.0875549 118.637 0.14505 119.956C0.377655 121.274 0.871063 122.535 1.59708 123.665L149.565 354.423C151.035 356.699 153.357 358.308 156.023 358.899C158.69 359.489 161.485 359.014 163.797 357.576L285.959 281.074C287.108 280.362 288.102 279.432 288.885 278.338C289.668 277.243 290.224 276.007 290.521 274.699C290.818 273.391 290.849 272.039 290.614 270.719C290.378 269.399 289.88 268.139 289.149 267.01L141.181 36.373C139.73 34.0769 137.417 32.4429 134.749 31.8292C132.081 31.2156 129.276 31.6724 126.948 33.0995Z" fill="#4B4680"/>
<path d="M141.475 57.2943L262.461 245.969C264.662 249.401 263.63 253.945 260.158 256.119L151.959 323.866C148.486 326.04 143.888 325.021 141.687 321.59L20.7014 132.915C18.5011 129.483 19.5324 124.939 23.0048 122.765L131.204 55.0182C134.677 52.844 139.275 53.863 141.475 57.2943Z" fill="#7872B8"/>
<path fill-rule="evenodd" clip-rule="evenodd" d="M131.201 55.0027L23.0264 122.694C21.3729 123.748 20.203 125.4 19.7672 127.296C19.3315 129.193 19.6646 131.182 20.6953 132.838L249.354 262.685L260.151 255.936C261.818 254.882 262.994 253.22 263.423 251.311C263.852 249.403 263.5 247.404 262.442 245.752L141.466 57.2658C140.407 55.6219 138.732 54.4602 136.807 54.0359C134.883 53.6116 132.866 53.9593 131.201 55.0027Z" fill="#958FD3"/>
<path d="M98.8689 60.8385L101.124 64.3546C101.631 65.1464 101.393 66.1951 100.592 66.6968L59.3782 92.5021C58.5769 93.0038 57.5156 92.7686 57.0079 91.9768L54.7532 88.4607C54.2455 87.6689 54.4834 86.6202 55.2848 86.1184L96.4986 60.3132C97.2999 59.8115 98.3612 60.0466 98.8689 60.8385Z" fill="#7872B8"/>
<path fill-rule="evenodd" clip-rule="evenodd" d="M46.5416 91.6162C46.1173 91.8816 45.7501 92.2269 45.4608 92.6325C45.1716 93.0381 44.9661 93.4961 44.8559 93.9802C44.7458 94.4643 44.7332 94.9651 44.819 95.4539C44.9047 95.9428 45.087 96.4103 45.3555 96.8295C45.6241 97.2488 45.9736 97.6117 46.384 97.8975C46.7945 98.1833 47.2579 98.3864 47.7478 98.4952C48.2377 98.604 48.7445 98.6165 49.2393 98.5318C49.734 98.447 50.2071 98.2669 50.6314 98.0015C51.4882 97.4656 52.0946 96.6153 52.317 95.6376C52.5395 94.6599 52.3597 93.635 51.8174 92.7882C51.2751 91.9415 50.4145 91.3423 49.4251 91.1225C48.4357 90.9027 47.3985 91.0803 46.5416 91.6162Z" fill="#7872B8"/>
<path d="M230.456 287.285L236.717 297.048C237.527 298.311 237.147 299.984 235.869 300.784L205.814 319.603C204.535 320.403 202.842 320.028 202.032 318.765L195.772 309.002C194.962 307.739 195.342 306.066 196.62 305.266L226.675 286.447C227.954 285.647 229.646 286.022 230.456 287.285Z" fill="#3C3869"/>
<path d="M264.806 268.836L268.396 274.435C268.868 275.17 268.647 276.144 267.903 276.61L250.664 287.403C249.92 287.869 248.935 287.651 248.463 286.916L244.873 281.317C244.402 280.582 244.623 279.608 245.367 279.142L262.605 268.349C263.349 267.883 264.335 268.101 264.806 268.836Z" fill="#3C3869"/>
<path d="M184.119 319.33L187.709 324.928C188.18 325.663 187.959 326.637 187.215 327.103L169.977 337.897C169.232 338.363 168.247 338.144 167.776 337.409L164.186 331.811C163.714 331.075 163.935 330.102 164.679 329.636L181.918 318.842C182.662 318.376 183.647 318.594 184.119 319.33Z" fill="#3C3869"/>
<path fill-rule="evenodd" clip-rule="evenodd" d="M267.471 168.806C257.247 166.543 234.753 168.806 229.068 171.998C221.87 175.797 204.53 175.07 195.737 175.474C192.792 175.474 188.13 172.039 181.586 174.747C177.128 176.606 161.137 173.938 161.137 176.363C161.137 185.82 171.444 182.183 177.496 182.465C177.496 182.465 182.895 180.566 176.76 183.152C170.626 185.739 173.693 191.235 153.162 197.944C140.525 201.985 138.889 211.603 147.641 208.128C150.299 207.037 167.558 201.985 168.376 199.641C172.098 199.641 163.223 203.682 160.933 206.632C157.299 210.163 154.038 214.049 151.199 218.231C150.136 220.777 145.228 227.647 151.199 226.92C153.939 226.596 158.602 216.372 164.655 212.896C178.56 204.814 170.748 213.664 165.554 218.999C163.877 220.737 154.185 236.983 161.219 234.396C169.767 231.244 180.564 206.349 180.932 217.867C180.932 217.867 169.235 245.712 180.932 236.013C184.735 232.82 185.022 217.261 192.915 212.411C206.616 203.803 202.73 201.742 206.82 198.388C212.505 193.7 248.045 200.207 256.224 200.207C261.296 200.207 283.258 199.277 283.258 192.124C283.135 185.901 274.342 170.301 267.471 168.806Z" fill="#FCD2D3"/>
<path fill-rule="evenodd" clip-rule="evenodd" d="M135.127 179.434C140.157 183.193 123.634 189.74 117.541 193.377C116.355 194.104 108.298 198.429 110.752 199.883C111.774 200.449 134.227 185.658 140.975 187.113C147.723 188.568 139.462 192.205 138.071 192.852C129.646 196.893 114.391 206.35 116.845 206.996C119.299 207.643 134.881 197.58 138.644 196.408C140.402 195.883 144.656 195.317 143.224 198.671C141.793 202.025 134.227 205.865 128.624 208.774C127.929 209.138 118.399 214.27 118.931 215.16C119.463 216.049 120.035 215.725 122.039 215.766C126.129 215.766 136.435 210.512 139.666 212.452C142.897 214.392 125.597 220.858 119.217 223.08C116.068 224.131 107.234 228.213 106.948 230.961C107.854 234.399 109.438 237.627 111.61 240.458C113.942 244.257 119.258 259.371 117.336 264.383C115.414 269.394 114.841 269.717 108.134 268.868C98.3595 267.616 96.3556 264.827 93.4518 256.058C91.8568 251.289 84.8224 225.586 86.9082 221.868C90.998 214.553 89.1985 211.078 88.9531 202.47C88.9531 196.812 80.2419 186.022 93.0429 183.597C94.3516 183.354 98.4413 182.425 99.0957 183.597C99.7501 184.769 96.3555 187.275 95.2922 187.921C93.4518 188.972 91.9386 190.629 94.2289 194.711C96.0693 198.024 99.6274 197.378 103.635 195.196C112.06 190.669 125.107 176.606 136.026 179.636L135.127 179.434Z" fill="#FCD2D3"/>
<path fill-rule="evenodd" clip-rule="evenodd" d="M235.039 47.7684C238.679 50.7994 231.808 49.3849 235.285 50.1124C242.278 51.4864 239.906 80.4221 231.195 75.2089C231.849 76.2192 233.69 92.1015 230.949 94.6879C222.238 102.771 184.122 127.018 175.288 112.308C170.625 104.508 148.05 41.9894 162.037 35.5233C166.781 33.1793 175.901 30.997 182.077 28.7743C186.207 27.279 199.908 23.2377 203.589 24.2481C214.999 27.1578 231.563 32.3307 233.567 45.5861C233.981 46.3611 234.475 47.0923 235.039 47.7684Z" fill="#FCD2D3"/>
<path fill-rule="evenodd" clip-rule="evenodd" d="M149.113 17.297C139.666 16.1654 154.512 32.3306 154.512 35.9274C155.52 42.8045 157.191 49.5708 159.501 56.1339C161.792 60.6602 157.007 44.01 159.501 39.4838C160.483 37.746 162.323 38.1097 170.38 38.1097C182.65 38.1097 195.819 38.1097 205.92 31.0374C211.646 26.9961 216.554 43.1613 219.212 47.4451C223.056 53.4262 222.361 63.6103 224.897 65.2673C229.927 68.2174 226.001 46.5156 236.921 52.133C242.156 54.8003 241.583 41.8681 241.583 38.9988C241.583 30.9162 238.516 14.751 227.555 8.52738C192.792 -10.6284 181.382 21.4191 149.113 17.297Z" fill="#7872B8"/>
<path fill-rule="evenodd" clip-rule="evenodd" d="M219.253 5.05204C204.408 -2.78809 179.296 -2.10107 168.418 11.4777C167.309 13.2537 165.803 14.7558 164.017 15.8694C162.231 16.9831 160.211 17.6787 158.111 17.9034C157.504 18.0644 156.986 18.4571 156.672 18.9951C156.358 19.5331 156.272 20.1725 156.435 20.7727C156.515 21.0646 156.653 21.338 156.84 21.5772C157.028 21.8165 157.261 22.0169 157.527 22.167C157.793 22.3171 158.086 22.414 158.39 22.4521C158.694 22.4902 159.002 22.4689 159.297 22.3892C161.896 22.0379 164.386 21.1332 166.597 19.7377C168.807 18.3422 170.684 16.4891 172.098 14.3066C181.341 2.78891 203.59 2.18271 216.472 8.81045C216.978 9.09305 217.572 9.18226 218.14 9.06114C218.708 8.94002 219.211 8.61699 219.554 8.15338C219.898 7.68977 220.056 7.11784 220.001 6.54615C219.945 5.97445 219.679 5.44277 219.253 5.05204Z" fill="#7872B8"/>
<path fill-rule="evenodd" clip-rule="evenodd" d="M157.416 32.3307C153.326 35.4829 145.515 31.4012 149.932 21.015C150.305 20.5163 150.463 19.8917 150.371 19.2781C150.279 18.6646 149.944 18.112 149.441 17.7416C149.194 17.5601 148.914 17.4286 148.616 17.3548C148.317 17.2809 148.007 17.2661 147.703 17.3111C147.399 17.3562 147.107 17.4603 146.844 17.6174C146.58 17.7745 146.351 17.9815 146.169 18.2265C138.644 34.3918 152.181 42.0298 160.565 35.7658C160.793 35.5615 160.979 35.3147 161.111 35.0396C161.242 34.7646 161.318 34.4665 161.333 34.1625C161.348 33.8586 161.303 33.5546 161.199 33.2681C161.095 32.9815 160.936 32.7179 160.729 32.4923C160.522 32.2668 160.272 32.0837 159.994 31.9535C159.716 31.8233 159.414 31.7486 159.106 31.7336C158.799 31.7185 158.491 31.7636 158.201 31.866C157.911 31.9685 157.644 32.1264 157.416 32.3307Z" fill="#7872B8"/>
<path fill-rule="evenodd" clip-rule="evenodd" d="M297.123 79.2107C299.863 74.8865 300.558 68.3396 295.65 65.2682C293.177 64.0701 290.344 63.8141 287.692 64.5491C285.04 65.2841 282.754 66.9586 281.272 69.2528C279.79 71.5471 279.215 74.3003 279.657 76.9869C280.099 79.6736 281.526 82.1053 283.667 83.8177C288.616 86.9295 294.342 83.5753 297.123 79.2107ZM306.12 97.8006C305.302 98.9322 304.116 101.64 305.507 102.771C306.897 103.903 309.147 102.084 309.924 101.034C310.701 99.9829 312.05 97.2349 310.619 96.0629C309.188 94.8909 306.938 96.6691 306.079 97.8006H306.12ZM333.317 130.131C332.255 130.892 331.355 131.853 330.67 132.959C329.986 134.065 329.529 135.294 329.328 136.575C329.126 137.856 329.184 139.164 329.496 140.424C329.809 141.683 330.371 142.868 331.15 143.912C332.047 145.145 333.171 146.201 334.462 147.024C336.128 147.812 337.984 148.123 339.82 147.923C341.656 147.723 343.398 147.02 344.85 145.892C346.485 144.801 347.767 143.269 348.543 141.477C349.319 139.685 349.556 137.71 349.226 135.789C348.806 134.593 348.214 133.464 347.468 132.435C346.726 131.325 345.759 130.378 344.629 129.654C343.499 128.931 342.23 128.445 340.902 128.229C339.573 128.013 338.214 128.07 336.908 128.397C335.603 128.725 334.381 129.315 333.317 130.131ZM339.534 123.503C333.563 127.868 325.26 129.363 319.412 124.11C314.504 118.896 318.921 110.248 322.929 105.924C327.632 100.549 336.262 96.9924 341.947 103.014C347.631 109.035 345.259 118.492 339.411 123.22L339.534 123.503ZM310.905 76.2201C312.255 74.159 313.155 70.3602 310.578 68.7841C308.002 67.208 304.812 69.4711 303.462 71.5726C302.112 73.6741 301.417 77.5133 303.953 79.1298C306.488 80.7463 309.31 78.0791 310.619 76.018L310.905 76.2201Z" fill="#CCE0FF"/>
</g>
<defs>
<clipPath id="clip0_1_1905">
<rect width="359" height="364" fill="white" transform="matrix(-1 0 0 1 359 0)"/>
</clipPath>
</defs>
</svg>
