<svg width="180" height="164" viewBox="0 0 180 164" fill="none" xmlns="http://www.w3.org/2000/svg">
<g clip-path="url(#clip0_1_1707)">
<path d="M102.83 177.992C130.917 177.992 153.687 156.684 153.687 130.399C153.687 104.114 130.917 82.8057 102.83 82.8057C74.7421 82.8057 51.9727 104.114 51.9727 130.399C51.9727 156.684 74.7421 177.992 102.83 177.992Z" fill="#F1E6F7"/>
<path fill-rule="evenodd" clip-rule="evenodd" d="M109.765 44.6C109.234 47.2923 105.553 55.5109 105.5 57.9552C107.128 56.0069 108.278 48.3728 110.596 47.1152C111.941 47.6466 111.304 49.9669 110.95 51.2245C110.596 52.4821 110.03 54.0408 109.57 55.4223C109.11 56.8039 108.65 58.2209 108.19 59.6202C107.73 61.0195 107.199 62.4188 106.809 63.818C107.567 63.6334 108.298 63.3537 108.986 62.9856L112.207 62.1708C113.392 59.5316 115.852 60.0807 117.621 58.522C117.444 57.8667 116.772 56.7508 116.507 55.9006C116.222 54.9976 116.009 54.0737 115.87 53.1374C115.631 50.6457 115.631 48.1368 115.87 45.6451C114.871 46.0213 113.796 46.1489 112.737 46.017C110.773 45.7691 110.03 44.4052 109.765 44.6Z" fill="#CCE0FF"/>
<path d="M131.833 173.21C151.418 173.21 167.295 147.12 167.295 114.936C167.295 82.7523 151.418 56.6621 131.833 56.6621C112.248 56.6621 96.3711 82.7523 96.3711 114.936C96.3711 147.12 112.248 173.21 131.833 173.21Z" fill="#7872B8"/>
<path fill-rule="evenodd" clip-rule="evenodd" d="M65.7905 88.8281L65.3127 89.1115C63.0796 90.09 61.0413 91.4641 59.2962 93.1677C57.6904 94.7449 56.189 96.4253 54.8015 98.198C54.6496 98.4666 54.445 98.7016 54.1999 98.8888C53.9966 100.839 53.3942 102.726 52.4303 104.433C52.186 104.987 51.8771 105.51 51.5102 105.991C51.3219 107.447 51.3637 108.924 51.634 110.366C52.1948 113.183 53.3403 115.85 54.9962 118.195C55.729 119.297 56.5392 120.344 57.4205 121.33L60.1279 124.2C60.6839 124.564 61.1999 124.985 61.6674 125.457L65.9851 128.841C78.1773 137.697 98.598 144.782 113.905 142.656C116.692 142.326 119.41 141.554 121.956 140.371C123.391 139.583 124.579 138.412 125.389 136.988C125.389 136.847 125.389 136.811 125.495 136.669C126.257 134.674 126.344 132.484 125.743 130.435C125.583 129.976 125.447 129.509 125.336 129.035L124.026 125.759C124.026 125.617 123.779 125.28 123.743 125.174C122.97 123.599 122.102 122.073 121.142 120.604L115.09 111.217C114.83 110.627 114.478 110.083 114.046 109.605L112.666 107.426C112.324 106.971 112.017 106.492 111.746 105.991L111.25 105.194C110.755 104.502 110.346 103.753 110.029 102.963H109.728C109.304 102.963 108.879 103.104 108.596 102.821C107.782 101.971 110.366 96.7102 110.631 96.0725C111.682 94.0414 112.621 91.9541 113.445 89.82C112.135 92.0872 110.985 94.7264 109.905 97.2061C109.304 98.5013 108.618 99.7556 107.853 100.961C106.632 102.945 106.632 103.512 104.827 103.157C104.207 100.058 109.339 92.3175 109.268 89.696C109.056 90.5285 107.145 95.0098 106.685 96.0194C106.225 97.029 104.296 101.121 103.146 101.475C102.842 101.362 102.582 101.155 102.404 100.885C102.226 100.614 102.138 100.293 102.155 99.9692C102.43 97.9448 102.959 95.9631 103.73 94.071C103.271 92.8768 102.632 91.7599 101.836 90.7588L98.5803 85.6576L98.3502 85.2502L96.8461 82.8945C96.4739 82.4064 96.148 81.8846 95.8729 81.3358L94.9881 80.0427C93.5724 77.5453 88.7947 71.1865 84.8308 71.1865C83.0613 71.1865 82.902 72.5858 83.2383 74.729C84.0252 78.1154 85.0845 81.4326 86.4058 84.648C87.4852 87.1277 95.8729 106.682 95.8729 107.887C95.0943 107.887 93.3424 105.761 92.5638 105.017L89.5202 101.74C87.7506 99.7567 85.1494 97.0998 83.309 95.3109C81.2242 93.1511 78.8405 91.3019 76.2308 89.82C73.8809 88.4811 71.1672 87.9229 68.4802 88.2259C67.6485 88.3499 66.4098 88.7927 65.7905 88.8281Z" fill="#F9A7B6"/>
<path fill-rule="evenodd" clip-rule="evenodd" d="M42.0091 162.157C42.369 161.854 42.6561 161.474 42.8491 161.045C43.0421 160.615 43.136 160.148 43.1239 159.677C43.2655 156.967 45.5128 159.111 46.663 152.823C48.2805 152.084 49.5608 150.762 50.2494 149.121C50.9379 147.48 50.9842 145.64 50.3791 143.966C49.7467 142.471 48.6397 141.226 47.2293 140.424C45.1589 139.273 43.9733 139.662 41.4782 139.662C41.6104 138.886 41.8057 138.122 42.0622 137.377C42.2745 136.545 42.3276 135.801 42.5754 135.004C43.7256 131.586 46.3622 131.462 47.884 128.876C48.6404 127.535 49.0765 126.038 49.1581 124.501C49.3193 122.675 49.248 120.835 48.9457 119.027C48.8042 118.266 48.4326 117.61 48.3087 116.813C48.1694 115.935 48.1101 115.046 48.1318 114.156C48.1318 113.2 48.1318 112.261 48.2733 111.376C48.4503 108.825 47.9017 110.614 50.4499 107.833C50.9352 107.332 51.2985 106.726 51.5116 106.062V106.186C51.8786 105.704 52.1875 105.181 52.4318 104.627C53.3957 102.92 53.9981 101.033 54.2013 99.0832C53.9359 98.9769 54.0598 98.7466 54.0598 98.3569C54.108 97.4482 54.0366 96.5371 53.8474 95.6469C53.6133 94.6884 53.2812 93.7566 52.8565 92.8661C48.875 84.1516 40.8766 86.2062 38.9832 84.6121C39.1601 84.1693 43.177 80.3965 39.2309 77.7928C38.0099 76.978 36.1342 76.3935 34.2408 75.0651L32.7897 73.9492C31.4272 72.8333 28.4366 69.4148 31.6572 67.6436C35.851 65.3232 40.6996 68.6886 42.0445 65.5004C43.2478 62.6664 40.2749 62.4715 39.4432 60.8597C38.0897 58.2324 37.7678 55.193 38.5408 52.34C39.4162 49.9633 40.9284 47.8736 42.9116 46.3001C44.8336 44.7119 46.9363 43.3564 49.1758 42.2616C50.0606 41.3937 56.6964 39.2505 53.7766 36.6468C51.7416 34.8755 47.9194 34.291 44.5219 34.291C39.467 34.1531 34.4327 34.9889 29.693 36.7531C28.3436 37.2752 27.051 37.934 25.8354 38.7192C23.7959 39.8831 21.951 41.3593 20.3675 43.0941C11.0419 53.7216 11.9621 70.5484 14.1917 83.7265C14.6695 86.5073 14.9703 89.3767 16.5452 91.3251C17.417 92.1515 18.0836 93.1705 18.4917 94.3008C18.9988 97.2251 18.724 100.232 17.6954 103.015C17.1473 104.072 16.4825 105.065 15.7135 105.973C13.6431 109.002 14.0855 114.404 16.1205 117.911C17.3343 119.984 19.1067 121.672 21.2345 122.782C24.7736 124.642 30.2416 123.615 27.3041 130.009C26.3132 132.188 24.5082 134.473 24.8444 137.484C25.0783 139.359 25.9223 141.106 27.2464 142.453C28.5704 143.801 30.3007 144.675 32.1704 144.941C33.3737 145.082 36.0457 144.746 36.842 145.313C36.842 145.879 36.5058 146.234 36.2404 146.623C35.4224 147.695 34.8734 148.948 34.6394 150.277C34.4054 151.605 34.4932 152.97 34.8955 154.257C35.1996 154.728 35.3745 155.27 35.4025 155.83C35.4304 156.39 35.3105 156.947 35.0547 157.446C34.5948 158.429 34.4466 159.529 34.6301 160.598C34.8267 161.358 35.231 162.047 35.7976 162.589C36.3642 163.131 37.0705 163.504 37.8373 163.666C38.604 163.827 39.4006 163.772 40.1376 163.506C40.8746 163.239 41.5228 162.772 42.0091 162.157Z" fill="#7872B8"/>
<path fill-rule="evenodd" clip-rule="evenodd" d="M66.8206 23.717C66.6613 24.4963 66.3782 25.2048 66.2012 26.055C64.5909 34.433 68.9617 37.8338 66.7852 43.7674C65.6704 46.7431 62.379 50.5336 65.635 51.4015C66.6967 51.6849 68.8202 51.6672 69.1741 53.6687C69.7757 57.3352 72.8371 68.5472 75.9161 69.0962C76.9989 69.2705 78.0931 69.3652 79.1898 69.3796C81.5256 69.3796 83.7729 69.1671 86.0379 69.2202C86.1972 68.6003 86.0379 65.9966 86.1972 65.0224C86.5688 60.6474 87.9667 56.9101 88.0552 53.1196C88.0552 52.0923 87.949 49.5771 89.4355 50.2148C90.3026 50.5867 90.8334 52.0923 91.0281 53.2259C91.5766 56.3256 89.8779 60.3109 91.1519 61.3736C92.3552 60.7891 93.3639 57.1935 94.1248 55.5639C95.0803 53.5802 96.3367 51.9152 97.31 49.8605C98.2832 47.8059 99.2742 45.8221 100.283 43.9446C100.743 43.1121 102.583 38.7725 104.317 39.6227C105.432 40.1718 103.15 45.4678 102.813 46.2649L100.247 52.2694C102.017 51.0296 104.494 40.7563 106.777 39.7113L106.317 29.2255C106.069 26.0019 105.096 23.1147 102.176 22.5479C100.652 22.3257 99.0983 22.6656 97.8055 23.5044C96.6995 24.1603 95.7843 25.0946 95.1511 26.2144C93.6824 28.4639 92.4968 31.1208 88.6215 29.8986C86.9581 29.3849 86.8519 28.1274 86.4095 26.6572C85.2593 23.0262 83.2951 18.8637 79.9507 16.9862C78.6187 16.3428 77.1346 16.0816 75.6633 16.2317C74.1919 16.3818 72.791 16.9373 71.6161 17.8364C68.0593 19.9796 67.8823 22.5834 66.8206 23.717Z" fill="#CCE0FF"/>
<path fill-rule="evenodd" clip-rule="evenodd" d="M54.2531 98.889C54.4982 98.7017 54.7029 98.4667 54.8547 98.1982C56.2422 96.4254 57.7436 94.7451 59.3494 93.1678C61.0946 91.4642 63.1328 90.0901 65.3659 89.1117L65.8437 88.8283C65.0582 88.2037 64.3189 87.5229 63.6317 86.7914C59.3671 81.9913 69.2589 82.0267 70.2499 78.0768C70.2499 77.8289 67.2593 67.0951 65.8968 65.6781C65.8968 64.1548 68.0202 62.4722 66.463 61.1614C65.6136 60.4706 63.6671 61.9408 61.8268 60.5061C57.0844 56.8396 59.2609 44.5649 49.1745 42.1914C46.9349 43.2862 44.8323 44.6417 42.9103 46.2298C40.927 47.8034 39.4149 49.8931 38.5395 52.2698C37.7665 55.1228 38.0884 58.1621 39.4419 60.7895C40.2736 62.4013 43.2465 62.5607 42.0432 65.4301C40.6983 68.6184 35.8497 65.253 31.6559 67.5733C28.4353 69.3446 31.4259 72.7631 32.7884 73.879L34.2394 74.9949C36.1329 76.3233 38.0086 76.9078 39.2296 77.7226C43.1757 80.3263 39.2296 84.0991 38.9818 84.5419C40.8753 86.136 48.8737 84.0813 52.8551 92.7959C53.2845 93.709 53.6167 94.6648 53.8461 95.6476C54.041 96.4893 54.1302 97.3521 54.1115 98.2159C54.1115 98.5524 53.9877 98.7827 54.2531 98.889Z" fill="#FCD2D3"/>
<path fill-rule="evenodd" clip-rule="evenodd" d="M66.6763 13.7626C66.6283 14.8698 66.6875 15.9791 66.8532 17.0748C67.0125 17.9073 67.4195 19.1649 68.1981 19.4306C68.9767 19.6963 69.4014 17.6593 70.9409 15.6047C72.7104 13.3198 77.0636 11.088 80.4611 12.0622C83.8586 13.0364 85.7698 16.3132 87.0261 19.1472C88.0702 21.4144 88.2648 22.8668 88.7957 24.1952C89.3103 24.9423 90.0662 25.4893 90.9363 25.7441C91.8065 25.999 92.7377 25.9461 93.5735 25.5945C94.883 25.0986 96.104 23.1502 96.8295 22.052C97.2136 21.3598 97.6964 20.7273 98.2628 20.1745C100.032 18.4033 103.571 17.3405 105.695 19.0055C110.561 22.6897 106.12 36.2043 110.738 41.1815C111.382 41.8325 112.174 42.3176 113.046 42.5952C113.918 42.8728 114.845 42.9347 115.746 42.7756C116.626 42.6842 117.465 42.3534 118.17 41.8191C118.655 41.4419 119.073 40.9871 119.409 40.473C119.904 39.8353 119.639 40.101 119.816 40.2604C119.998 39.8501 120.157 39.4303 120.294 39.0028C123.302 31.7584 124.665 24.4432 122.063 16.6852C121.536 15.1158 120.867 13.598 120.064 12.1508C119.133 10.5605 118.048 9.06549 116.825 7.68723C113.205 3.67583 108.297 1.05696 102.952 0.283427C100.699 -0.0443453 98.4102 -0.0443453 96.157 0.283427C92.9011 0.9565 90.5652 1.25761 87.3093 2.05467C85.7875 2.44434 83.1862 3.15284 81.7529 3.6665C80.8681 3.98533 79.9833 4.2333 79.1693 4.60526L77.966 5.11892C77.5334 5.27553 77.1134 5.46501 76.7096 5.68572C74.1244 6.83367 71.7357 8.38179 69.6314 10.2732C68.4786 11.2829 67.4826 12.459 66.6763 13.7626Z" fill="#FFCE70"/>
<path fill-rule="evenodd" clip-rule="evenodd" d="M111.375 67.8388C106.331 72.5149 105.836 75.1009 102.385 79.2102C101.713 80.0072 100.934 80.6449 100.386 81.2825C99.5185 82.3099 99.3062 83.4257 101.306 83.2663C105.482 82.5578 107.145 76.9076 109.57 76.695C109.6 77.3704 109.473 78.0437 109.198 78.6611C108.868 79.6939 108.447 80.6956 107.942 81.6545C107.494 82.6526 107.121 83.6828 106.827 84.7365C105.907 87.9956 104.845 90.8295 103.801 93.9824C103.031 95.8745 102.501 97.8561 102.226 99.8806C102.21 100.204 102.297 100.525 102.475 100.796C102.653 101.067 102.913 101.273 103.217 101.386C104.296 101.032 106.137 97.1706 106.756 95.9307C107.375 94.6909 109.127 90.4399 109.34 89.6074C109.34 92.2288 104.279 99.9692 104.898 103.069C106.668 103.423 106.668 102.856 107.924 100.873C108.644 99.6923 109.288 98.4677 109.853 97.206C110.968 94.7263 112.118 92.0871 113.392 89.8199C112.569 91.954 111.629 94.0413 110.578 96.0724C110.295 96.7101 107.729 101.971 108.543 102.821C108.826 103.104 109.251 103.033 109.676 102.963C112.702 100.146 114.489 92.6539 117.126 89.4125C117.126 91.0598 111.251 100.164 113.126 100.678L114.117 100.536C115.044 99.7251 115.791 98.7297 116.312 97.6134L121.62 87.3579C122.952 85.1153 124.049 82.7411 124.894 80.2729C125.357 78.6212 125.712 76.9408 125.956 75.2426C126.487 71.7001 127.141 71.7001 124.859 70.1414C123.266 69.0787 122.31 66.8646 121.213 65.7133C118.647 62.9856 113.569 65.6779 111.375 67.8388Z" fill="#FCFCFF"/>
<path fill-rule="evenodd" clip-rule="evenodd" d="M66.6769 13.7624C65.6639 15.2716 65.0546 17.0158 64.9074 18.8281C64.813 20.3219 65.1184 21.8138 65.7922 23.15C66.1107 23.5928 66.1638 23.7345 66.907 23.7168C67.9687 22.5832 68.1457 19.9794 71.6671 17.8362C72.8365 16.9472 74.2278 16.3976 75.6886 16.2477C77.1494 16.0977 78.6232 16.3531 79.9486 16.986C83.3284 18.8635 85.2573 23.0083 86.4429 26.657C86.956 28.1803 86.9914 29.3847 88.6548 29.8984C92.5301 31.1206 93.7157 28.4637 95.1845 26.2142C95.8177 25.0944 96.7328 24.1601 97.8388 23.5042C99.1316 22.6654 100.685 22.3255 102.21 22.5477C105.129 23.1145 106.103 26.0017 106.35 29.2253C106.598 32.449 105.943 35.3893 106.35 37.5856C107.501 44.1215 111.075 51.5961 118.295 43.9444C119.045 42.8126 119.595 41.5605 119.923 40.2425C119.746 40.0831 119.923 39.8174 119.516 40.455C119.18 40.9691 118.761 41.424 118.277 41.8012C117.571 42.3354 116.733 42.6662 115.853 42.7576C114.952 42.9168 114.025 42.8549 113.153 42.5773C112.281 42.2996 111.489 41.8145 110.845 41.1635C106.226 36.1863 110.668 22.6717 105.802 18.9875C103.608 17.3226 100.175 18.4384 98.3697 20.1566C97.8033 20.7094 97.3204 21.3418 96.9363 22.0341C96.2108 23.1854 94.9898 25.1337 93.6803 25.5766C92.8446 25.9282 91.9133 25.981 91.0432 25.7262C90.1731 25.4713 89.4171 24.9244 88.9025 24.1773C88.3186 22.8488 88.1239 21.3964 87.133 19.1292C85.8235 16.3307 83.8416 13.107 80.5679 12.0443C77.2943 10.9815 72.8173 13.231 71.0477 15.5867C69.3313 17.5882 69.1012 19.4835 68.1988 19.4835C67.2963 19.4835 67.0132 17.9602 66.8539 17.1277C66.6848 16.0145 66.6255 14.8872 66.6769 13.7624Z" fill="#F9C45A"/>
<path fill-rule="evenodd" clip-rule="evenodd" d="M108.987 62.9852C108.138 66.543 106.697 69.9323 104.723 73.0105L101.626 77.102C100.497 78.3921 99.4682 79.7658 98.5469 81.2113C99.007 81.9907 99.5909 82.8586 100.122 83.7265L104.776 90.9178C105.619 88.9171 106.294 86.8493 106.793 84.7361C107.087 83.6824 107.46 82.6522 107.908 81.6541C108.414 80.6952 108.834 79.6935 109.164 78.6607L108.633 79.1744C103.997 84.4881 104.28 82.4689 101.785 83.1066C100.016 83.5317 98.9185 82.9649 100.352 81.3353C100.9 80.6977 101.679 80.06 102.351 79.263C105.891 75.1537 106.298 72.5677 111.341 67.8916L113.393 65.8192L120.702 60.8952C119.64 54.4655 111.588 61.1254 108.987 62.9852Z" fill="#7872B8"/>
<path fill-rule="evenodd" clip-rule="evenodd" d="M106.952 63.34C106.952 63.4285 105.43 66.6876 104.882 67.8743C103.565 70.5401 101.898 73.018 99.9269 75.2427L97.2017 78.6789C96.8301 79.3874 95.9631 80.0782 95.6445 80.8221C95.9197 81.3709 96.2455 81.8928 96.6178 82.3808L98.1042 84.7366C98.1927 84.8606 98.2635 85.02 98.352 85.144L101.608 90.3337C101.962 90.8651 103.731 92.105 103.749 92.902L104.51 90.5817L99.9269 83.2487C99.3783 82.3631 99.5729 82.6111 99.1129 81.8495C99.9198 80.4725 100.837 79.1634 101.856 77.935L105.059 73.7372C107.076 70.85 110.827 65.7134 111.801 62.2949C110.212 62.7623 108.592 63.1116 106.952 63.34Z" fill="#7872B8"/>
<path fill-rule="evenodd" clip-rule="evenodd" d="M118.418 55.847C117.533 56.3607 116.347 56.7504 115.374 57.2817C114.398 57.6919 113.613 58.4579 113.18 59.425C113.18 60.2397 113.304 61.0014 113.905 61.3202C114.878 61.8161 117.781 60.0626 119.904 60.3637C120.48 60.4636 121.024 60.6987 121.491 61.0497C121.959 61.4007 122.337 61.8576 122.594 62.3829C123.389 63.8685 124.545 65.1295 125.956 66.0494C126.469 66.3151 127.23 66.4037 127.725 66.6162C129.552 66.714 131.384 66.5771 133.176 66.2088C134.033 65.999 134.926 65.9807 135.792 66.1552C136.657 66.3297 137.474 66.6927 138.183 67.2184C142.236 69.0782 141.882 62.3475 141.882 59.3718C141.784 58.22 141.432 57.1043 140.851 56.1056C140.269 55.1069 139.473 54.2502 138.52 53.5976C136.538 52.2415 134.275 51.3514 131.902 50.9938C129.328 50.7454 126.742 51.309 124.505 52.6057C122.584 53.8786 120.546 54.9641 118.418 55.847Z" fill="#F9A7B6"/>
<path fill-rule="evenodd" clip-rule="evenodd" d="M86.0015 69.0783C85.9214 69.7845 85.9214 70.4975 86.0015 71.2038C86.2669 71.3454 86.7093 71.4871 87.0632 71.6466C87.416 71.8648 87.7825 72.06 88.1603 72.2311C91.1004 72.9631 93.7145 74.6514 95.5925 77.0311C96.1056 77.6511 96.1056 78.0053 96.6542 78.8024C96.8665 79.1035 95.6101 80.0068 95.9641 79.9714C99.7789 76.7266 102.892 72.7367 105.113 68.2458C105.661 67.0413 106.705 63.8354 106.741 63.7645C107.13 62.3652 107.661 60.9482 108.121 59.5667C108.581 58.1851 109.023 56.8035 109.501 55.3688C109.979 53.9341 110.474 52.588 110.881 51.171C111.288 49.754 111.872 47.6285 110.527 47.0617C108.209 48.3193 106.988 55.9179 105.431 57.9017C105.431 55.4574 108.97 48.8684 109.466 46.1761C109.757 45.5176 109.948 44.819 110.032 44.1037C110.156 43.1472 109.89 42.5273 109.094 42.3325C108.608 42.6467 108.216 43.0876 107.962 43.6078L105.82 48.5141C105.092 50.784 104.187 52.993 103.113 55.1208C103.113 53.509 106.351 46.4063 107.272 43.2358C107.714 41.7125 108.422 40.2424 106.723 39.5693C104.44 40.6144 102.034 50.8876 100.193 52.1274L102.759 46.1229C103.095 45.3259 105.378 40.0298 104.263 39.4808C102.494 38.6306 100.724 43.0232 100.229 43.8026C99.22 45.6801 98.1937 47.717 97.2558 49.7186C96.318 51.7201 95.0262 53.4382 94.0706 55.422C93.3097 57.0515 92.3011 60.7357 91.0978 61.2316C89.8237 60.0803 91.5225 56.1836 90.9739 53.0839C90.7793 51.9503 90.2484 50.4448 89.3813 50.0728C87.8949 49.4352 88.0188 51.9503 88.0011 52.9776C88.0011 56.7681 86.5146 60.5054 86.143 64.8804C86.09 65.9077 86.1607 68.5115 86.0015 69.0783Z" fill="#FCFCFF"/>
</g>
<defs>
<clipPath id="clip0_1_1707">
<rect width="180" height="164" rx="20" fill="white"/>
</clipPath>
</defs>
</svg>
