<svg width="480" height="364" viewBox="0 0 480 364" fill="none" xmlns="http://www.w3.org/2000/svg">
<g clip-path="url(#clip0_1_3660)">
<path fill-rule="evenodd" clip-rule="evenodd" d="M471.164 195.709C423.609 155.647 338.654 131.078 277.876 126.414C243.759 123.816 199.763 137.713 218.048 179.653C226.915 200.059 257.32 211.452 292.296 220.56C274.255 219.496 255.724 219.37 236.334 219.934C219.644 220.435 117.937 222.469 144.292 269.667C152.392 284.189 184.177 297.116 214.029 309.322C187.091 308.383 158.006 306.192 144.752 305.785C139.45 305.994 134.433 308.29 130.754 312.191C127.075 316.092 125.02 321.295 125.02 326.708C125.02 332.121 127.075 337.324 130.754 341.225C134.433 345.126 139.45 347.422 144.752 347.631C172.948 348.758 271.494 360.463 292.019 339.963C328.56 303.939 240.016 274.643 222.282 267.319C219.49 266.193 216.146 264.722 212.74 263.094C242.781 260.958 272.938 261.199 302.942 263.814C359.855 268.759 375.686 274.487 427.843 295.457C448.798 303.907 469.293 293.954 467.36 270.856C460.948 194.05 311.256 191.609 263.824 167.728C308.863 165.099 412.227 201.249 440.115 223.157C443.683 227.358 448.741 229.94 454.175 230.336C459.61 230.732 464.976 228.91 469.093 225.27C473.211 221.63 475.742 216.471 476.13 210.927C476.519 205.383 474.732 199.909 471.164 195.709Z" fill="#EBF5FF"/>
<path fill-rule="evenodd" clip-rule="evenodd" d="M249.894 257.21C246.656 261.03 244.232 265.496 242.777 270.324C241.613 275.377 242.076 280.678 244.096 285.441C225.104 293.548 202.922 307.632 208.567 330.636C209.416 334.204 210.87 337.594 212.863 340.652C210.865 342.675 209.626 345.35 209.363 348.21C209.099 351.069 209.827 353.933 211.421 356.301C215.348 363.249 221.76 362.56 228.449 363.061C231.811 363.333 235.194 363.079 238.481 362.31C246.734 360.714 245.476 360.057 253.822 361.528C255.11 361.778 256.215 362.404 257.503 362.748C259.603 363.328 261.816 363.328 263.916 362.748C287.877 365.033 313.71 362.748 328.836 362.498L339.544 362.279C342.274 362.529 345.281 362.498 347.521 362.529C352.982 362.529 358.474 362.529 363.935 362.341C372.74 362.154 381.73 361.684 390.535 361.684C396.671 361.684 403.267 362.341 409.404 362.654C413.239 362.842 417.104 363.03 420.94 363.124C424.595 363.598 428.307 363.046 431.678 361.528H431.923C432.66 361.121 433.304 360.776 434.009 360.338C440.637 356.05 439.962 347.443 435.267 342.06C433.59 340.11 431.509 338.564 429.174 337.536C426.839 336.507 424.309 336.022 421.768 336.113C419.808 335.992 417.865 335.667 415.969 335.143C418.25 330.409 420.079 325.462 421.43 320.37C434.531 313.641 429.929 293.422 426.738 282.124C425.001 275.897 422.952 269.765 420.602 263.752C419.099 259.724 417.378 255.785 415.448 251.952C412.518 246.78 409.194 241.851 405.507 237.211C402.024 232.699 399.059 227.795 396.671 222.594C391.701 211.452 388.663 198.181 385.411 186.319C383.392 178.475 380.913 170.762 377.986 163.221C384.92 153.832 385.933 141.907 382.282 128.167C376.422 106.008 365.346 87.6669 344.299 78.0896C337.541 75.1704 330.509 72.9578 323.313 71.4857C318.659 70.6945 314.102 69.3933 309.722 67.6047C309.082 67.3744 308.504 66.9937 308.035 66.4935C307.566 65.9933 307.219 65.3876 307.022 64.7252C306.325 61.5693 305.934 58.3508 305.856 55.1166C304.506 39.9056 298.738 30.0779 285.484 22.2533C268.487 12.5196 252.962 13.1768 235.628 20.751C225.503 25.1954 212.709 33.6773 202.063 34.8353C196.364 35.2423 190.638 34.9586 185.005 33.9902C177.979 33.02 171.014 31.7993 163.927 31.2673C144.966 29.8276 129.135 33.865 114.5 46.76C111.626 49.287 109.289 52.3869 107.632 55.8693C105.975 59.3517 105.034 63.143 104.867 67.01C104.406 72.8315 105.081 78.653 104.867 84.4745C104.222 101.157 93.7295 111.422 80.8436 120.468C76.4629 123.619 72.7849 127.679 70.0512 132.383C67.3175 137.087 65.5899 142.327 64.9817 147.76C64.1367 153.054 64.7375 158.484 66.7184 163.453C68.6992 168.422 71.9835 172.738 76.2108 175.928C85.9059 182.626 98.4543 191.578 105.91 200.967C109.016 204.447 110.997 208.818 111.586 213.486C111.852 219.586 112.642 225.65 113.948 231.608C117.438 242.031 123.197 251.511 130.792 259.338C148.157 278.681 174.451 270.199 194.148 259.933C204.342 254.448 214.198 248.333 223.662 241.624C230.964 236.585 238.297 231.076 245.845 226.444C248.809 224.545 251.882 222.831 255.049 221.311C254.159 225.943 253.484 230.2 252.932 233.643C251.745 241.488 250.733 249.344 249.894 257.21Z" fill="white"/>
<path fill-rule="evenodd" clip-rule="evenodd" d="M281.527 27.3861C259.099 16.3377 231.21 -18.9668 218.693 13.2392C211.882 30.7037 137.113 -3.72451 130.087 37.6519C129.51 43.789 128.557 49.8833 127.233 55.8989C126.729 56.2645 126.346 56.7768 126.132 57.3689C125.918 57.9609 125.885 58.6049 126.037 59.2165C126.123 59.6302 126.29 60.0218 126.529 60.3677C126.768 60.7135 127.073 61.0065 127.425 61.2288C127.778 61.4511 128.171 61.5982 128.581 61.6612C128.991 61.7241 129.409 61.7017 129.811 61.5952C135.548 59.5608 135.486 43.5673 136.284 38.5596C141.899 3.7558 214.612 40.6879 224.522 15.6492C233.726 -8.01239 256.89 22.4409 279.348 33.5205C280.125 33.8152 280.986 33.7829 281.739 33.4307C282.493 33.0786 283.079 32.4354 283.368 31.6426C283.656 30.8499 283.625 29.9726 283.28 29.2037C282.934 28.4348 282.304 27.8372 281.527 27.5426V27.3861Z" fill="#7872B8"/>
<path fill-rule="evenodd" clip-rule="evenodd" d="M329.665 179.715C316.411 199.934 315.92 220.059 285.27 216.491C269.929 214.675 270.113 200.122 240.813 218.243C217.251 232.797 162.516 280.496 137.726 252.859C101.523 212.516 147.943 213.674 81.4577 167.822C70.1058 159.997 65.9332 138.84 79.8316 129.043C126.957 95.9607 102.627 70.0457 120.729 54.1148C149.047 29.0761 178.255 47.1979 203.076 44.4749C227.897 41.752 249.128 12.2689 280.576 30.7037C306.777 46.0086 287.939 67.667 305.458 76.368C322.24 84.7246 359.088 78.152 372.955 130.827C384.215 173.205 337.887 167.258 329.665 179.715Z" fill="#4B4680"/>
<path fill-rule="evenodd" clip-rule="evenodd" d="M79.5551 168.417C78.7415 166.967 78.1028 165.422 77.6529 163.816C87.7468 149.888 94.5886 133.519 127.939 143.941C145.979 149.231 152.023 150.483 166.474 139.435C135.271 117.526 179.881 63.5047 224.767 103.911C238.788 99.4665 250.447 104.13 250.385 126.164C250.635 134.314 248.579 142.366 244.464 149.356C263.21 141.657 264.13 119.435 234.002 89.2007C209.15 64.162 271.739 59.1542 282.079 47.4173C292.97 34.898 279.501 31.7682 266.554 25.5085C272.496 25.1411 278.442 26.1468 283.95 28.4505C291.712 33.5209 295.547 39.937 286.006 50.9228C273.733 65.1009 219.797 67.1666 237.499 84.9441C274.316 122.001 268.18 151.203 237.99 156.649C236.366 158.045 234.608 159.272 232.744 160.311C232.499 160.999 232.222 161.688 231.916 162.345C229.707 186.288 188.073 177.024 182.09 170.545C180.836 169.198 179.8 167.656 179.022 165.976C171.597 163.065 167.425 155.115 166.535 145.851C130.117 170.545 119.195 124.317 89.0661 157.744C85.5992 161.562 82.4697 165.099 79.5551 168.292V168.417ZM224.982 152.236C223.967 147.355 221.4 142.954 217.68 139.716C212.993 142.099 207.704 142.962 202.523 142.189C202.521 144.372 202.716 146.552 203.106 148.699C210.246 150.703 217.584 151.879 224.982 152.204V152.236ZM197.553 147.103C197.4 145.082 197.4 143.052 197.553 141.031L196.449 140.655C194.365 139.466 192.428 138.027 190.681 136.367C189.178 138.515 187.854 140.786 186.723 143.159C190.466 144.661 194.148 145.976 197.676 147.103H197.553ZM182.213 141.281C183.202 139.307 184.287 137.385 185.465 135.522C182.527 136.422 179.673 137.585 176.936 138.996C178.654 139.81 180.341 140.593 182.029 141.312L182.213 141.281ZM167.394 133.081C169.019 124.956 173.134 117.568 179.145 111.986C178.835 108.625 179.446 105.243 180.908 102.215C182.371 99.1866 184.628 96.6318 187.429 94.8344C165.952 97.213 153.404 120.186 167.394 133.081ZM209.457 99.5917C210.063 101.284 210.201 103.114 209.856 104.881C212.191 105.37 214.445 106.203 216.545 107.354L219.214 106.102C216.233 103.596 213.004 101.414 209.58 99.5917H209.457ZM223.693 110.233L221.638 111.016C230.443 118.965 234.922 132.924 235.076 145.225C239.248 135.835 236.917 123.316 224.153 110.797L223.693 110.358V110.233ZM223.693 157.619C217.289 157.299 210.93 156.356 204.702 154.802C205.517 156.961 206.622 158.993 207.985 160.843C212.355 160.905 216.712 160.347 220.932 159.184C221.883 158.683 222.803 158.182 223.693 157.619ZM196.663 163.879C191.977 162.736 187.459 160.968 183.225 158.62C183.317 159.674 183.481 160.72 183.716 161.75C187.947 162.911 192.287 163.604 196.663 163.816V163.879ZM177.304 158.589C177.274 157.293 177.336 155.996 177.488 154.708C175.559 153.133 173.846 151.302 172.395 149.262C173.084 152.819 174.792 156.087 177.304 158.652V158.589ZM175.985 124.411C176.629 123.754 177.273 123.128 178.01 122.471L180.525 121.344C180.28 120.468 180.065 119.591 179.881 118.746C178.394 120.493 177.089 122.391 175.985 124.411ZM185.465 113.926C185.669 115.366 185.976 116.931 186.385 118.621C191.52 116.175 196.359 113.129 200.805 109.545C195.368 109.473 190.032 111.041 185.465 114.052V113.926ZM207.954 110.045L207.402 111.016C205.622 113.958 196.019 118.246 187.613 123.817C187.858 124.881 188.134 125.945 188.41 126.946L190.865 128.355C196.638 121.501 203.343 115.525 210.777 110.609C210.001 110.363 209.213 110.164 208.414 110.014H207.954V110.045ZM216.146 113.519C209.066 117.393 202.635 122.39 197.093 128.324C198.32 128.324 199.578 128.324 200.805 128.324C204.211 122.377 210.194 119.497 218.569 123.472C225.626 126.821 225.902 132.111 222.251 136.273C225.088 138.854 227.303 142.067 228.725 145.663C229.093 146.602 229.43 147.509 229.707 148.386C230.412 135.867 226.117 120.405 216.299 113.394L216.146 113.519ZM224.798 163.785C224.092 163.972 223.386 164.192 222.65 164.348C220.884 165.206 219.071 165.959 217.219 166.602H217.833C219.135 166.723 220.447 166.525 221.658 166.025C222.87 165.524 223.946 164.734 224.798 163.722V163.785ZM203.321 135.773C205.96 135.773 208.997 135.773 211.329 135.773C208.931 134.824 206.426 134.183 203.873 133.863C203.659 134.489 203.475 135.115 203.29 135.773H203.321ZM206.941 128.981C210.903 129.691 214.706 131.122 218.171 133.206C218.402 132.278 218.33 131.299 217.964 130.417C217.598 129.535 216.96 128.8 216.146 128.324C214.737 127.451 213.102 127.038 211.457 127.139C209.813 127.239 208.237 127.849 206.941 128.887V128.981ZM198.228 134.959L198.596 133.519H197.308C197.649 133.964 197.957 134.435 198.228 134.928V134.959ZM185.25 107.698C191.236 104.612 197.974 103.372 204.64 104.13C205.499 101.344 204.088 98.7467 198.811 96.7436C189.607 99.2787 185.987 102.628 185.25 107.698ZM179.85 146.226C178.224 145.538 176.629 144.787 174.972 144.035C175.806 146.154 177.047 148.08 178.623 149.7C178.964 148.518 179.374 147.358 179.85 146.226ZM184.115 130.577C183.944 130.416 183.79 130.238 183.655 130.045L182.612 127.572C180.559 129.187 178.714 131.059 177.12 133.144C179.388 132.117 181.726 131.259 184.115 130.577ZM216.851 172.141C213.797 171.84 210.865 170.764 208.322 169.011C202.422 169.89 196.428 169.89 190.527 169.011C197.461 172.141 208.936 174.583 216.851 172.141ZM183.379 153.957C188.799 157.489 194.937 159.715 201.327 160.467C200.156 158.172 199.25 155.745 198.627 153.237C193.875 151.841 189.195 150.201 184.606 148.323C184.022 150.157 183.611 152.044 183.379 153.957ZM229.707 108.7C240.69 120.405 243.758 132.017 241.733 141.876C242.372 140.455 242.916 138.991 243.359 137.494C250.201 114.02 242.01 106.728 229.707 108.7Z" fill="white"/>
<path fill-rule="evenodd" clip-rule="evenodd" d="M344.085 144.536C338.216 142.879 332.164 141.985 326.075 141.875C318.221 142.063 312.514 147.822 306.041 145.569C303.692 144.699 301.709 143.03 300.426 140.843C298.187 137.368 297.113 133.081 294.566 133.456C287.724 134.395 291.007 142.251 288.921 143.941C286.835 145.631 281.374 141.938 276.649 143.221C275.384 143.532 274.285 144.328 273.581 145.443C278.275 153.894 283.767 154.489 285.607 159.403C285.567 160.747 285.286 162.073 284.779 163.315C283.214 167.603 289.105 165.881 289.565 165.474C295.916 170.513 302.052 172.517 306.654 171.139C315.859 168.323 312.208 156.21 314.785 154.113C317.853 151.703 325.861 163.002 325.922 165.537C331.024 157.736 337.134 150.672 344.085 144.536Z" fill="#FCD2D3"/>
<path fill-rule="evenodd" clip-rule="evenodd" d="M412.043 303.313C411.368 307.319 404.373 342.623 396.426 332.733C392.591 327.976 389.063 326.286 386.394 327.193C383.326 328.32 382.927 331.575 378.908 334.11C367.249 341.434 351.571 332.483 344.085 322.749C323.989 296.646 307.79 261.842 294.29 231.138C292.051 253.517 285.608 291.075 273.366 311.92L256.768 307.162C260.572 282.124 262.014 185.099 287.203 182.125C293.799 181.343 301.838 184.347 311.533 191.953L412.043 303.313Z" fill="#7872B8"/>
<path fill-rule="evenodd" clip-rule="evenodd" d="M256.798 305.034C255.847 317.96 256.123 332.17 252.626 335.112C248.824 338.1 244.505 340.329 239.893 341.684C236.476 342.62 233.173 343.942 230.045 345.628C225.749 348.163 216.054 345.033 219.828 351.669C220.841 353.453 221.822 353.14 229.247 353.64C231.82 353.911 234.419 353.699 236.917 353.014C246.888 351.105 245.416 350.417 255.51 352.232C260.511 353.108 259.437 354.924 263.978 352.232C271.893 347.756 260.695 342.842 262.198 334.548C263.64 326.849 271.801 318.336 276.403 305.973C272.108 311.857 259.866 309.228 256.798 305.034Z" fill="#FFCE70"/>
<path fill-rule="evenodd" clip-rule="evenodd" d="M428.947 352.232C430.696 351.105 427.352 345.722 422.228 345.972C417.105 346.223 399.739 341.403 396.426 337.271C392.591 332.514 389.062 330.824 386.393 331.731C383.325 332.858 382.926 336.113 378.907 338.648C377.178 339.69 375.291 340.43 373.323 340.839C365.53 342.655 351.202 333.829 343.041 333.14C334.942 337.929 336.905 352.201 338.439 352.576C343.164 353.922 383.877 352.263 390.596 352.263C395.444 352.263 425.266 354.454 426.861 353.484C428.456 352.514 427.843 352.952 428.947 352.232Z" fill="#FFCE70"/>
<path fill-rule="evenodd" clip-rule="evenodd" d="M325.093 205.975C338.163 205.349 368.046 263.783 374.183 272.828C379.153 280.027 409.036 315.644 416.952 311.92C428.334 306.724 410.662 263.658 406.98 256.647C401.673 246.6 394.094 240.81 387.958 226.757C378.355 205.255 374.428 171.39 363.138 155.897C358.413 149.387 349.945 141.563 343.195 144.317C320.461 153.581 311.103 206.569 325.093 205.975Z" fill="white"/>
<path fill-rule="evenodd" clip-rule="evenodd" d="M322.394 210.012C335.464 209.386 368.016 263.783 374.213 272.828C375.287 274.393 377.558 277.272 380.35 280.809C381.209 279.752 382.248 278.861 383.418 278.18C400.537 269.604 345.895 224.973 347.337 220.654C363.322 222.563 347.337 214.832 344.453 211.452C340.741 206.976 343.901 206.882 347.521 206.695C353.933 206.382 356.725 202.501 348.84 201.749C344.545 201.311 339.36 200.122 346.233 192.172C358.505 177.9 329.481 176.179 321.32 180.686C320.527 181.319 319.922 182.164 319.571 183.127C317.209 195.709 316.104 210.325 322.394 210.012Z" fill="#F0E5F6"/>
<path fill-rule="evenodd" clip-rule="evenodd" d="M332.733 182.375C314.324 182.375 308.587 213.956 291.958 227.383C280.528 236.618 270.227 247.221 261.277 258.963C257.159 262.797 254.002 267.585 252.073 272.922C250.815 277.491 253.453 287.381 258.853 285.441L263.302 271.545C271.954 250.011 285.269 253.517 301.438 241.404C311.618 233.694 321.068 225.028 329.664 215.52C337.212 207.383 349.822 182.375 332.733 182.375Z" fill="#FCD2D3"/>
<path fill-rule="evenodd" clip-rule="evenodd" d="M349.822 118.12C349.766 116.498 349.095 114.962 347.95 113.835C346.805 112.708 345.276 112.078 343.685 112.079C342.11 112.077 340.594 112.694 339.452 113.801C338.309 114.908 337.628 116.421 337.549 118.026C337.549 119.715 338.207 121.335 339.378 122.53C340.549 123.724 342.137 124.395 343.793 124.395C345.449 124.395 347.037 123.724 348.208 122.53C349.379 121.335 350.036 119.715 350.036 118.026L349.822 118.12ZM364.272 124.755C364.199 125.214 364.261 125.684 364.45 126.106C364.639 126.529 364.946 126.885 365.334 127.129C365.721 127.373 366.17 127.494 366.625 127.478C367.08 127.462 367.52 127.308 367.889 127.036C368.258 126.765 368.54 126.387 368.699 125.952C368.859 125.517 368.888 125.044 368.783 124.592C368.678 124.14 368.444 123.73 368.111 123.414C367.778 123.097 367.36 122.889 366.911 122.815C366.309 122.715 365.693 122.864 365.198 123.228C364.703 123.592 364.37 124.141 364.272 124.755ZM396.395 136.023C396.131 136.752 396.012 137.527 396.044 138.304C396.076 139.08 396.258 139.843 396.581 140.547C396.903 141.251 397.359 141.883 397.922 142.407C398.485 142.93 399.145 143.335 399.862 143.597C400.527 143.977 401.261 144.217 402.02 144.301C402.778 144.385 403.545 144.313 404.276 144.088C405.006 143.863 405.684 143.49 406.27 142.992C406.856 142.493 407.337 141.879 407.685 141.187C408.159 139.766 408.08 138.213 407.463 136.85C406.846 135.487 405.74 134.417 404.372 133.863C403.017 133.147 401.449 132.971 399.974 133.37C398.499 133.77 397.223 134.715 396.395 136.023ZM466.04 159.622C463.831 161.625 465.457 165.318 467.145 167.102C467.5 167.612 467.958 168.039 468.489 168.354C469.019 168.668 469.609 168.863 470.22 168.925C470.83 168.988 471.447 168.916 472.028 168.715C472.609 168.513 473.14 168.188 473.588 167.759C474.058 167.36 474.436 166.86 474.696 166.295C474.955 165.729 475.09 165.113 475.09 164.489C475.09 163.864 474.955 163.248 474.696 162.683C474.436 162.117 474.058 161.617 473.588 161.218C471.9 159.403 468.28 157.619 466.132 159.622H466.04ZM448.644 154.113C448.918 153.502 448.946 152.806 448.723 152.174C448.499 151.542 448.041 151.024 447.448 150.733C446.885 150.346 446.2 150.188 445.53 150.293C444.859 150.397 444.251 150.755 443.827 151.296C443.605 151.942 443.626 152.649 443.887 153.28C444.148 153.911 444.63 154.42 445.239 154.708C445.769 155.087 446.424 155.237 447.061 155.125C447.699 155.014 448.268 154.65 448.644 154.113ZM397.469 131.265C395.567 135.772 389.768 136.899 385.626 135.272C383.938 134.636 382.51 133.437 381.574 131.868C380.638 130.3 380.25 128.455 380.472 126.633C380.489 126.076 380.551 125.521 380.656 124.974C380.769 124.434 380.944 123.909 381.177 123.409C383.264 119.028 387.129 118.308 391.425 119.748C395.72 121.187 399.494 126.445 397.561 131.265H397.469ZM357.584 113.081C357.682 112.355 357.563 111.616 357.242 110.961C356.921 110.306 356.413 109.765 355.786 109.409C355.158 109.054 354.439 108.9 353.724 108.969C353.009 109.038 352.332 109.326 351.78 109.795C351.228 110.264 350.829 110.892 350.633 111.597C350.438 112.302 350.457 113.05 350.686 113.744C350.916 114.439 351.346 115.046 351.92 115.486C352.494 115.926 353.185 116.179 353.902 116.211C354.357 116.272 354.819 116.238 355.261 116.113C355.703 115.987 356.115 115.771 356.473 115.479C356.831 115.187 357.128 114.824 357.345 114.412C357.562 114 357.696 113.547 357.737 113.081H357.584Z" fill="#EBF5FF"/>
<path fill-rule="evenodd" clip-rule="evenodd" d="M98.2403 133.769C90.7849 140.78 87.7782 148.417 91.1224 156.993C98.0562 158.276 102.075 146.382 121.619 145.725C125.485 145.725 132.94 146.257 133.707 151.296C133.922 152.83 132.787 154.426 129.964 155.772C123.552 159.559 116.925 162.032 110.513 165.787C100.603 171.515 97.6267 176.742 85.3544 180.529C71.2413 184.848 61.8223 182.125 47.7705 189.512C40.4685 193.361 29.8836 204.785 24.0543 202.907C14.0524 199.777 0.583542 179.434 9.72641 169.199C21.4158 162.188 34.7005 163.127 40.4071 157.587C57.5883 141.312 58.8156 118.934 71.9776 110.108C76.9872 98.788 83.1468 88.0355 90.3554 78.0268C94.0064 74.5527 95.9086 75.2099 96.7063 77.1504C98.0255 80.2803 94.4666 86.759 90.5701 93.0813C86.6737 99.4036 83.4829 104.63 83.3908 107.259C86.189 103.663 89.2671 100.304 92.5951 97.2127C100.879 89.3568 112.445 83.9735 121.22 74.3962L129.289 67.6357C130.168 68.5655 130.835 69.6813 131.243 70.9038C131.652 72.1263 131.791 73.4255 131.652 74.7092C131.095 77.4959 129.713 80.0413 127.694 82.0017L107.138 102.784C123.337 99.0906 138.647 94.6462 150.643 87.4476C155.828 89.2316 154.877 93.2065 149.999 98.402C140.794 108.23 119.042 111.766 107.046 119.622C110.73 119.863 114.38 120.492 117.937 121.5C122.785 123.096 132.48 136.492 138.493 142.408C141.562 145.224 142.758 148.667 137.481 149.544C132.204 150.42 118.582 140.467 113.734 134.99L98.2403 133.769Z" fill="#FCD2D3"/>
<path fill-rule="evenodd" clip-rule="evenodd" d="M89.8944 147.979C89.56 150.694 89.8651 153.451 90.7842 156.022C90.2012 156.617 89.649 157.212 89.0661 157.869C65.8714 183.533 58.7535 195.427 17.7947 179.778L6.96445 174.864C7.3214 173.029 8.11118 171.31 9.26551 169.856C72.5292 196.71 73.0814 163.659 89.8944 147.979Z" fill="#7872B8"/>
<path fill-rule="evenodd" clip-rule="evenodd" d="M24.9131 175.646C24.3588 177.725 23.3042 179.629 21.845 181.186C20.4951 180.717 19.1145 180.216 17.7031 179.652L1.38097 172.141C1.04158 171.998 0.734797 171.785 0.47978 171.515C0.224766 171.246 0.0270081 170.925 -0.101101 170.574C-0.229208 170.223 -0.284931 169.849 -0.264767 169.475C-0.2446 169.101 -0.148998 168.735 0.016077 168.4C0.181154 168.066 0.412161 167.769 0.694616 167.53C0.97707 167.291 1.30492 167.113 1.65765 167.009C2.01037 166.905 2.38039 166.876 2.74455 166.924C3.10872 166.972 3.45919 167.097 3.77407 167.29C10.6592 170.482 17.717 173.272 24.9131 175.646Z" fill="#7872B8"/>
<path fill-rule="evenodd" clip-rule="evenodd" d="M126.067 149.763C122.508 150.921 120.146 153.581 120.821 155.772C121.496 157.963 124.932 158.902 128.491 157.65C132.05 156.398 134.382 153.832 133.707 151.672C133.032 149.512 129.626 148.636 126.067 149.763Z" fill="#F9A7B6"/>
<path fill-rule="evenodd" clip-rule="evenodd" d="M137.297 139.997C134.842 138.057 133.369 138.12 133.216 139.997C133.4 141.351 133.861 142.649 134.569 143.808C135.278 144.968 136.217 145.962 137.327 146.727C139.782 148.667 141.438 149.293 141.592 147.509C141.394 146.031 140.914 144.606 140.177 143.317C139.44 142.029 138.461 140.9 137.297 139.997Z" fill="#F9A7B6"/>
<path fill-rule="evenodd" clip-rule="evenodd" d="M144.108 89.1378C141.745 91.1722 141.469 92.6432 143.157 93.1753C144.49 93.266 145.827 93.0736 147.084 92.6104C148.341 92.1471 149.49 91.4229 150.459 90.4836C152.821 88.4179 153.741 86.9156 152.085 86.3835C149.173 86.1909 146.306 87.181 144.108 89.1378Z" fill="#F9A7B6"/>
<path fill-rule="evenodd" clip-rule="evenodd" d="M122.233 71.9863C120.545 74.6154 120.729 76.1177 122.478 76.1177C123.768 75.8018 124.98 75.2158 126.036 74.3968C127.092 73.5779 127.97 72.5438 128.614 71.3603C130.302 68.7 130.762 66.9786 129.013 66.9473C126.201 67.6733 123.772 69.4784 122.233 71.9863Z" fill="#F9A7B6"/>
<path fill-rule="evenodd" clip-rule="evenodd" d="M88.0844 79.7794C86.8878 82.3146 87.1947 83.5978 88.7594 83.4413C90.3241 83.2848 92.5331 81.0314 93.7603 78.4962C94.9876 75.961 95.1716 74.3648 93.7603 74.5213C91.2658 75.4472 89.2275 77.3354 88.0844 79.7794Z" fill="#F9A7B6"/>
<path fill-rule="evenodd" clip-rule="evenodd" d="M288.276 137.713C288.951 139.622 284.748 144.411 290.148 143.722C293.001 143.378 294.719 144.473 294.351 146.414C293.983 148.354 291.866 149.293 293.522 151.39C293.794 151.718 294.163 151.945 294.574 152.035C294.985 152.126 295.413 152.075 295.793 151.891C301.929 149.794 300.18 156.836 296.008 155.96C295.67 155.96 300.119 153.08 294.934 154.145C292.295 154.708 288.337 155.052 288.337 149.638C288.337 147.603 284.318 149.168 281.557 145.631C280.514 144.348 281.005 140.53 282.017 140.279C284.014 139.334 286.062 138.508 288.153 137.807L288.276 137.713Z" fill="#4B4680"/>
<path fill-rule="evenodd" clip-rule="evenodd" d="M240.384 184.253C241.857 185.474 244.648 186.413 245.876 184.253C247.103 182.094 245.109 179.903 243.544 178.995C241.979 178.088 239.034 177.712 238.021 179.402C237.009 181.092 239.402 183.315 240.384 184.128V184.253ZM212.556 192.015C212.066 190.451 210.47 188.291 208.691 188.823C207.494 189.136 207.31 190.357 207.157 191.39C207.081 192.065 207.081 192.748 207.157 193.424C207.314 194.22 207.627 194.976 208.077 195.646C208.371 196.118 208.798 196.487 209.302 196.705C209.806 196.923 210.363 196.979 210.9 196.867C212.863 196.335 213.109 193.737 212.556 192.015ZM173.408 192.516C173.699 192.1 173.892 191.621 173.972 191.116C174.052 190.611 174.016 190.094 173.868 189.606C173.828 189.286 173.725 188.977 173.567 188.698C173.409 188.418 173.199 188.174 172.948 187.978C172.256 187.551 171.438 187.389 170.639 187.521C169.841 187.652 169.115 188.07 168.591 188.698C168.277 189.014 168.034 189.394 167.878 189.814C167.721 190.235 167.655 190.684 167.685 191.132C167.714 191.581 167.837 192.018 168.046 192.413C168.256 192.808 168.546 193.153 168.898 193.424C169.214 193.678 169.582 193.857 169.975 193.949C170.367 194.041 170.775 194.044 171.168 193.956C171.623 193.902 172.06 193.744 172.448 193.495C172.836 193.246 173.164 192.912 173.408 192.516ZM214.182 195.333C215.072 197.837 217.803 200.779 220.687 199.965C224.369 198.932 225.105 195.646 224 192.266C222.896 188.886 221.3 186.57 217.312 187.415C216.572 187.687 215.898 188.117 215.333 188.675C214.769 189.233 214.327 189.908 214.037 190.653C213.747 191.399 213.615 192.199 213.651 193C213.686 193.802 213.889 194.586 214.244 195.302L214.182 195.333ZM240.384 190.2C239.709 189.386 239.279 187.79 240.138 187.07C240.997 186.35 242.47 186.789 243.206 187.446C243.668 187.786 243.984 188.295 244.087 188.866C244.19 189.438 244.072 190.028 243.759 190.513C243.517 190.712 243.238 190.859 242.938 190.943C242.639 191.028 242.325 191.049 242.017 191.005C241.71 190.961 241.414 190.853 241.149 190.687C240.884 190.522 240.655 190.303 240.476 190.044L240.384 190.2Z" fill="white"/>
<path fill-rule="evenodd" clip-rule="evenodd" d="M252.472 322.717C251.92 329.759 250.447 336.238 246.336 337.052C219.889 342.154 211.943 327.475 220.134 314.548C225.78 305.691 238.267 296.27 253.883 291.043C260.081 289.04 252.963 315.707 252.472 322.717Z" fill="#7872B8"/>
<path fill-rule="evenodd" clip-rule="evenodd" d="M308.004 274.549C312.361 284.252 335.77 321.184 338.685 327.757C340.802 332.483 276.618 319.337 276.618 318.367C276.618 318.054 291.56 282.53 292.48 281.278C296.683 275.926 307.299 272.953 308.004 274.549Z" fill="#7872B8"/>
<path fill-rule="evenodd" clip-rule="evenodd" d="M336.69 333.829C327.946 334.016 299.137 328.821 293.185 326.818C289.503 325.566 273.918 321.278 270.911 325.91C268.334 329.822 267.843 328.476 267.843 334.329C267.843 338.774 271.156 348.539 269.009 351.575C266.861 354.611 319.325 353.108 323.958 353.515C326.77 353.825 329.602 353.898 332.426 353.734C331.137 351.982 329.665 339.149 336.69 333.829Z" fill="#7872B8"/>
</g>
<defs>
<clipPath id="clip0_1_3660">
<rect width="480" height="364" fill="white" transform="matrix(-1 0 0 1 480 0)"/>
</clipPath>
</defs>
</svg>
