<svg width="184" height="184" viewBox="0 0 184 184" fill="none" xmlns="http://www.w3.org/2000/svg">
<g clip-path="url(#clip0_1_1252)">
<path fill-rule="evenodd" clip-rule="evenodd" d="M16.3044 88.3048C14.8208 88.8018 14.1641 90.5374 15.0728 91.811C34.0396 118.393 99.5393 126.412 150.454 86.7198C146.905 93.7369 144.546 99.7756 145.973 102.753C152.586 107.119 156.943 98.4653 159.711 78.4533C152.727 75.4706 134.762 67.1347 135.221 78.5632C137.996 81.3454 142.804 82.0776 148.799 81.8315C89.3598 121.917 44.1926 104.965 18.4295 88.5641C17.7935 88.1592 17.0192 88.0652 16.3044 88.3048Z" fill="#FACD6E"/>
</g>
<defs>
<clipPath id="clip0_1_1252">
<rect width="134" height="134" fill="white" transform="matrix(0.5 0.866025 0.866025 -0.5 0 67)"/>
</clipPath>
</defs>
</svg>
