<svg width="14" height="10" viewBox="0 0 14 10" fill="none" xmlns="http://www.w3.org/2000/svg">
<path d="M12.3146 0.512363C12.0226 0.514707 11.7433 0.630724 11.5357 0.835999L5.22673 6.891L2.35696 3.80039C2.12161 3.61641 1.82256 3.53379 1.52631 3.57129C1.22982 3.60879 0.960858 3.76308 0.778858 4C0.596858 4.23692 0.516943 4.5367 0.556983 4.8326C0.597022 5.12869 0.753663 5.39645 0.991943 5.57655L4.63186 9.25351C4.84436 9.41777 5.10902 9.50019 5.37717 9.48573C5.64533 9.47128 5.89942 9.36093 6.09316 9.17479L13.0931 2.45479C13.3166 2.24835 13.4463 1.95948 13.4527 1.6554C13.459 1.3511 13.3412 1.05735 13.1265 0.841748C12.9119 0.626123 12.6187 0.507283 12.3146 0.512363Z" fill="white"/>
</svg>
