<svg width="280" height="280" viewBox="0 0 280 280" fill="none" xmlns="http://www.w3.org/2000/svg">
<path d="M148.736 271C220.482 271 278.643 212.825 278.643 141.063C278.643 69.3011 220.482 11.1265 148.736 11.1265C76.9897 11.1265 18.8281 69.3011 18.8281 141.063C18.8281 212.825 76.9897 271 148.736 271Z" fill="#CDE1FF"/>
<path fill-rule="evenodd" clip-rule="evenodd" d="M109.316 44.504C115.902 43.4511 122.589 43.1778 129.239 43.6898C129.239 43.6898 129.027 43.6898 128.991 43.6898C128.956 43.6898 128.779 43.6898 128.743 43.6898L127.151 44.0085C117.246 45.4462 107.667 48.5961 98.841 53.3174C81.4941 62.6063 67.7813 77.4694 59.9147 95.5088C57.7576 100.416 56.0979 105.526 54.9605 110.764C49.7426 133.086 53.5586 156.567 65.5767 176.087C77.5948 195.606 96.8405 209.583 119.118 214.969L126.549 216.809C127.186 217.128 126.868 216.809 127.328 217.34C120.431 217.659 113.521 217.184 106.732 215.924C104.656 215.399 102.554 214.986 100.433 214.685C100.752 214.969 100.257 215.11 102.451 215.535C116.606 218.154 121.1 219.074 136.352 216.49C146.919 215.007 157.091 211.459 166.29 206.049C182.072 197.943 197.077 180.033 203.942 162.796C210.058 147.392 211.681 130.57 208.625 114.281C205.568 97.9923 197.956 82.9042 186.673 70.7674C180.348 63.9054 172.89 58.1824 164.626 53.8484C163.6 53.2467 164.308 53.8484 163.6 52.9635C163.423 52.9635 153.975 48.8576 152.418 48.2913C143.553 45.2044 134.295 43.3928 124.922 42.9111C123.4 42.9819 110.59 43.0528 109.316 44.504Z" fill="#E0BE7B"/>
<path fill-rule="evenodd" clip-rule="evenodd" d="M216.145 190.936C216.145 202.085 206.802 212.81 200.326 217.765C187.127 227.782 168.69 227.888 172.016 219.535C173.29 215.996 179.696 211.005 182.633 208.704C187.233 204.952 195.585 197.696 199.69 193.661C202.131 191.254 208.536 184.847 212.111 184.741C215.685 184.635 216.357 187.785 216.357 190.936H216.145ZM163.382 53.0703C164.09 53.9906 163.382 53.3534 164.408 53.9552C172.672 58.2891 180.13 64.0122 186.455 70.8742C197.738 83.0109 205.35 98.0991 208.407 114.388C211.463 130.677 209.84 147.499 203.724 162.902C196.859 180.14 181.854 198.05 166.071 206.156C156.873 211.565 146.701 215.113 136.134 216.597C120.882 219.04 116.281 218.261 102.232 215.642C100.038 215.217 100.534 215.075 100.215 214.792C97.1072 214.027 94.0564 213.045 91.0853 211.854C82.6572 208.615 74.8066 204.037 67.8358 198.298C59.3329 191.279 52.1438 182.806 46.6033 173.273C46.0371 172.07 46.1078 171.964 45.3293 171.327L45.6478 172.707L39.8089 175.255C35.527 177.662 32.7314 178.406 29.1926 180.14L15.8516 185.025C16.0285 187.077 16.4885 185.555 16.2762 187.644C17.063 189.81 18.1212 191.867 19.4256 193.767L20.6288 195.714C23.2475 200.174 23.4953 199.891 25.6893 203.218L35.7746 215.217C36.4116 215.819 36.8716 216.102 37.4378 216.668C38.3671 217.83 39.3846 218.919 40.4812 219.924C43.759 222.986 47.209 225.858 50.8143 228.525C51.699 229.127 51.9468 229.517 52.5484 229.906L70.4544 240.1C76.2226 242.648 77.355 243.321 83.6893 245.657L104.002 250.4C111.815 251.56 119.707 252.105 127.605 252.028C132.029 252.028 148.307 251.568 150.926 250.294C149.616 250.294 150.182 250.117 149.935 249.94C153.757 248.595 162.78 246.648 168.053 244.418C181.456 239.054 193.798 231.347 204.502 221.659C206.13 220.137 208.89 217.199 210.554 215.889C211.74 214.419 213.004 213.013 214.34 211.677C217.882 207.602 221.167 203.311 224.178 198.829C226.443 195.537 227.964 192.847 230.017 189.201C230.937 187.573 231.68 186.263 232.635 184.317L234.652 179.68C235.042 179.078 234.652 179.68 235.148 179.149C235.933 176.743 236.842 174.38 237.873 172.07C238.819 169.758 239.634 167.394 240.314 164.991C241.981 159.789 243.165 154.446 243.853 149.027C244.713 142.468 245.115 135.857 245.056 129.241C245.056 125.525 244.702 122.941 244.526 119.437C244.349 115.933 243.499 113.596 243.358 110.198C242.19 105.137 241.447 100.536 239.819 95.0847C239.076 92.607 238.368 90.4832 237.448 88.0056C236.882 86.4836 235.042 82.7317 234.794 81.3866L234.334 80.7849V80.5725C234.224 80.3429 234.13 80.1064 234.051 79.8645C232.776 76.8648 231.298 73.9557 229.627 71.1573C225.133 63.1071 219.744 55.591 213.561 48.752C212.283 47.4717 211.1 46.0994 210.023 44.6461C209.28 44.2922 204.113 39.266 202.945 38.1334C200.716 36.1512 197.849 33.8151 195.443 32.0807C193.037 30.3463 189.923 28.1518 187.233 26.4528C184.252 24.8617 181.358 23.1131 178.563 21.2144C177.643 22.2408 177.608 23.4442 176.9 25.4972C175.343 30.1694 169.186 45.6726 167.062 49.6369C166.561 51.0166 165.883 52.3253 165.045 53.5303L163.382 53.0703Z" fill="#FFCF70"/>
<path fill-rule="evenodd" clip-rule="evenodd" d="M19.8513 79.6871C20.5237 68.6437 27.6366 56.1138 35.351 47.8312C41.8192 40.9079 49.7498 35.5149 58.5652 32.0449C67.9075 28.5053 89.1047 26.5939 81.7441 39.7611C80.7343 41.3857 79.5475 42.8933 78.2054 44.2562C77.6038 44.9288 77.0022 45.6721 76.2944 46.4154C75.5867 47.1587 75.2327 47.6542 74.4896 48.3621L69.2169 53.4945C69.1589 53.5095 69.098 53.5095 69.04 53.4945L68.3676 54.0962C59.7685 61.9894 54.8496 67.1217 46.8167 75.3334C44.9057 77.2802 44.9765 77.7403 44.021 78.5544C39.9515 82.094 31.6 92.9604 25.0887 92.7126C19.7452 92.4295 19.6744 83.8638 19.7098 79.5809L19.8513 79.6871ZM16.3126 187.431C16.5249 185.343 16.0649 186.865 15.8879 184.812L29.2291 179.927C32.9802 178.193 35.7404 177.449 39.8453 175.043L45.6135 172.671L45.2949 171.291C45.2949 170.547 42.3578 164.636 41.5439 162.477C40.2567 159.252 39.1579 155.954 38.2528 152.602C32.9161 132.287 35.0762 110.728 44.3375 91.8767C53.5987 73.0249 69.341 58.1422 88.68 49.955C91.688 48.6807 105.737 43.7254 109.24 44.3271C110.549 42.8759 123.395 42.805 124.634 42.8404C134.008 43.3221 143.265 45.1336 152.13 48.2205C153.687 48.7868 163.135 52.8927 163.312 52.8927L164.586 53.3529C165.424 52.1479 166.102 50.8391 166.603 49.4594C168.727 45.4951 174.884 29.992 176.441 25.3198C177.149 23.2668 177.184 22.0633 178.104 21.0368C177.538 21.0368 171.734 18.1698 170.708 17.7451C168.231 16.6832 165.648 15.6213 163.029 14.7364C160.411 13.8516 157.827 12.9667 154.961 12.1526C152.06 11.6304 149.199 10.909 146.397 9.99346H148.591C145.583 8.68383 132.702 8.61302 128.42 8.64842C110.186 8.85792 92.1627 12.5835 75.339 19.621L69.7477 22.1695C64.4034 24.6148 59.267 27.4913 54.3895 30.7706C51.9124 32.328 50.0015 33.6022 48.0198 35.0888L41.2608 40.7521L40.5177 41.2477L36.4835 45.0704C33.1924 48.1498 32.9447 48.6099 31.1399 50.4504L24.6995 58.4499C23.6459 59.6263 22.6985 60.8937 21.8684 62.2372C21.0899 63.5114 20.6299 63.5822 19.7806 64.8564V65.0688V65.2458L18.9313 66.5908V66.8031L12.2784 79.6871C11.783 80.9614 11.1814 81.7401 10.5798 83.2267C9.55356 85.8459 8.6335 87.8988 7.60726 90.9429C6.58102 93.9869 6.05028 96.5707 5.1302 99.1192L2.2284 117.383C1.69174 124.189 1.58538 131.022 1.90993 137.842C2.51569 144.079 3.43694 150.281 4.67015 156.424C5.89899 162.075 7.51891 167.634 9.51822 173.06L10.2967 175.113L14.7202 185.166C15.2156 186.263 15.0386 186.794 16.2064 187.537L16.3126 187.431Z" fill="#FFCF70"/>
<path fill-rule="evenodd" clip-rule="evenodd" d="M109.316 44.5041C105.777 43.9024 91.6219 48.8578 88.7555 50.132C69.4164 58.3192 53.6743 73.202 44.413 92.0537C35.1517 110.905 32.9915 132.464 38.3283 152.779C39.2333 156.132 40.3323 159.429 41.6194 162.654C42.4333 164.813 45.4413 170.724 45.3705 171.468C46.149 172.105 46.0782 172.211 46.6444 173.414C52.1848 182.948 59.374 191.421 67.8769 198.439C74.8477 204.179 82.6984 208.756 91.1265 211.995C94.0975 213.187 97.1483 214.168 100.256 214.933C102.377 215.234 104.479 215.647 106.555 216.172C113.344 217.432 120.254 217.907 127.151 217.588C126.691 217.163 127.151 217.376 126.372 217.057L118.941 215.216C96.6635 209.831 77.4179 195.854 65.3998 176.335C53.3817 156.815 49.5657 133.334 54.7836 111.012C55.921 105.774 57.5807 100.663 59.7378 95.7568C67.6044 77.7173 81.3172 62.8543 98.664 53.5654C107.49 48.844 117.069 45.6941 126.974 44.2563L128.566 43.9378C128.566 43.9378 128.743 43.9378 128.814 43.9378C128.885 43.9378 128.991 43.9378 129.062 43.9378C122.48 43.3577 115.853 43.5477 109.316 44.5041Z" fill="#D1AC62"/>
<path fill-rule="evenodd" clip-rule="evenodd" d="M19.8516 79.6874C19.8516 83.9703 19.8516 92.536 25.2305 92.8191C31.7418 93.2085 40.0933 82.2005 44.1629 78.6609C45.1183 77.8468 45.0475 77.3867 46.9584 75.4399C54.9914 67.2282 59.9102 62.0959 68.5094 54.2027L69.1817 53.601C69.2398 53.616 69.3007 53.616 69.3587 53.601L74.6315 48.4686C75.3746 47.7607 75.7993 47.159 76.4362 46.5219C77.0732 45.8848 77.7456 45.0353 78.3472 44.3627C79.6893 42.9998 80.8761 41.4922 81.886 39.8676C89.2466 26.7004 68.0494 28.5764 58.7071 32.1514C49.8916 35.6213 41.961 41.0144 35.4929 47.9377C27.6369 56.2202 20.5239 68.7502 19.8516 79.6874Z" fill="#FFE2A8"/>
<path fill-rule="evenodd" clip-rule="evenodd" d="M216.149 190.936C216.149 187.786 215.371 184.636 211.903 184.742C208.435 184.848 201.923 191.255 199.482 193.662C195.377 197.697 187.025 204.953 182.425 208.705C179.594 211.005 173.189 216.102 171.809 219.536C168.588 227.889 187.025 227.783 200.119 217.766C206.807 212.811 216.184 202.086 216.149 190.936Z" fill="#FFE2A8"/>
<path fill-rule="evenodd" clip-rule="evenodd" d="M243.647 148.638C243.647 148.638 243.647 148.39 243.859 148.461C244.071 148.532 243.859 148.072 245.027 147.86H259.642C260.031 149.948 258.651 152.213 259.005 154.337C261.446 151.682 261.694 124.782 261.128 121.808C260.966 118.314 260.48 114.842 259.677 111.438L259.465 112.676H244.248L243.328 110.199C243.328 113.738 244.319 116.393 244.496 119.437C244.673 122.481 245.062 125.702 245.062 129.242C245.032 135.732 244.559 142.212 243.647 148.638Z" fill="#DEB76A"/>
<path fill-rule="evenodd" clip-rule="evenodd" d="M235.079 179.042C234.583 179.467 235.079 179.042 234.583 179.573L232.566 184.21C231.611 186.157 230.868 187.466 229.948 189.095C227.895 192.634 226.409 195.43 224.108 198.722C221.098 203.205 217.813 207.496 214.271 211.571C212.935 212.906 211.671 214.312 210.484 215.783H223.578C222.941 217.34 222.693 216.172 222.091 217.977C223.797 216.72 225.353 215.271 226.727 213.659C228.284 212.137 229.594 210.863 231.115 209.199C235.322 204.625 239.145 199.712 242.545 194.51C243.395 193.023 244.704 190.971 245.872 189.307C248.104 185.582 250.067 181.702 251.746 177.697C250.508 178.476 250.932 179.219 249.694 180.529H234.725L235.079 179.042Z" fill="#DEB76A"/>
<path fill-rule="evenodd" clip-rule="evenodd" d="M209.672 44.646C210.75 46.0992 211.932 47.4716 213.211 48.7519C219.393 55.5908 224.783 63.107 229.277 71.1571C230.947 73.9555 232.425 76.8647 233.7 79.8644C233.779 80.1062 233.874 80.3427 233.983 80.5723V80.7847L234.443 81.3865L234.16 79.9706H249.129C251.181 82.696 249.554 82.0943 251.394 83.5101C250.786 81.3579 249.843 79.3153 248.598 77.4575C242.158 64.9374 233.488 53.6981 223.013 44.292H222.765H222.553H222.305C218.107 44.7026 213.886 44.8209 209.672 44.646Z" fill="#EBC373"/>
<path fill-rule="evenodd" clip-rule="evenodd" d="M243.645 148.638C242.957 154.056 241.773 159.4 240.106 164.601C239.426 167.005 238.611 169.368 237.665 171.68C236.634 173.991 235.724 176.354 234.94 178.76L234.586 180.282H249.555C250.793 178.972 250.369 178.229 251.607 177.45C253.164 174.937 259.286 157.664 258.862 154.124C258.508 152.001 259.888 149.735 259.499 147.647H245.061C243.999 147.859 243.999 148.39 243.893 148.249C243.787 148.107 243.716 148.567 243.645 148.638Z" fill="#D1AC62"/>
<path fill-rule="evenodd" clip-rule="evenodd" d="M234.69 81.3861C234.938 82.7311 236.778 86.483 237.344 88.0051C238.264 90.4827 238.972 92.6065 239.715 95.0841C241.413 100.535 242.157 105.136 243.254 110.198L244.174 112.676H259.39L259.603 111.437C259.064 106.398 258.008 101.429 256.453 96.6061C255.221 92.1031 253.587 87.7199 251.57 83.5098C249.729 82.1293 251.357 82.7311 249.305 79.9702H234.336L234.69 81.3861Z" fill="#D1AC62"/>
<path fill-rule="evenodd" clip-rule="evenodd" d="M150.858 250.187C157.405 250.187 174.815 244.913 181.858 242.188C187.928 239.854 193.839 237.122 199.551 234.011C201.993 232.631 204.824 230.932 207.584 229.127C212.76 225.875 217.618 222.142 222.093 217.977C222.695 216.172 222.942 217.34 223.579 215.783H210.486C208.823 217.092 206.062 220.03 204.435 221.552C193.731 231.241 181.389 238.947 167.986 244.311C162.713 246.541 153.831 248.488 149.867 249.833C150.115 250.01 149.513 250.116 150.858 250.187Z" fill="#D1AC62"/>
<path fill-rule="evenodd" clip-rule="evenodd" d="M178.176 21.2141C180.971 23.1128 183.865 24.8614 186.846 26.4525C189.535 28.1515 192.437 29.9921 195.056 32.0804C197.674 34.1687 200.328 36.151 202.558 38.1331C203.832 39.2658 208.998 44.2919 209.635 44.6459C213.9 44.9468 218.181 44.9468 222.446 44.6459H222.693H222.906H223.153C221.915 43.6768 220.733 42.6368 219.615 41.531L207.901 32.8238C202.308 29.2266 196.506 25.9644 190.526 23.0546C181.927 18.701 158.677 10.7724 148.663 10.4893H146.469C149.27 11.4048 152.132 12.1261 155.032 12.6483C157.899 13.4624 160.447 14.312 163.101 15.2322C165.755 16.1525 168.303 17.179 170.78 18.2409C171.806 18.3471 177.61 21.2141 178.176 21.2141Z" fill="#D1AC62"/>
<path fill-rule="evenodd" clip-rule="evenodd" d="M160.625 54.9105C162.989 56.9519 164.874 59.4899 166.145 62.3436C167.414 65.6783 168.408 69.1113 169.118 72.6082C171.135 57.7775 178.955 50.1321 193.712 48.0084C190.274 47.3267 186.901 46.3559 183.626 45.106C180.719 43.8256 178.123 41.9296 176.018 39.5489L174.744 38.0977C174.279 37.5332 173.865 36.9292 173.506 36.2925C171.081 32.1593 169.595 27.5433 169.153 22.7715C169.153 22.7715 169.153 22.7714 169.153 22.9484L166.534 32.7176C165.358 35.5484 163.638 38.1216 161.474 40.2922C158.06 43.6142 153.78 45.908 149.124 46.9111L143.957 48.0438C149.943 48.4489 155.651 50.7274 160.271 54.5565L160.625 54.9105Z" fill="white"/>
<path fill-rule="evenodd" clip-rule="evenodd" d="M133.445 129.454C133.09 124.245 133.09 119.018 133.445 113.809C138.894 114.127 145.158 113.809 150.678 113.809C151.839 113.635 153.023 113.696 154.159 113.988C155.296 114.28 156.362 114.796 157.296 115.508C162.25 120.215 160.233 129.277 150.218 129.454C144.733 129.454 138.682 129.454 133.232 129.454H133.445ZM109.452 142.267C96.1108 142.267 95.2969 140.993 95.2969 147.399C95.2969 153.806 97.2786 151.824 109.629 152.354V158.761C97.9864 159.257 95.4739 156.85 95.4739 163.752C95.4739 170.654 97.7033 168.176 109.629 168.849C109.877 172.388 108.956 178.724 110.549 181.414C112.637 184.954 116.989 184.104 121.59 184.104C126.19 184.104 130.366 184.883 132.525 181.591C134.683 178.299 133.02 172.601 133.586 168.849C139.744 168.601 151.598 169.132 156.27 168.849C159.242 168.636 159.101 166.831 159.101 163.823C159.101 157.628 157.367 158.867 148.98 158.867C144.061 158.867 138.363 159.115 133.551 158.867V152.531C149.546 151.611 167.558 156.354 178.528 138.586C186.314 125.95 183.907 104.889 171.203 96.1112C164.373 91.3682 156.871 91.085 146.856 91.085C136.842 91.085 127.11 91.085 117.273 91.085C111.858 91.085 109.806 92.8193 109.77 98.1641C109.735 103.509 109.77 108.039 109.77 112.995C109.77 117.95 109.877 139.86 109.452 142.267Z" fill="#D1AC62"/>
<path fill-rule="evenodd" clip-rule="evenodd" d="M121.769 123.295C121.431 118.085 121.431 112.859 121.769 107.65C127.219 107.968 133.447 107.65 139.003 107.65C140.166 107.473 141.353 107.535 142.49 107.834C143.628 108.132 144.693 108.66 145.62 109.384C150.574 114.057 148.522 123.118 138.543 123.295C133.058 123.295 127.006 123.295 121.521 123.295H121.769ZM97.7763 136.108C84.4706 136.108 83.6213 134.834 83.6213 141.24C83.6213 147.647 85.5676 145.665 97.7763 146.196V152.602C86.1338 153.098 83.4444 150.691 83.6213 157.593C83.7982 164.495 85.8507 162.017 97.7763 162.69C98.024 166.229 97.104 172.565 98.6964 175.255C100.784 178.795 105.137 177.945 109.737 177.945C114.338 177.945 118.513 178.724 120.672 175.468C122.831 172.211 121.167 166.442 121.734 162.69C127.891 162.442 139.746 162.973 144.382 162.69C147.39 162.478 147.248 160.672 147.248 157.664C147.248 151.469 145.514 152.708 137.127 152.708C132.208 152.708 126.511 152.956 121.698 152.708V146.373C137.693 145.452 155.706 150.195 166.676 132.427C174.426 119.826 172.055 98.7302 159.351 89.9521C152.521 85.1738 145.196 84.8906 135.004 84.8906C124.812 84.8906 115.258 84.8906 105.42 84.8906C99.9703 84.8906 97.9533 86.625 97.9179 91.9697V106.765C97.9179 111.154 98.201 133.595 97.7763 136.108Z" fill="#FFDB94"/>
<path fill-rule="evenodd" clip-rule="evenodd" d="M96.0093 94.1292C97.895 95.747 99.3943 97.7668 100.397 100.04C101.424 102.704 102.217 105.451 102.768 108.252C104.396 96.3945 110.66 90.3065 122.444 88.6075C119.694 88.0544 116.995 87.273 114.375 86.2714C112.04 85.2568 109.96 83.7332 108.289 81.8116L107.262 80.6435C106.896 80.1981 106.565 79.7247 106.272 79.2277C104.326 75.9272 103.119 72.2442 102.733 68.4321L100.645 76.2191C99.7223 78.4881 98.3499 80.5471 96.6108 82.2718C93.8851 84.9359 90.4629 86.7762 86.7378 87.5811L82.6328 88.5013C87.4133 88.7918 91.976 90.6025 95.6554 93.6691L96.0093 94.1292Z" fill="white"/>
</svg>
