<svg width="222" height="222" viewBox="0 0 222 222" fill="none" xmlns="http://www.w3.org/2000/svg">
<path fill-rule="evenodd" clip-rule="evenodd" d="M117.731 218.977C65.5725 222.704 23.5101 160.136 19.859 108.003C16.2079 55.8697 73.5826 14.3568 125.741 10.7049C177.9 7.05295 213.555 54.4164 217.206 106.587C220.857 158.758 169.89 215.325 117.731 218.977Z" fill="#CDE1FF"/>
<path fill-rule="evenodd" clip-rule="evenodd" d="M56.1822 190.842C48.8119 182.802 42.4327 173.907 37.1815 164.347C52.4566 150 67.1728 135.057 81.4047 119.629C61.751 106.448 43.0175 91.9432 25.334 76.216C29.9782 65.5537 36.6172 55.8776 44.8936 47.7085C64.9375 62.9125 85.3911 77.7438 106.255 91.8671C125.926 69.0611 144.703 45.4353 162.81 21.5114C163.569 20.5056 164.43 19.5814 165.38 18.7538C174.848 23.7072 183.293 30.4086 190.268 38.5041C189.882 39.2413 189.447 39.951 188.964 40.6282C171.155 64.1049 152.751 87.2836 133.526 109.754C157.569 125.071 182.363 139.175 207.815 152.012C203.059 161.923 197.008 171.159 189.821 179.477C161.707 167.852 134.636 153.852 108.9 137.628C92.0228 155.962 74.4751 173.812 56.1822 190.842Z" fill="#B0C8EB"/>
<path fill-rule="evenodd" clip-rule="evenodd" d="M158.004 7.79838C139.86 31.7223 121.12 55.3109 101.449 78.1541C76.3752 61.1987 51.9724 43.2371 28.1283 24.8283C27.1519 24.03 26.0897 23.3426 24.9615 22.7788H24.738C22.9818 22.0057 21.102 21.5515 19.1867 21.4373H18.2926C15.7232 21.3524 13.1701 21.8759 10.8413 22.9651H10.6551C9.29983 23.6296 8.04549 24.4827 6.92946 25.4991L6.66864 25.7227C5.4579 26.9731 4.45196 28.4068 3.68807 29.9709V30.1945C2.76222 32.1702 2.24287 34.3118 2.16066 36.4922C2.09225 38.9169 2.57629 41.3254 3.5763 43.5352V43.7588C4.46514 45.6814 5.73224 47.405 7.30193 48.8268C23.8065 66.2294 48.8428 86.3524 76.7105 105.357C56.5364 127.307 35.2211 148.179 12.8532 167.888C9.51343 170.581 7.38006 174.491 6.92241 178.757C6.46477 183.024 7.72035 187.297 10.4129 190.638C13.1055 193.978 17.0145 196.112 21.28 196.57C25.5455 197.028 29.8181 195.772 33.1578 193.078C58.0381 171.351 81.6832 148.248 103.982 123.878C130.521 140.64 158.5 155.006 187.585 166.807C190.752 168.372 193.919 169.974 197.123 171.502C200.092 172.822 203.391 173.211 206.586 172.62H206.884C209.285 172.134 211.541 171.101 213.479 169.602C214.766 168.534 215.884 167.278 216.794 165.875V165.614C218.045 163.526 218.809 161.182 219.03 158.758V157.267C219.068 156.584 219.068 155.9 219.03 155.218V154.882V154.584C218.583 152.021 217.522 149.604 215.937 147.541C214.825 146.086 213.478 144.826 211.951 143.815H211.69H211.467C210.977 143.517 210.467 143.255 209.939 143.032C181.939 129.299 154.736 113.996 128.46 97.1964C147.684 74.8376 166.088 51.5844 183.897 28.0704C185.255 26.3654 186.255 24.4034 186.835 22.3022C187.416 20.2011 187.566 18.0041 187.277 15.8435C186.987 13.6829 186.264 11.6031 185.15 9.72916C184.036 7.85522 182.556 6.22579 180.796 4.93881C179.037 3.65184 177.036 2.73386 174.913 2.24006C172.79 1.74625 170.59 1.68681 168.443 2.06529C166.297 2.44378 164.249 3.25239 162.423 4.44253C160.597 5.63266 159.031 7.17976 157.818 8.99084L158.004 7.79838Z" fill="#FAA8B7"/>
<path fill-rule="evenodd" clip-rule="evenodd" d="M4.21113 28.7041C3.89569 29.209 3.60955 29.7315 3.3542 30.2692V30.4929C2.42835 32.4685 1.90888 34.6102 1.82667 36.7906C1.75827 39.2153 2.24242 41.6238 3.24243 43.8336V44.0572C4.13126 45.9798 5.39837 47.7034 6.96806 49.1252C22.3549 65.3354 50.7815 87.806 76.3766 105.656L81.7415 99.917C54.8797 81.5828 25.1119 58.2923 9.20347 41.5232C7.64329 40.1657 6.37568 38.5047 5.47783 36.6415V36.4179C4.52916 34.2717 4.0588 31.9447 4.09937 29.5985C4.08078 29.2882 4.08078 28.9771 4.09937 28.6669L4.21113 28.7041ZM9.35252 172.285C7.21965 175.51 6.31233 179.392 6.79502 183.228C7.2777 187.064 9.11841 190.601 11.9836 193.196C14.8488 195.791 18.5488 197.274 22.413 197.376C26.2773 197.477 30.05 196.191 33.0475 193.749C57.9845 171.808 81.6673 148.481 103.984 123.878C130.523 140.64 158.501 155.006 187.587 166.807C190.754 168.372 193.92 169.975 197.124 171.503C200.094 172.822 203.393 173.212 206.588 172.62H206.886C209.286 172.134 211.543 171.101 213.48 169.602C214.767 168.535 215.885 167.278 216.796 165.876V165.615C218.046 163.526 218.81 161.182 219.031 158.758V157.267C219.069 156.585 219.069 155.9 219.031 155.218V154.882V154.584C218.585 152.021 217.523 149.605 215.939 147.541C215.379 146.863 214.769 146.228 214.113 145.641C214.132 145.827 214.132 146.014 214.113 146.2C214.132 146.435 214.132 146.672 214.113 146.908V147.616C213.9 149.961 213.161 152.228 211.952 154.249V154.473C211.075 155.801 209.994 156.983 208.748 157.975C206.878 159.401 204.715 160.393 202.415 160.882H202.079C198.997 161.43 195.821 161.054 192.952 159.801L183.749 155.255C155.58 143.78 128.498 129.8 102.829 113.481C81.2802 137.178 58.4316 159.658 34.3888 180.819C32.3235 182.476 29.8717 183.581 27.2628 184.032C24.6539 184.483 21.9733 184.265 19.4718 183.397C16.9703 182.53 14.7298 181.042 12.96 179.072C11.1902 177.103 9.94901 174.716 9.35252 172.136V172.285ZM128.573 96.0042C146.195 75.1732 167.543 48.6035 184.01 26.8782C186.392 23.7021 187.525 19.7623 187.195 15.8059C186.866 11.8495 185.096 8.15169 182.222 5.4137C183.124 7.8329 183.408 10.4387 183.051 12.9956C182.693 15.5526 181.704 17.9801 180.173 20.0587C163.035 42.7157 140.867 70.217 122.351 91.8678C124.363 93.2839 126.524 94.849 128.722 96.0042H128.573Z" fill="#DB8897"/>
</svg>
