<svg width="51" height="50" viewBox="0 0 51 50" fill="none" xmlns="http://www.w3.org/2000/svg">
<path fill-rule="evenodd" clip-rule="evenodd" d="M8.9357 41.6954C8.52748 43.9002 6.81055 50.0001 9.631 50.0001C11.6628 50.0001 14.3194 46.4693 16.7223 44.9652C17.5573 45.2922 36.7159 48.506 44.5 39.5C52.2841 30.494 49.6554 14.2565 34.6346 10.23C20.5695 6.4931 0.706305 9.11887 0.975361 27C1.05886 32.895 3.48964 38.0052 6.80181 40.5276C7.4544 41.017 8.17292 41.4102 8.9357 41.6954Z" fill="#CDE1FF"/>
<path fill-rule="evenodd" clip-rule="evenodd" d="M39.0094 24C41.3824 23.9981 43.7015 23.2928 45.6737 21.9731C47.6458 20.6534 49.1824 18.7786 50.0892 16.5857C50.9961 14.3928 51.2324 11.9803 50.7683 9.65317C50.3042 7.32602 49.1606 5.1887 47.482 3.51141C45.8034 1.83412 43.6651 0.692159 41.3376 0.229897C39.0101 -0.232366 36.5978 0.00582103 34.4056 0.914348C32.2135 1.82287 30.3399 3.36095 29.0217 5.33413C27.7036 7.30732 27 9.62703 27 12C27.0074 15.1819 28.2754 18.2313 30.5263 20.4804C32.7771 22.7295 35.8274 23.995 39.0094 24Z" fill="#7872B9"/>
<path fill-rule="evenodd" clip-rule="evenodd" d="M40.4238 7.1261C40.2365 8.68911 40.1735 10.2645 40.2354 11.8375C40.2596 13.3617 40.4525 14.8786 40.8105 16.3604C40.8105 16.4993 40.8799 16.6481 40.9195 16.7968C40.9547 16.9406 40.9812 17.0863 40.9989 17.2333C41.0061 17.3506 40.979 17.4675 40.9209 17.5696C40.8628 17.6718 40.7762 17.7548 40.6717 17.8086C40.439 17.9209 40.1861 17.9851 39.928 17.997C39.642 18.0088 39.3557 17.9855 39.0753 17.9276C38.8661 17.9004 38.6641 17.8331 38.4804 17.7292C38.2607 17.5755 38.0943 17.3571 38.0045 17.1043C37.899 16.8398 37.8129 16.568 37.7467 16.291C37.6025 15.638 37.5096 14.9747 37.4691 14.3073C37.3997 13.5237 37.36 12.7103 37.3501 11.8772C37.32 11.3685 37.32 10.8584 37.3501 10.3497C36.7118 10.3973 36.0705 10.3129 35.4663 10.1017C34.4748 9.6157 35.2977 8.72301 35.7935 8.29651C36.666 7.54269 38.2623 6.20366 38.3218 6.1739C38.5172 6.07933 38.7297 6.02534 38.9464 6.0152C39.1641 5.99493 39.3832 5.99493 39.6008 6.0152C39.8404 6.03135 40.069 6.12145 40.2552 6.27309C40.3462 6.39313 40.4087 6.53233 40.4379 6.68013C40.4671 6.82793 40.4623 6.98045 40.4238 7.1261Z" fill="white"/>
<path d="M25.1968 22H13.8031C13.3596 22 13 22.436 13 22.9737V25.0263C13 25.564 13.3596 26 13.8031 26H25.1968C25.6404 26 26 25.564 26 25.0263V22.9737C26 22.436 25.6404 22 25.1968 22Z" fill="white"/>
<path d="M35.212 30H13.788C13.3528 30 13 30.436 13 30.9737V33.0263C13 33.564 13.3528 34 13.788 34H35.212C35.6472 34 36 33.564 36 33.0263V30.9737C36 30.436 35.6472 30 35.212 30Z" fill="white"/>
</svg>
