<svg width="220" height="220" viewBox="0 0 220 220" fill="none" xmlns="http://www.w3.org/2000/svg">
<path fill-rule="evenodd" clip-rule="evenodd" d="M125.115 3.07715C180.458 3.07715 218.54 71.3188 218.54 126.706C218.54 182.093 161.023 217.254 105.649 217.254C50.2738 217.254 16.0977 164.576 16.0977 109.189C16.0977 53.8015 69.7401 3.07715 125.115 3.07715Z" fill="#CDE1FF"/>
<path fill-rule="evenodd" clip-rule="evenodd" d="M21.6427 94.9158C21.4537 94.9158 13.9255 97.9089 13.0435 98.2555C10.1432 99.2256 7.32111 100.416 4.60188 101.816C2.80645 102.855 -1.25689 105.596 0.381045 108.841C1.70399 111.456 5.45235 112.37 8.09824 113.189L26.3675 118.923C30.9348 120.31 35.5022 121.822 40.0695 123.208L42.3374 123.933C43.0304 124.153 44.0383 124.5 44.6998 124.657C45.3613 124.815 49.9601 121.507 50.3696 121.16C52.291 119.994 54.1179 118.734 56.0394 117.569C57.9608 116.403 59.7877 115.174 61.6776 114.008C63.5676 112.843 65.426 111.645 67.3474 110.448L72.9857 106.888L78.6555 103.328C82.4038 100.902 86.3097 98.5705 89.995 96.1761C91.8849 94.9473 93.8064 93.8131 95.6333 92.6159C97.4602 91.4187 99.4131 90.2215 101.335 89.0558C103.256 87.8901 105.051 86.6298 106.941 85.4956C108.831 84.3614 110.69 83.1011 112.611 81.9039C116.296 79.667 120.234 77.115 123.919 74.7836C125.431 73.8384 133.999 68.3249 135.353 67.6947C136.505 67.0929 137.814 66.8618 139.102 67.0331C140.771 67.3797 140.456 68.6084 139.511 69.6796C139.133 70.0577 138.724 70.3728 138.314 70.7823C137.369 71.696 135.511 73.2083 134.66 73.9329C133.81 74.6576 132.833 75.5082 132.235 76.1068C131.636 76.7055 131.384 76.8315 131.006 77.178C129.778 78.4383 127.416 80.3287 126.156 81.5574C125.746 81.967 125.305 82.2819 124.927 82.66C123.73 83.7942 121.998 85.2435 120.706 86.4408L118.879 88.079L117.651 89.1818L112.769 93.5611C110.438 95.609 107.792 98.1294 105.461 100.114L104.295 101.185L103.697 101.721C102.374 102.855 100.547 104.557 99.4131 105.565C98.2792 106.573 95.9798 108.715 94.5308 109.944C93.0819 111.173 91.8849 112.433 90.877 113.095C89.869 113.756 88.2626 115.552 87.2231 116.245C86.1837 116.938 83.7583 119.396 82.4038 120.593C81.0494 121.79 78.9705 123.744 77.5215 124.972C76.0726 126.201 74.9071 127.43 73.8677 128.123C72.8282 128.816 70.4343 131.274 68.9853 132.502L66.5599 134.708L67.1584 135.212L78.75 144.317C80.7029 145.766 82.5928 147.184 84.6087 148.633L90.436 152.981L97.0822 157.833C97.8697 158.432 98.5312 158.936 99.3187 159.471C102.28 161.645 105.209 163.882 108.201 166.025C114.092 170.309 120.045 174.846 125.935 179.131L128.109 180.738C128.822 181.349 129.617 181.859 130.471 182.25C137.369 185.401 141.905 183.038 143.637 175.067L147.669 156.163C147.984 154.682 148.677 150.996 149.024 149.862C149.024 149.232 152.583 133.038 152.646 132.691C153.276 129.856 153.843 126.989 154.473 124.122C155.103 121.255 155.701 118.451 156.268 115.647C156.835 112.843 157.497 109.913 158.095 107.077C158.694 104.242 159.261 101.375 159.891 98.5705C160.521 95.7665 161.088 92.8365 161.718 90.0009C162.348 87.1654 162.915 84.3613 163.513 81.4943L168.962 55.8486C169.88 52.9111 170.032 49.7876 169.403 46.7749C169.108 45.5165 168.474 44.3632 167.568 43.441C166.663 42.5187 165.522 41.8628 164.269 41.5449C162.122 41.1612 159.909 41.4932 157.969 42.4901C147.449 46.6488 136.708 50.5871 126.25 54.7459L111.32 60.5114C106.374 62.4648 101.366 64.3552 96.3893 66.277C91.4125 68.1989 86.4672 70.1522 81.4589 72.0426C76.4506 73.9329 71.5368 75.8863 66.5284 77.7766L51.598 83.5423C46.6212 85.4641 41.6444 87.3544 36.6991 89.3078C36.2896 89.4023 22.2097 94.7583 21.6427 94.9158Z" fill="white"/>
<path fill-rule="evenodd" clip-rule="evenodd" d="M44.6992 124.657C44.9197 125.666 45.3607 126.863 45.6757 127.808C47.9436 135.464 50.4005 143.183 52.6369 150.839C53.9284 155.218 55.3143 159.597 56.6372 163.977L57.6137 167.127C57.9602 168.262 58.3382 169.301 58.6847 170.278C59.1886 171.948 59.4091 173.649 60.9841 174.342C61.5768 174.572 62.2069 174.689 62.8425 174.689C63.1988 174.657 63.5572 174.657 63.9135 174.689C63.9135 172.452 64.4174 167.285 64.6379 164.827L67.1578 135.432L66.5594 134.928L68.9848 132.723C70.4337 131.494 72.5126 129.572 73.8671 128.344C75.2215 127.115 76.4185 126.012 77.5209 125.193C78.6234 124.374 81.0173 122.042 82.4032 120.814C83.7892 119.585 85.8996 117.663 87.2225 116.466C88.5455 115.269 89.8684 114.04 90.8764 113.315C91.8844 112.591 93.4908 110.921 94.5303 110.165C95.5697 109.409 98.0266 107.014 99.4126 105.785C100.799 104.557 102.373 103.076 103.696 101.942L104.295 101.406L105.46 100.335C107.791 98.35 110.437 95.8296 112.768 93.7817L117.65 89.4023L118.879 88.2996L120.706 86.6614C121.997 85.4641 123.856 84.0148 124.927 82.8806C125.305 82.5025 125.746 82.1875 126.155 81.7779C127.415 80.5492 129.777 78.6274 131.006 77.3986C131.384 77.0521 131.856 76.7055 132.234 76.3274C132.612 75.9494 134.124 74.6891 134.66 74.1535C135.195 73.6179 137.369 71.7906 138.314 71.0029C138.723 70.5934 139.133 70.2783 139.51 69.9002C140.455 68.829 140.77 67.6003 139.101 67.2537C137.813 67.0824 136.504 67.3135 135.353 67.9153C133.998 68.5455 125.431 74.059 123.919 75.0041C120.233 77.3356 116.296 79.8876 112.611 82.1245C110.689 83.3217 108.894 84.5504 106.941 85.7161C104.988 86.8818 103.224 88.0791 101.334 89.2763C99.4441 90.4735 97.5226 91.6077 95.6327 92.8365C93.7428 94.0652 91.8844 95.1679 89.9944 96.3966C86.3091 98.7911 82.4032 101.122 78.6549 103.548L72.9851 107.109L67.3468 110.669C65.4254 111.866 63.5985 113.063 61.6771 114.229C59.7556 115.395 57.9602 116.623 56.0388 117.789C54.1174 118.955 52.2904 120.215 50.369 121.381C49.9595 121.412 45.0142 124.626 44.6992 124.657Z" fill="#B0C8EB"/>
<path fill-rule="evenodd" clip-rule="evenodd" d="M63 175.004C63.9398 175.144 64.8951 175.144 65.8349 175.004C68.0532 174.375 70.0295 173.09 71.5047 171.318C71.7726 171.06 72.025 170.786 72.2606 170.499L73.0796 169.774L76.2295 166.624C76.6705 166.151 77.3634 165.584 77.8359 165.111L80.9858 161.961C81.5213 161.425 82.0882 160.984 82.5922 160.448L87.317 155.786L88.955 154.273C89.27 153.958 90.2149 152.855 90.5299 152.792L84.7026 148.445C82.6867 146.995 80.7968 145.578 78.8439 144.128L67.1578 135.527L64.6379 164.922C64.4174 167.38 63.9135 172.547 63.9135 174.784C63.6037 174.833 63.2982 174.907 63 175.004Z" fill="#95B1DB"/>
</svg>
