<svg width="34" height="34" viewBox="0 0 34 34" fill="none" xmlns="http://www.w3.org/2000/svg">
<path d="M33.3244 20.3803C33.0773 24.6417 31.7131 29.5139 27.0421 32.7498C24.7333 34.3494 21.9539 33.6097 20.3991 31.2463C17.523 26.8743 18.6975 22.8192 20.7518 18.7155C21.326 17.5691 21.9346 16.4388 22.5829 15.3381C24.2047 12.5868 24.4733 9.55319 24.3133 6.41611C24.2746 5.65367 23.9621 5.0075 23.6189 4.37082C23.353 3.8785 22.9603 3.43597 22.8019 2.91136C22.5818 2.18119 21.8965 1.2633 22.6575 0.666143C23.3834 0.0967595 24.4375 0.615295 24.8651 1.23976C26.3482 3.40607 28.6941 4.73156 29.8466 7.20695C31.6117 10.9977 33.3011 14.7993 33.3244 20.3803ZM31.3975 19.4942C31.3906 18.9251 31.4343 18.3496 31.3689 17.7879C31.0442 14.9982 30.0521 12.4703 28.6245 10.1181C28.26 9.51744 27.7171 9.16865 27.0919 9.20418C26.4166 9.24258 26.3798 9.97326 26.267 10.4937C25.5676 13.7193 23.977 16.4756 22.3853 19.2672C20.6872 22.2453 19.5034 25.3996 21.1594 28.916C22.0323 30.7696 24.611 32.2336 25.8843 31.2638C27.1523 30.2982 28.6406 29.5259 29.4505 27.9076C30.7739 25.2611 31.4764 22.4813 31.3975 19.4942Z" fill="#FACD6E"/>
<path d="M31.3975 19.4942C31.3906 18.9251 31.4343 18.3496 31.3689 17.7879C31.0442 14.9982 30.0521 12.4703 28.6245 10.1181C28.26 9.51744 27.7171 9.16865 27.0919 9.20418C26.4166 9.24258 26.3798 9.97326 26.267 10.4937C25.5676 13.7193 23.977 16.4756 22.3853 19.2672C20.6872 22.2453 19.5034 25.3996 21.1594 28.916C22.0323 30.7696 24.611 32.2336 25.8843 31.2638C27.1523 30.2982 28.6406 29.5259 29.4505 27.9076C30.7739 25.2611 31.4764 22.4813 31.3975 19.4942Z" fill="#FACD6E"/>
<path d="M16.5436 19.04C16.5722 23.7291 15.1471 27.6936 11.7578 30.9187C7.84018 34.6467 3.70764 32.2341 2.04662 29.1708C0.761941 26.8008 0.641399 24.5257 1.76298 21.9837C2.86204 19.4924 4.57654 17.588 6.26726 15.6256C7.62265 14.052 8.78976 12.3341 9.55275 10.3749C10.4177 8.15426 11.0686 5.8611 8.99157 3.88253C8.6028 3.5123 8.59433 3.01283 8.60042 2.53426C8.61102 1.69127 9.08453 1.40477 9.79907 1.81365C10.4053 2.16058 10.9119 2.62639 11.392 3.18233C13.9844 6.18049 15.1256 9.86741 15.9134 13.7098C16.2712 15.4529 16.6471 17.2145 16.5436 19.04ZM12.0894 8.51053C11.2279 9.49385 11.1689 10.5174 10.831 11.4059C10.3421 12.6906 9.87042 13.9703 9.00709 15.0426C7.81299 16.5265 6.65591 18.0434 5.4454 19.5116C4.32011 20.8766 3.45414 22.38 2.97028 24.1276C2.28913 26.5871 3.00338 28.5222 5.2338 30.206C6.6313 31.261 8.68004 31.1151 10.3983 29.8389C13.2291 27.7359 15.3072 22.3033 14.3665 18.7867C13.9163 17.1046 13.7131 15.4515 13.6973 13.747C13.6798 11.8876 12.9522 10.309 12.0894 8.51053Z" fill="#FACD6E"/>
<path d="M12.0894 8.51053C11.2279 9.49385 11.1689 10.5174 10.831 11.4059C10.3421 12.6906 9.87042 13.9703 9.00709 15.0426C7.81299 16.5265 6.65591 18.0434 5.4454 19.5116C4.32011 20.8766 3.45414 22.38 2.97028 24.1276C2.28913 26.5871 3.00338 28.5222 5.2338 30.206C6.6313 31.261 8.68004 31.1151 10.3983 29.8389C13.2291 27.7359 15.3072 22.3033 14.3665 18.7867C13.9163 17.1046 13.7131 15.4515 13.6973 13.747C13.6798 11.8876 12.9522 10.309 12.0894 8.51053Z" fill="#FACD6E"/>
</svg>
