<svg width="32" height="34" viewBox="0 0 32 34" fill="none" xmlns="http://www.w3.org/2000/svg">
<path d="M0.00157738 13.5883C0.231097 9.27308 1.49829 4.33926 5.83728 1.06241C7.98196 -0.557415 10.5638 0.191597 12.008 2.58488C14.6796 7.01224 13.5886 11.1186 11.6803 15.2742C11.147 16.4351 10.5817 17.5797 9.97946 18.6943C8.47292 21.4804 8.22347 24.5524 8.3721 27.7291C8.40801 28.5012 8.6983 29.1556 9.01711 29.8003C9.2641 30.2988 9.62892 30.747 9.77604 31.2782C9.98047 32.0176 10.6171 32.9471 9.91012 33.5518C9.23582 34.1284 8.25672 33.6033 7.85946 32.971C6.48184 30.7772 4.3027 29.435 3.23209 26.9283C1.59249 23.0896 0.023242 19.2399 0.00157738 13.5883ZM1.79151 14.4856C1.79791 15.062 1.75732 15.6447 1.81808 16.2135C2.11968 19.0385 3.04122 21.5983 4.36739 23.9804C4.70589 24.5886 5.21021 24.9418 5.79098 24.9058C6.41829 24.8669 6.45249 24.127 6.55729 23.6C7.20696 20.3336 8.68446 17.5424 10.163 14.7155C11.7404 11.6998 12.84 8.50553 11.3017 4.94465C10.4909 3.06765 8.09556 1.58514 6.91279 2.56723C5.73493 3.545 4.3524 4.32704 3.60007 5.96588C2.37076 8.64579 1.7182 11.4608 1.79151 14.4856Z" fill="#FACD6E"/>
<path d="M1.79151 14.4856C1.79791 15.062 1.75732 15.6447 1.81808 16.2135C2.11968 19.0385 3.04122 21.5983 4.36739 23.9804C4.70589 24.5886 5.21021 24.9418 5.79098 24.9058C6.41829 24.8669 6.45249 24.127 6.55729 23.6C7.20696 20.3336 8.68446 17.5424 10.163 14.7155C11.7404 11.6998 12.84 8.50553 11.3017 4.94465C10.4909 3.06765 8.09556 1.58514 6.91279 2.56723C5.73493 3.545 4.3524 4.32704 3.60007 5.96588C2.37076 8.64579 1.7182 11.4608 1.79151 14.4856Z" fill="#FACD6E"/>
<path d="M17.6161 14.7809C17.5896 10.0894 18.908 6.12288 22.0437 2.89614C25.6681 -0.833775 29.4914 1.58007 31.0281 4.6449C32.2166 7.01608 32.3282 9.29243 31.2905 11.8357C30.2737 14.3282 28.6875 16.2336 27.1233 18.197C25.8694 19.7714 24.7896 21.4903 24.0837 23.4505C23.2835 25.6722 22.6813 27.9666 24.6029 29.9461C24.9626 30.3166 24.9704 30.8163 24.9648 31.2951C24.955 32.1385 24.5169 32.4252 23.8558 32.0161C23.295 31.669 22.8263 31.2029 22.3821 30.6467C19.9837 27.647 18.9279 23.9582 18.199 20.1139C17.868 18.3698 17.5203 16.6073 17.6161 14.7809ZM21.7369 25.3158C22.5339 24.3319 22.5885 23.3078 22.9012 22.4189C23.3534 21.1336 23.7898 19.8532 24.5885 18.7804C25.6933 17.2957 26.7638 15.778 27.8837 14.309C28.9247 12.9434 29.7259 11.4392 30.1736 9.69067C30.8037 7.22995 30.1429 5.29384 28.0794 3.60918C26.7865 2.55359 24.8911 2.69956 23.3015 3.97643C20.6825 6.08056 18.7599 11.5159 19.6302 15.0343C20.0467 16.7173 20.2347 18.3713 20.2494 20.0766C20.2655 21.937 20.9386 23.5164 21.7369 25.3158Z" fill="#FACD6E"/>
<path d="M21.7369 25.3158C22.5339 24.3319 22.5885 23.3078 22.9012 22.4189C23.3534 21.1336 23.7898 19.8532 24.5885 18.7804C25.6933 17.2957 26.7638 15.778 27.8837 14.309C28.9247 12.9434 29.7259 11.4392 30.1736 9.69067C30.8037 7.22995 30.1429 5.29384 28.0794 3.60918C26.7865 2.55359 24.8911 2.69956 23.3015 3.97643C20.6825 6.08056 18.7599 11.5159 19.6302 15.0343C20.0467 16.7173 20.2347 18.3713 20.2494 20.0766C20.2655 21.937 20.9386 23.5164 21.7369 25.3158Z" fill="#FACD6E"/>
</svg>
