<svg width="40" height="40" viewBox="0 0 40 40" fill="none" xmlns="http://www.w3.org/2000/svg">
<path d="M37.8952 17.829C34.268 16.1804 30.6408 14.5318 27.0131 12.8825C26.1122 12.4731 25.1982 13.8099 26.061 14.4043C28.0701 15.7877 30.1449 17.0445 32.298 18.1652C27.2632 18.2685 22.2326 18.4633 17.2057 18.8C11.0708 19.211 9.59687 19.2002 3.19687 20.0002C2.63998 20.1282 2.70462 20.8964 3.29008 20.8901C9.50169 20.8221 11.1594 20.706 17.3692 20.3585C23.098 20.0377 28.8373 19.8659 34.5754 19.8534C32.8966 21.3614 31.4135 23.0828 30.2813 25.0448C29.7735 25.9243 31.2129 26.8276 31.8039 25.9972C33.6121 23.4569 35.4974 21.2567 38.0491 19.419C38.6162 19.0116 38.5339 18.1196 37.8952 17.829Z" fill="#FACD6E" stroke="#FACD6E" stroke-width="2"/>
</svg>
