<svg width="120" height="120" viewBox="0 0 120 120" fill="none" xmlns="http://www.w3.org/2000/svg">
<path fill-rule="evenodd" clip-rule="evenodd" d="M25.757 104.892C24.8562 109.765 20.9865 119.227 27.2516 119.227C31.7764 119.227 35.2161 116.012 40.5804 112.673C42.4435 113.411 85.1322 120.517 102.494 100.571C119.856 80.6242 116.478 40.0557 82.9824 31.1474C51.6364 22.8125 7.41216 32.6014 8.00592 72.105C8.21066 85.15 13.6363 96.4543 21.007 102.045C22.4483 103.213 24.0475 104.171 25.757 104.892V104.892Z" fill="#FAA8B7"/>
<path fill-rule="evenodd" clip-rule="evenodd" d="M50.3685 29.2222C37.3264 31.0243 25.1852 36.1235 17.2617 45.1956C17.8681 53.7576 20.9877 61.9501 26.2294 68.7463C36.057 80.9107 49.7747 93.3208 63.4924 96.9046C76.6778 100.325 89.2285 97.4371 95.5346 92.9727C96.75 93.1111 97.9806 92.9395 99.1119 92.474C100.243 92.0085 101.238 91.2642 102.004 90.3104L103.049 89.0407C104.247 87.5313 104.803 85.6105 104.596 83.6942C104.389 81.7778 103.436 80.02 101.943 78.8013L83.3729 63.6675C81.8643 62.4716 79.9469 61.9154 78.0327 62.1183C76.1184 62.3213 74.3602 63.2672 73.1358 64.7529L72.1121 66.0226C71.1784 67.1865 70.6198 68.6063 70.5101 70.0945C70.4004 71.5828 70.7449 73.0692 71.4979 74.3574C68.8853 75.9618 65.8605 76.7663 62.7963 76.6716C55.1799 76.3439 40.4385 63.6675 39.3738 55.7422C39.1719 53.7746 39.3925 51.7865 40.0211 49.9111C40.6496 48.0357 41.6715 46.3163 43.0182 44.868C44.1303 45.3075 45.3329 45.4682 46.5213 45.3361C47.7097 45.2041 48.8477 44.7832 49.8362 44.1103L51.1875 43.1887C51.9882 42.6444 52.6731 41.9467 53.2027 41.1361C53.7324 40.3255 54.0962 39.418 54.2733 38.466C54.4503 37.5139 54.437 36.5363 54.2342 35.5894C54.0314 34.6425 53.643 33.7452 53.0916 32.9493L50.3685 29.2222Z" fill="#DB8897"/>
<path fill-rule="evenodd" clip-rule="evenodd" d="M46.3946 35.2428C42.2998 36.6763 38.4711 42.8199 39.2491 48.5335C40.3138 56.4588 55.0552 69.1352 62.6716 69.4833C76.1231 70.0772 81.7535 51.7692 84.4766 64.9166C85.0703 67.7426 91.0488 72.1865 94.7137 73.9272C99.5866 76.2004 100.59 79.3132 98.8085 82.2826C95.2051 88.4262 79.7675 93.9555 63.3472 89.7164C49.6295 86.1736 35.9118 73.702 26.0842 61.5376C13.2878 45.687 14.6391 19.3308 25.6952 9.93098C32.9635 3.78734 35.8299 12.1632 41.4808 17.672C49.0972 24.9419 57.3074 31.4747 46.3946 35.2428Z" fill="#CDE1FF"/>
<path fill-rule="evenodd" clip-rule="evenodd" d="M46.3931 35.2428C44.0639 36.2372 42.153 38.011 40.9879 40.2601C39.4189 39.7761 38.0613 38.7722 37.1388 37.4135L23.5849 17.6105C22.8478 16.515 22.4166 15.2424 22.3359 13.9244C23.3095 12.4352 24.4881 11.0908 25.837 9.93098C33.1053 3.78734 35.9717 12.1632 41.6226 17.672C43.3425 19.3308 45.1033 20.9691 46.6593 22.5459L50.6108 28.2186C51.1373 28.9871 51.5125 29.8489 51.7164 30.7579C51.4502 32.5191 49.9352 34.0141 46.3931 35.2428Z" fill="#B0C8EB"/>
<path fill-rule="evenodd" clip-rule="evenodd" d="M67.7305 68.7872C75.0193 66.4936 79.4008 59.2851 82.0624 60.2476L83.0042 61.0258C83.7376 62.21 84.2121 63.536 84.3965 64.9167C84.9902 67.7428 90.9687 72.1867 94.6336 73.9274C99.5064 76.2006 100.51 79.3134 98.7284 82.2828C97.1149 84.6144 94.8906 86.4566 92.2995 87.6073C90.8002 87.5044 89.3696 86.9392 88.2047 85.9894L69.5527 70.917C68.8107 70.3344 68.1914 69.6105 67.7305 68.7872V68.7872Z" fill="#B0C8EB"/>
<path d="M29.2835 4.12705L27.9316 5.05193C24.5996 7.33136 23.7459 11.8809 26.0248 15.2137L39.5712 35.0245C41.8501 38.3573 46.3987 39.2112 49.7307 36.9317L51.0827 36.0068C54.4147 33.7274 55.2684 29.1778 52.9895 25.8451L39.443 6.03429C37.1641 2.70152 32.6156 1.84762 29.2835 4.12705Z" fill="#FFCF70"/>
<path d="M73.0074 57.5666L71.9777 58.8407C69.44 61.9808 69.9278 66.584 73.0672 69.1223L91.7286 84.2105C94.868 86.7487 99.4702 86.2609 102.008 83.1208L103.038 81.8467C105.575 78.7065 105.088 74.1033 101.948 71.565L83.2867 56.4769C80.1473 53.9386 75.5451 54.4265 73.0074 57.5666Z" fill="#FFCF70"/>
</svg>
